<svg xmlns="http://www.w3.org/2000/svg" viewBox="3143 1731 104.211 30">
  <defs>
    <style>
      .cls-1 {
        fill: #339fd0;
      }
    </style>
  </defs>
  <g id="Pozichka" transform="translate(3143 1731)">
    <g id="Layer_1" data-name="Layer 1" transform="translate(0 0)">
      <path id="path908" class="cls-1" d="M42.788,13.274c1.161-.221,3.569-6.652,5.016-8.437,2.3-.871,9.427-1.161,9.589-2.34C57.231,1.57,55.976.952,53.843.509c-1.392-.217-6.713-1.2-8.735.34C43.218,2.522,42.069,6.9,41.814,9.33,41.454,11.172,41.875,13.264,42.788,13.274Z" transform="translate(-33.241 0)"/>
      <path id="path908-2" data-name="path908" class="cls-1" d="M72.334,24.266c.729.932,7.548.126,9.8.594,1.823,1.643,5.352,7.847,6.482,7.452.752-.571.721-1.977.142-4.07-.446-1.335-2.009-6.517-4.3-7.606-2.356-.916-6.772.065-9.051.958C73.592,22.115,71.925,23.456,72.334,24.266Z" transform="translate(-57.632 -16.164)"/>
      <path id="path908-3" data-name="path908" class="cls-1" d="M20.138,28.336c.261-1.153-4.669-5.933-5.725-7.973.122-2.457,2.708-9.1,1.693-9.723-.916-.223-1.987.691-3.241,2.459-.749,1.185-3.788,5.67-3.18,8.137.77,2.4,4.317,5.21,6.448,6.413C17.677,28.715,19.761,29.169,20.138,28.336Z" transform="translate(-7.66 -8.458)"/>
      <path id="path908-4" data-name="path908" class="cls-1" d="M52.752,82.77c-1.163.2-3.622,6.622-5.082,8.394-2.307.855-9.438,1.086-9.61,2.263.156.93,1.418,1.558,3.535,2.026,1.39.229,6.7,1.256,8.737-.267,1.906-1.659,3.093-6.024,3.363-8.457C54.071,84.883,53.666,82.788,52.752,82.77Z" transform="translate(-30.35 -66.004)"/>
      <path id="path908-5" data-name="path908" class="cls-1" d="M17.3,78.13c-.8-.873-7.537.454-9.814.158-1.951-1.5-5.935-7.414-7.025-6.936-.7.626-.567,2.026.17,4.068.545,1.309,2.5,6.346,4.874,7.256,2.417.733,6.745-.581,8.949-1.647C16.205,80.374,17.769,78.912,17.3,78.13Z" transform="translate(0 -56.877)"/>
      <path id="path908-6" data-name="path908" class="cls-1" d="M100.922,48.97c-.354,1.128,4.177,6.28,5.064,8.406-.318,2.431-3.431,8.856-2.469,9.557.9.3,2.026-.527,3.431-2.19.847-1.124,4.23-5.35,3.826-7.858-.581-2.457-3.891-5.54-5.919-6.912C103.4,48.788,101.358,48.17,100.922,48.97Z" transform="translate(-80.463 -38.763)"/>
      <path id="Path_2034" data-name="Path 2034" class="cls-1" d="M178.73,58.155c.537-.081,1.09-.144,1.657-.184s1.114-.061,1.639-.061a8.306,8.306,0,0,1,1.578.148,3.936,3.936,0,0,1,1.386.545,2.947,2.947,0,0,1,.993,1.088,4.393,4.393,0,0,1,.034,3.48,3.063,3.063,0,0,1-.9,1.1,3.571,3.571,0,0,1-1.272.608,5.685,5.685,0,0,1-1.446.184,4.183,4.183,0,0,1-.508-.018,1.4,1.4,0,0,1-.265-.03v2.157a6.767,6.767,0,0,1-.81.113c-.241.018-.454.026-.64.026a5.614,5.614,0,0,1-.64-.026,6.83,6.83,0,0,1-.8-.113Zm2.891,4.647a1.7,1.7,0,0,0,.219.026h.221a1.586,1.586,0,0,0,1.013-.308,1.245,1.245,0,0,0,.4-1.043,1.215,1.215,0,0,0-.395-.974,1.434,1.434,0,0,0-.972-.34h-.2a2.528,2.528,0,0,0-.271.016Z" transform="translate(-142.525 -46.179)"/>
      <path id="Path_2035" data-name="Path 2035" class="cls-1" d="M221.229,62.7a6.279,6.279,0,0,1,.29-1.955,4.179,4.179,0,0,1,.859-1.517,3.782,3.782,0,0,1,1.418-.972,5.757,5.757,0,0,1,3.912,0,3.782,3.782,0,0,1,1.418.972,4.179,4.179,0,0,1,.859,1.517,6.28,6.28,0,0,1,.29,1.955,6.047,6.047,0,0,1-.3,1.916,4.1,4.1,0,0,1-.859,1.491,3.769,3.769,0,0,1-1.418.956,5.923,5.923,0,0,1-3.912,0,3.77,3.77,0,0,1-1.418-.956,4.1,4.1,0,0,1-.847-1.491A6.046,6.046,0,0,1,221.229,62.7Zm6.034,0a3.229,3.229,0,0,0-.379-1.718,1.266,1.266,0,0,0-1.149-.6,1.242,1.242,0,0,0-1.138.6,3.3,3.3,0,0,0-.369,1.718,3.211,3.211,0,0,0,.369,1.7,1.242,1.242,0,0,0,1.138.6,1.266,1.266,0,0,0,1.149-.6,3.183,3.183,0,0,0,.375-1.7Z" transform="translate(-176.415 -46.179)"/>
      <path id="Path_2036" data-name="Path 2036" class="cls-1" d="M271.676,65.614h3.348a7.331,7.331,0,0,1,.124,1.226,3.707,3.707,0,0,1-.026.537c-.026.182-.051.393-.1.64H267.66l-.28-.527,3.664-6.138h-3a4.981,4.981,0,0,1-.113-.675c-.018-.2-.026-.379-.026-.553a5.3,5.3,0,0,1,.026-.535,4.528,4.528,0,0,1,.113-.64h7.136l.176.561Z" transform="translate(-213.218 -47.009)"/>
      <path id="Path_2037" data-name="Path 2037" class="cls-1" d="M316.208,67.417c-.3.047-.579.081-.824.105s-.468.034-.666.034-.419-.012-.666-.034-.515-.059-.81-.105V58.378a5.989,5.989,0,0,1,.764-.124c.251-.022.492-.034.727-.034s.462.012.719.034a5.411,5.411,0,0,1,.754.124Z" transform="translate(-249.788 -46.427)"/>
      <path id="Path_2038" data-name="Path 2038" class="cls-1" d="M335.418,62.659a5.96,5.96,0,0,1,.3-1.928,4.157,4.157,0,0,1,.877-1.5,4.052,4.052,0,0,1,1.418-.972,4.985,4.985,0,0,1,1.928-.35c.245,0,.478,0,.7.018a5.9,5.9,0,0,1,.658.069,4.86,4.86,0,0,1,.666.158c.227.071.482.158.762.263a4.02,4.02,0,0,1-.105,1.183,4.782,4.782,0,0,1-.438,1.149c-.2-.069-.377-.126-.535-.166s-.308-.073-.448-.1a3.678,3.678,0,0,0-.405-.043h-.429a2.009,2.009,0,0,0-1.388.49,2.251,2.251,0,0,0-.551,1.728,2.991,2.991,0,0,0,.166,1.078,1.749,1.749,0,0,0,.427.671,1.621,1.621,0,0,0,.632.35,2.749,2.749,0,0,0,.764.105,4.051,4.051,0,0,0,.885-.087,6.948,6.948,0,0,0,.885-.282,4.294,4.294,0,0,1,.474,1.061,4.743,4.743,0,0,1,.174,1.341,6.371,6.371,0,0,1-1.473.405,10.156,10.156,0,0,1-1.333.087,5.488,5.488,0,0,1-1.981-.332A3.886,3.886,0,0,1,336.6,66.1a4.069,4.069,0,0,1-.887-1.491,5.992,5.992,0,0,1-.3-1.951Z" transform="translate(-267.473 -46.176)"/>
      <path id="Path_2039" data-name="Path 2039" class="cls-1" d="M383.91,64.084h-2.593v3.332c-.3.047-.577.081-.824.105s-.468.034-.666.034-.419-.012-.666-.034-.515-.059-.81-.105V58.378a6.043,6.043,0,0,1,.764-.124c.251-.022.492-.034.727-.034s.462.012.719.034a5.413,5.413,0,0,1,.758.124v3.075h2.593V58.378a6.044,6.044,0,0,1,.764-.124c.251-.022.494-.034.727-.034s.462.012.719.034a5.49,5.49,0,0,1,.756.124v9.049c-.306.047-.579.081-.824.105s-.468.034-.666.034-.421-.012-.666-.034-.515-.059-.81-.105Z" transform="translate(-301.709 -46.427)"/>
      <path id="Path_2040" data-name="Path 2040" class="cls-1" d="M430.13,58.378a5.986,5.986,0,0,1,.764-.124c.251-.022.492-.034.727-.034s.462.012.719.034a5.413,5.413,0,0,1,.754.124v9.03a7.206,7.206,0,0,1-.825.115c-.245.016-.462.026-.648.026a6.158,6.158,0,0,1-.666-.026,7.207,7.207,0,0,1-.824-.115Zm5.313,0a5.481,5.481,0,0,1,.772-.105c.3-.024.573-.036.81-.036.3,0,.608.012.922.036a4.511,4.511,0,0,1,.745.105l-2.18,4.2,2.421,4.821a5.53,5.53,0,0,1-.79.105c-.314.024-.589.036-.822.036-.306,0-.608-.012-.9-.036a4.053,4.053,0,0,1-.711-.105l-2.332-4.7Z" transform="translate(-343 -46.427)"/>
      <path id="Path_2041" data-name="Path 2041" class="cls-1" d="M476.18,64.228a2.546,2.546,0,0,1,.367-1.418,2.8,2.8,0,0,1,.948-.893,4.052,4.052,0,0,1,1.28-.466,7.467,7.467,0,0,1,1.367-.132h1.063a.927.927,0,0,0-.174-.525,1.058,1.058,0,0,0-.405-.326,1.982,1.982,0,0,0-.545-.156,4.053,4.053,0,0,0-.608-.045,5.874,5.874,0,0,0-.982.1,7,7,0,0,0-1.157.306c-.105-.2-.2-.379-.271-.543a2.578,2.578,0,0,1-.176-.5,3.972,3.972,0,0,1-.087-.527c-.018-.18-.026-.389-.026-.622a11.2,11.2,0,0,1,1.675-.421,9.149,9.149,0,0,1,1.5-.14,5.791,5.791,0,0,1,1.651.219,3.3,3.3,0,0,1,1.254.675,3.018,3.018,0,0,1,.8,1.167,4.619,4.619,0,0,1,.28,1.693v5.135c-.444.13-.982.257-1.621.387a10.085,10.085,0,0,1-2,.2,7.972,7.972,0,0,1-1.675-.166,3.7,3.7,0,0,1-1.307-.537,2.538,2.538,0,0,1-.851-.972A3.241,3.241,0,0,1,476.18,64.228Zm4.138.982a3.948,3.948,0,0,0,.456-.034,3.368,3.368,0,0,0,.431-.071V63.177h-.993a1.912,1.912,0,0,0-1.035.263.827.827,0,0,0-.421.735.871.871,0,0,0,.158.553,1.013,1.013,0,0,0,.395.308,1.824,1.824,0,0,0,.508.14A3.755,3.755,0,0,0,480.318,65.211Z" transform="translate(-379.72 -46.186)"/>
    </g>
  </g>
</svg>
