<svg xmlns="http://www.w3.org/2000/svg"
 width="512.000000pt" height="512.000000pt" viewBox="0 0 512.000000 512.000000"
 preserveAspectRatio="xMidYMid meet">
<g transform="translate(0.000000,512.000000) scale(0.100000,-0.100000)"
fill="#000000" stroke="none">
<path d="M1620 5104 c-411 -74 -707 -334 -824 -724 -37 -125 -44 -198 -42
-479 l1 -254 310 1 c171 1 333 1 361 1 l52 1 0 198 c0 108 3 213 7 232 30 169
98 262 224 307 52 19 79 22 174 20 98 -2 119 -6 172 -30 98 -46 160 -118 191
-223 15 -49 18 -99 18 -304 0 -256 -8 -335 -46 -450 -29 -90 -47 -121 -288
-500 -358 -562 -382 -603 -414 -702 -27 -84 -29 -118 -31 -531 l-3 -417 22 -1
c80 -2 698 0 701 2 2 2 5 146 8 319 4 319 5 336 34 425 24 75 42 107 211 374
432 683 415 656 452 753 26 72 58 208 67 293 11 93 10 786 0 852 -25 159 -91
312 -193 448 -159 213 -391 341 -703 388 -118 18 -363 19 -461 1z"/>
<path d="M3499 5043 c-1 -5 -1 -10 -1 -13 1 -10 14 -434 27 -835 3 -99 7 -238
10 -310 2 -71 7 -213 10 -315 3 -102 8 -241 10 -310 3 -69 7 -206 10 -305 3
-99 7 -234 10 -300 2 -66 7 -212 10 -325 3 -113 8 -252 10 -310 2 -58 7 -190
10 -295 4 -104 8 -242 10 -305 2 -63 4 -125 5 -137 l0 -23 290 0 290 0 1 23
c1 12 2 36 4 52 2 28 13 282 20 460 2 44 6 139 9 210 4 72 9 175 11 230 7 175
15 357 20 460 3 55 8 163 11 240 7 185 14 328 29 680 2 50 7 146 10 215 3 69
7 175 10 235 3 61 7 164 10 230 3 66 8 161 10 210 3 50 7 151 10 225 3 74 8
177 10 228 l5 92 -435 0 c-239 0 -436 -3 -436 -7z"/>
<path d="M1449 770 c0 -14 -1 -191 -1 -395 l-1 -370 399 -3 399 -2 0 395 c0
217 -2 396 -5 396 -3 1 -182 2 -397 3 l-393 1 -1 -25z"/>
<path d="M3515 790 c-2 -3 -3 -182 -3 -398 l1 -392 399 0 398 0 0 398 0 397
-396 0 c-218 0 -397 -2 -399 -5z"/>
</g>
</svg>
