<svg xmlns="http://www.w3.org/2000/svg" xmlns:xlink="http://www.w3.org/1999/xlink" viewBox="0 0 957.92 319.47"><defs><style>.cls-1,.cls-2{opacity:0.17;}.cls-1,.cls-2,.cls-3{isolation:isolate;}.cls-1{fill:url(#Безымянный_градиент_14);}.cls-2{fill:url(#Безымянный_градиент_14-2);}.cls-3{opacity:0.04;fill:url(#Безымянный_градиент_14-3);}</style><linearGradient id="Безымянный_градиент_14" x1="808" y1="471.3" x2="808.64" y2="471.33" gradientTransform="matrix(1918.4, 0, 0, -604.25, -1549427.74, 284821.33)" gradientUnits="userSpaceOnUse"><stop offset="0" stop-color="#fff" stop-opacity="0"/><stop offset="0.08" stop-color="#d1e3e6" stop-opacity="0.27"/><stop offset="0.19" stop-color="#92bec5" stop-opacity="0.65"/><stop offset="0.28" stop-color="#6ba6b0" stop-opacity="0.88"/><stop offset="0.32" stop-color="#5c9da8" stop-opacity="0.97"/><stop offset="0.5" stop-color="#ccacff"/><stop offset="0.77" stop-color="#ffbfe2" stop-opacity="0.97"/><stop offset="1" stop-color="#fff" stop-opacity="0"/></linearGradient><linearGradient id="Безымянный_градиент_14-2" x1="808.02" y1="471.02" x2="808.65" y2="471.06" xlink:href="#Безымянный_градиент_14"/><linearGradient id="Безымянный_градиент_14-3" x1="812.63" y1="236.3" x2="957.81" y2="236.3" gradientTransform="matrix(1, 0, 0, 1, 0, 0)" xlink:href="#Безымянный_градиент_14"/></defs><title>path left bobra</title><g id="Слой_2" data-name="Слой 2"><g id="Слой_1-2" data-name="Слой 1"><g id="base_path" data-name="base path"><polygon class="cls-1" points="0 0 136.1 64.33 270.21 91.72 293.05 95.75 289.27 94.72 0 0"/><polygon class="cls-2" points="872.24 251.33 729.47 172.75 293.05 95.75 729.47 214.69 872.24 258.03 928.12 281.67 957.92 319.47 957.92 291.46 928.12 278.03 872.24 251.33"/><path id="Path_left-2" data-name="Path left-2" class="cls-3" d="M957.79,245.9l-37.17.55L896,243l-83.41-24.5L886,243.9l21.67,7.23,50.11,3,0-8.13Z"/></g></g></g></svg>