<svg xmlns="http://www.w3.org/2000/svg" viewBox="0 0 27.783 20.5">
  <defs>
    <style>
      .cls-1 {
        fill: #339fd0;
        stroke: #339fd0;
        stroke-width: 0.5px;
      }
    </style>
  </defs>
  <path id="draw" class="cls-1" d="M26.787,19.025H17.459V2.062A12.743,12.743,0,0,1,25.04,13.7a.49.49,0,1,0,.98,0A13.724,13.724,0,0,0,17.416.975h9.377A.488.488,0,1,0,26.787,0H.49a.49.49,0,0,0,0,.98H7.778A11.058,11.058,0,0,0,1.263,11.055a8.954,8.954,0,0,0,4.88,7.965H.49a.49.49,0,0,0,0,.98h26.3a.488.488,0,1,0-.005-.975ZM6.739,18.231a7.98,7.98,0,0,1-4.5-7.176A10.015,10.015,0,0,1,2.77,7.821H8.657a4.858,4.858,0,0,0-1.913,3.841,4.182,4.182,0,0,0,.975,2.595,3.935,3.935,0,0,0,2.973,1.353,3.264,3.264,0,0,0,3.261-3.261,2.71,2.71,0,0,0-2.706-2.706A2.26,2.26,0,0,0,8.988,11.9,1.912,1.912,0,0,0,10.9,13.809a.49.49,0,1,0,0-.98.933.933,0,0,1-.932-.932,1.285,1.285,0,0,1,1.284-1.284,1.729,1.729,0,0,1,1.726,1.726,2.283,2.283,0,0,1-2.28,2.28A2.977,2.977,0,0,1,7.72,11.646a3.843,3.843,0,0,1,3.841-3.841,4.928,4.928,0,0,1,4.923,4.923A6.28,6.28,0,0,1,10.208,19,7.513,7.513,0,0,1,6.739,18.231Zm9.739.794H13.836a7.265,7.265,0,0,0,2.643-2.643ZM11.556,6.846h-8.4A10.1,10.1,0,0,1,12.318.975a12.676,12.676,0,0,1,4.161.7V9.5A5.9,5.9,0,0,0,11.556,6.846Z" transform="translate(0.25 0.25)"/>
</svg>
