<svg xmlns="http://www.w3.org/2000/svg" viewBox="0 0 145.1 27">
  <g fill="#fff">
    <path d="M60.7 27H7.9V12.6L0 8.8 7.9 5V0h52.8v27zm-50.3-2.2h47.9V2.5H10.4v4.1L5.8 8.8l4.6 2.2v13.8z"/>
    <path d="M18.543 9.358c0-.5-.1-1.1-.4-1.5-.3-.4-.8-.7-1.3-.6-.4 0-.8.1-1.1.4-.4.5-.6 1.1-.5 1.7 0 .6.1 1.2.4 1.8.3.3.6.6 1.1.7l1.5.5c.8.3 1.6.8 2.1 1.5.6.9.8 1.9.7 2.9v.6c.1 1.3-.3 2.7-1.2 3.7-.8.8-2 1.2-3.1 1.1-1.3.1-2.5-.5-3.3-1.5-.5-.8-.7-1.8-.7-2.8v-.6h2.4v.4c0 .5.1 1 .4 1.5.3.4.8.6 1.3.6.6.1 1.1-.2 1.5-.6.3-.5.4-1.1.4-1.6v-.7c0-.6-.1-1.2-.4-1.7-.3-.3-.7-.6-1.1-.7l-1.8-.7c-1-.2-1.8-.9-2.2-1.9-.3-.7-.4-1.6-.3-2.4v-.5c-.1-1.1.4-2.2 1.2-3.1.8-.7 1.8-1.1 2.9-1 2.4 0 4 1.6 4 4.3v.6h-2.4l-.1-.4zM25.543 5.158v7.2h3.2v-7.2h2.4v16.7h-2.4v-7.4h-3.2v7.4h-2.4v-16.7h2.4zM33.443 9.558c-.1-1.3.3-2.7 1.2-3.6 1.7-1.4 4.2-1.4 5.9 0 .9.9 1.4 2.2 1.2 3.5v7.9c.2 1.3-.3 2.6-1.2 3.5-1.7 1.4-4.2 1.4-5.9 0-.9-.9-1.4-2.2-1.2-3.5v-7.8zm6-.4c.1-.5-.1-1.1-.5-1.5-.3-.3-.8-.5-1.3-.5s-.9.1-1.3.5-.6.9-.5 1.5v8.7c-.1.5.1 1.1.5 1.5.3.3.8.5 1.3.5s.9-.1 1.3-.5.6-.9.5-1.5v-8.7zM46.043 15.758c-.1-.9.2-1.8.8-2.4l1.4-2.1c.3-.5.4-1 .4-1.6v-1c0-.4-.1-.7-.4-1-.3-.2-.6-.4-1-.3-.4 0-.7.1-1 .4-.2.3-.3.6-.3 1v1.2h-2.4v-1.6c0-1.1.5-2.1 1.4-2.7.7-.5 1.4-.7 2.2-.7 1-.1 2 .3 2.7.9.7.6 1.1 1.6 1.1 2.5v1.3c.1.9-.1 1.7-.6 2.5l-1.5 2.7c-.3.5-.4 1.1-.4 1.6v1.4h-2.4v-2.1zm2.5 3.5v2.6h-2.6v-2.6h2.6zM55.543 5.158l-.6 12.5h-1.9l-.3-12.5h2.8zm-.2 14.1v2.6h-2.6v-2.6h2.6z"/>
  </g>
  <path d="M71 0h1.6v27H71V0z" opacity=".501" fill="#fff"/>
  <path d="M88.8 2.5h-1.7l-3.5 9.2h1.7l.9-2.4h3.6l.9 2.4h1.7l-3.6-9.2zm.5 5.6h-2.8l1.4-3.9 1.4 3.9zm7.5-3.2h-.3c-1 0-1.9.6-2.2 1.5V5.1h-1.4v6.6h1.5V8.8c0-1.4.5-2.5 1.9-2.5h.5V4.9zm4 .2h-1.3v-2H98v2h-1.1v1.1H98v3.2c0 1.5-.1 2.5 1.8 2.5.3 0 .7 0 1-.1v-1.2h-.6c-.8 0-.8-.3-.8-1V6.1h1.3v-1zm11.3 2.2h-1.3c0 .4-.2.9-.3 1.2l-1.4-1.7c.9-.4 1.6-1.3 1.6-2.3 0-1.1-.9-2-2.1-2h-.1c-1.1-.1-2.2.7-2.3 1.9v.2c0 .8.4 1.5.9 2-1.2.4-2 1.5-2.1 2.7 0 1.5 1.2 2.7 2.6 2.7h.2c1 0 1.9-.4 2.6-1.2l.8 1h1.8l-1.8-2.1c.6-.8.8-1.6.9-2.4zm-3.7-1.4c-.4-.5-.7-1-.8-1.5 0-.5.4-.9.9-.9s.9.4.9.9v.1c0 .6-.3 1-1 1.4zm-.5 1.6l1.8 2.2c-.4.6-1 1-1.7 1-.8 0-1.5-.6-1.5-1.5s.7-1.4 1.4-1.7zm10.4-5v9.2h3.6c1.1.1 2.2-.2 3-1 .9-1 1.4-2.4 1.3-3.7.1-1.3-.4-2.6-1.4-3.5-.8-.7-1.9-1-3-.9l-3.5-.1zm1.6 1.4h1.8c2 0 2.8 1.3 2.8 3.1s-.6 3.3-2.7 3.3h-1.9V3.9zm7.5 3.2h1.4c.1-.9.5-1.2 1.5-1.2.9 0 1.4.3 1.4 1 0 .2 0 .3-.1.5s-.4.3-1.5.4c-1.3.2-3 .3-3 2.1 0 1.1.9 2 1.9 2h.3c.9 0 1.7-.2 2.3-.8.1.5.6.9 1.1.8.3 0 .6-.1 1-.1v-1h-.3c-.3 0-.3-.1-.3-.5V6.9c0-1.4-1.2-2-2.7-2-1.7-.1-2.9.6-3 2.2zm4.2 1.3v.8c.1.4 0 .8-.3 1.1-.4.4-1 .6-1.5.5-.8 0-1.2-.4-1.2-1 0-.9.8-1 1.5-1.1.5 0 1-.1 1.5-.3zm6.3-3.3h-1.3v-2H135v2h-1.1v1.1h1.1v3.2c0 1.5-.1 2.5 1.8 2.5.3 0 .7 0 1-.1v-1.2h-.6c-.8 0-.8-.3-.8-1V6.1h1.3v-1zm.9 2h1.4c.1-.9.5-1.2 1.5-1.2.9 0 1.4.3 1.4 1 0 .2 0 .3-.1.5s-.4.3-1.5.4c-1.3.2-3 .3-3 2.1 0 1.1.9 2 1.9 2h.3c.9 0 1.7-.2 2.3-.8.1.5.6.9 1.1.8.3 0 .6 0 1-.1v-1h-.3c-.3 0-.3-.1-.3-.5V6.9c0-1.4-1.2-2-2.7-2-1.7-.1-2.8.6-3 2.2zm4.3 1.3v.8c.1.4 0 .8-.3 1.1-.4.4-1 .5-1.5.5-.8 0-1.2-.4-1.2-1 0-.9.8-1 1.5-1.1.4 0 1-.1 1.5-.3zm-51.9 9.7c-.1-2-1.6-2.9-3.4-2.9-2.1 0-3.4 1-3.4 2.7 0 1.9 1.5 2.2 3.5 2.7 1.4.3 2.1.5 2.1 1.5 0 .9-.7 1.4-2 1.4s-2.4-.6-2.4-2H84c0 2.2 1.7 3.2 3.9 3.2 1.8 0 3.6-.8 3.6-2.9 0-2-1.8-2.3-3.3-2.7-1.8-.5-2.3-.5-2.3-1.4 0-.8.7-1.3 1.8-1.3s1.9.5 2 1.6l1.5.1zm4.8-.2h-1.3v-2h-1.5v2h-1.1V19h1.1v3.2c0 1.5-.1 2.5 1.8 2.5.3 0 .7 0 1-.1v-1.2h-.6c-.8 0-.8-.3-.8-1V19H96v-1.1zm6.9 0h-1.5v3.5c0 1.1-.4 2.1-1.6 2.1-1.2 0-1.3-.8-1.3-1.8v-3.8H97v4.4c-.2 1.2.6 2.2 1.8 2.4h.5c.9 0 1.7-.4 2.2-1.2v1h1.4v-6.6zm7.8-2.5h-1.4v3.4c-.5-.7-1.3-1.1-2.1-1-1.8 0-3 1.4-3 3.5s1.2 3.5 3.1 3.5c.9.1 1.7-.4 2.1-1.1v.9h1.4l-.1-9.2zm-3.2 3.5c1.2 0 1.9.9 1.9 2.3s-.7 2.3-1.8 2.3-1.9-.9-1.9-2.4c0-1.3.7-2.2 1.8-2.2zm6.3-3.5h-1.5v1.4h1.5v-1.4zm0 2.5h-1.5v6.6h1.5v-6.6zm4.7-.2c-1.8-.1-3.3 1.3-3.4 3.1v.5c-.1 1.9 1.3 3.4 3.2 3.5 1.9.1 3.4-1.3 3.5-3.2v-.4c.2-1.8-1.1-3.3-2.8-3.5h-.5zm0 1.2c1.2 0 1.9.9 1.9 2.3 0 1.5-.7 2.4-1.9 2.4s-1.9-.9-1.9-2.4c0-1.4.7-2.3 1.9-2.3z" fill="#fff"/>
</svg>
