<svg xmlns="http://www.w3.org/2000/svg" viewBox="0 0 21.771 23.302">
  <defs>
    <style>
      .cls-1 {
        fill: #339fd0;
      }
    </style>
  </defs>
  <g id="yii" transform="translate(0 0)">
    <path id="Path_2003" data-name="Path 2003" class="cls-1" d="M168.333,0c1.585.808,2.946,2.927,2.878,5.8-.207,3.543-2.776,6.6-5.571,9.41a25.221,25.221,0,0,0-2.067-8.692c-1.1-3.1,2.116-6.421,4.761-6.52Z" transform="translate(-149.443 -0.004)"/>
    <path id="Path_2004" data-name="Path 2004" class="cls-1" d="M94.312,146.5a15.725,15.725,0,0,0,1.875-2.853c2.883,1.507,2.2,1.226,3.594,2.832q.007.075.013.15c.115,2.227-1.509,7.376-7.906,8.081A11.127,11.127,0,0,1,94.312,146.5Z" transform="translate(-83.994 -131.409)"/>
    <path id="Path_2005" data-name="Path 2005" class="cls-1" d="M.143,17.78a10.489,10.489,0,0,1,12.3,3.894c.274.372.534.759.779,1.157.443,2.825.105,4.394-.756,5.225a16.611,16.611,0,0,0-1.816-.773c-1.5-.545-2.884-.905-4.86-1.491A7.452,7.452,0,0,1,.143,17.78Z" transform="translate(-0.119 -15.63)"/>
    <path id="Path_2006" data-name="Path 2006" class="cls-1" d="M143.456,81.28c.03.046.059.093.089.139l.036.058q.11.176.216.355l.012.02.019.032.017.03.051.087,0,.006.069.12,0,0q.074.131.147.264l.006.011.054.1v0l.059.11.017.032.033.063.04.078.039.075q.059.117.117.234l.01.019q.1.212.2.427l.05.109,0,.011.032.071.037.084.021.049.034.078.024.056.051.12,0,.008.054.131.007.016q.087.212.169.425l.005.013.045.119,0,.007.026.07q.043.117.085.235l.011.031c.031.088.062.176.091.263l.009.028c.028.082.055.165.081.247l.013.04,0,.009.042.133,0,.006.039.127.039.131v0l.032.111.01.036.02.069c.022.079.044.158.065.237l.016.059.031.117V86.8q.056.215.106.43l0,.015,0,.015q.065.283.121.565l0,.019q.085.432.146.869v0q.019.133.035.265l0,.038.015.126h0l.013.117,0,.039.009.093,0,.037v.015l.011.127a9.919,9.919,0,0,0-3.653-2.89,8,8,0,0,0,.777-5.406" transform="translate(-130.532 -74.355)"/>
  </g>
</svg>
