<svg xmlns="http://www.w3.org/2000/svg" viewBox="0 0 21.855 20">
  <defs>
    <style>
      .cls-1 {
        fill: #339fd0;
      }
    </style>
  </defs>
  <g id="Ai" transform="translate(-0.001 -19.827)">
    <path id="XMLID_450_" class="cls-1" d="M.236,46.509H4.207a.241.241,0,0,0,.227-.191l1.158-4.609h4.5l1.256,4.615a.24.24,0,0,0,.226.185h4.123a.249.249,0,0,0,.236-.26.279.279,0,0,0-.021-.108L10.665,27.469a.24.24,0,0,0-.225-.183H5.413a.24.24,0,0,0-.226.184L.011,46.172a.284.284,0,0,0,.036.231A.229.229,0,0,0,.236,46.509ZM9.4,38.024H6.277L7.2,34.387c.167-.655.325-1.431.478-2.181q.053-.258.1-.507c.2.9.425,1.869.648,2.69Z" transform="translate(0 -6.682)"/>
    <path id="XMLID_453_" class="cls-1" d="M185.024,76.551a.249.249,0,0,0-.236.26V90.38a.249.249,0,0,0,.236.26h3.82a.249.249,0,0,0,.236-.26V76.812a.249.249,0,0,0-.236-.26Z" transform="translate(-167.35 -50.813)"/>
    <path id="XMLID_454_" class="cls-1" d="M185.938,24.593a2.259,2.259,0,0,0,2.3-2.375,2.265,2.265,0,0,0-2.271-2.391,2.187,2.187,0,0,0-1.67.717,2.447,2.447,0,0,0-.576,1.68,2.4,2.4,0,0,0,.577,1.65A2.157,2.157,0,0,0,185.938,24.593Z" transform="translate(-166.379)"/>
  </g>
</svg>
