<svg id="Analitics" xmlns="http://www.w3.org/2000/svg" viewBox="0 0 72.135 25.501">
  <defs>
    <style>
      .cls-1 {
        fill: #339fd0;
      }
    </style>
  </defs>
  <path id="Path_2078" data-name="Path 2078" class="cls-1" d="M20.984.9c-.032,0-.063,0-.095,0H16.747a1.83,1.83,0,0,0-1.823,1.823V8.075H8.935A1.773,1.773,0,0,0,7.171,9.853v5.988H1.778A1.782,1.782,0,0,0,0,17.624v4.2a1.8,1.8,0,0,0,1.764,1.792H20.9a1.83,1.83,0,0,0,1.823-1.823V2.728A1.841,1.841,0,0,0,20.984.9Z" transform="translate(0 -0.859)"/>
  <path id="Path_2079" data-name="Path 2079" class="cls-1" d="M1232.741,86.024a2.289,2.289,0,0,0,1.769-.763h.054v.469c0,1.286-.69,1.972-1.792,1.972a1.874,1.874,0,0,1-1.7-1.2l-1.286.532a3.207,3.207,0,0,0,2.978,1.986c1.728,0,3.195-1.02,3.195-3.5V79.476h-1.4v.578h-.054a2.331,2.331,0,0,0-1.769-.754,3.37,3.37,0,0,0,0,6.724Zm.126-5.4a2.054,2.054,0,1,1-1.792,2.04A1.891,1.891,0,0,1,1232.867,80.627Z" transform="translate(-1174.112 -75.721)"/>
  <path id="Path_2080" data-name="Path 2080" class="cls-1" d="M901.871,86.024a3.362,3.362,0,1,0-3.371-3.362A3.316,3.316,0,0,0,901.871,86.024Zm0-5.4a2.04,2.04,0,1,1-1.9,2.035A1.933,1.933,0,0,1,901.871,80.627Z" transform="translate(-857.954 -75.721)"/>
  <path id="Path_2081" data-name="Path 2081" class="cls-1" d="M1457.139,86.024a3.353,3.353,0,0,0,2.8-1.485l-1.146-.763a1.928,1.928,0,0,1-1.656.925,1.714,1.714,0,0,1-1.634-1.02L1460,81.823l-.149-.384a3.119,3.119,0,0,0-2.875-2.139,3.2,3.2,0,0,0-3.172,3.362A3.3,3.3,0,0,0,1457.139,86.024Zm-.1-5.46a1.329,1.329,0,0,1,1.273.74l-3.037,1.255A1.825,1.825,0,0,1,1457.036,80.564Z" transform="translate(-1388.195 -75.721)"/>
  <path id="Path_2082" data-name="Path 2082" class="cls-1" d="M659.384,10.415a4.768,4.768,0,0,0,3.633-1.458,4.7,4.7,0,0,0,1.232-3.326,4.38,4.38,0,0,0-.077-.889h-4.788V6.164h3.4a3,3,0,0,1-.776,1.792A3.485,3.485,0,0,1,659.384,9a3.733,3.733,0,0,1-3.732-3.782,3.733,3.733,0,0,1,3.732-3.782,3.62,3.62,0,0,1,2.563,1.02l1-1.011A4.91,4.91,0,0,0,659.38,0a5.278,5.278,0,0,0-5.28,5.208A5.281,5.281,0,0,0,659.384,10.415Z" transform="translate(-624.583)"/>
  <path id="Path_2083" data-name="Path 2083" class="cls-1" d="M1071.942,82.662a3.371,3.371,0,1,0-3.371,3.362A3.313,3.313,0,0,0,1071.942,82.662Zm-5.271,0a1.9,1.9,0,1,1,1.9,2.035A1.936,1.936,0,0,1,1066.671,82.662Z" transform="translate(-1017.131 -75.721)"/>
  <rect id="Rectangle_93" data-name="Rectangle 93" class="cls-1" width="1.453" height="10.163" transform="translate(63.01 0.14)"/>
  <path id="Path_2084" data-name="Path 2084" class="cls-1" d="M1499.453,361.261l-.009-.032-.018-.027a2.749,2.749,0,0,0-.618-.578,6.469,6.469,0,0,0-1.232-.56,5.6,5.6,0,0,1-1.259-.627.786.786,0,0,1-.28-.632.528.528,0,0,1,.325-.533,2.454,2.454,0,0,1,1.115-.212,4.608,4.608,0,0,1,1.593.375l.167.063.321-.83-.158-.068a4.791,4.791,0,0,0-1.963-.4,2.939,2.939,0,0,0-1.724.42,1.408,1.408,0,0,0-.654,1.227,1.68,1.68,0,0,0,.216.826,1.922,1.922,0,0,0,.6.6,7.148,7.148,0,0,0,1.309.6h0a3.7,3.7,0,0,1,1.173.582l.009.009a.718.718,0,0,1,.311.623.655.655,0,0,1-.37.65,2.6,2.6,0,0,1-1.3.284,4.1,4.1,0,0,1-1.846-.442l-.262-.131v1.024l.09.054a4.021,4.021,0,0,0,2.017.411,3.041,3.041,0,0,0,1.877-.46,1.655,1.655,0,0,0,.69-1.417A2.284,2.284,0,0,0,1499.453,361.261Z" transform="translate(-1427.44 -341.081)"/>
  <path id="Path_2085" data-name="Path 2085" class="cls-1" d="M1386.741,358.966a4.016,4.016,0,0,1,1.327.257l.176.063.257-.839-.154-.063a4.067,4.067,0,0,0-1.575-.284,2.94,2.94,0,0,0-2.252.907,3.553,3.553,0,0,0-.821,2.473,3.439,3.439,0,0,0,.781,2.437,2.805,2.805,0,0,0,2.175.866h0a3.323,3.323,0,0,0,1.629-.329l.095-.05v-.88l-.248.1a3.924,3.924,0,0,1-1.471.293,1.81,1.81,0,0,1-1.48-.627,2.764,2.764,0,0,1-.537-1.81,2.863,2.863,0,0,1,.537-1.891A1.925,1.925,0,0,1,1386.741,358.966Z" transform="translate(-1321.258 -341.94)"/>
  <rect id="Rectangle_94" data-name="Rectangle 94" class="cls-1" width="0.903" height="6.453" transform="translate(60.907 16.277)"/>
  <path id="Path_2086" data-name="Path 2086" class="cls-1" d="M1256.69,335.371h0a1.108,1.108,0,0,1-.713-.248,1.78,1.78,0,0,1-.185-.921v-3.673h1.774v-.862h-1.774V328.2h-.6l-.275,1.426-.916.28v.623h.925v3.75a2.025,2.025,0,0,0,.438,1.476,1.8,1.8,0,0,0,1.322.478,3.576,3.576,0,0,0,.975-.122l.131-.036v-.808l-.208.032A6.634,6.634,0,0,1,1256.69,335.371Z" transform="translate(-1197.411 -313.389)"/>
  <rect id="Rectangle_95" data-name="Rectangle 95" class="cls-1" width="0.903" height="9.07" transform="translate(49.423 13.655)"/>
  <path id="Path_2087" data-name="Path 2087" class="cls-1" d="M955.835,358.2a4.97,4.97,0,0,0-2.044.478l-.153.072.325.844.176-.09a3.756,3.756,0,0,1,1.692-.442,1.154,1.154,0,0,1,1.011.352,1.973,1.973,0,0,1,.311,1.2v.212l-.984.032a4.134,4.134,0,0,0-2.256.573,1.778,1.778,0,0,0-.812,1.534,1.756,1.756,0,0,0,.56,1.4,2.069,2.069,0,0,0,1.512.51,2.806,2.806,0,0,0,1.236-.248l.009,0a3.1,3.1,0,0,0,.79-.632l.122.772h.681v-4.228a2.36,2.36,0,0,0-.555-1.746A2.165,2.165,0,0,0,955.835,358.2Zm.844,5.325a2.02,2.02,0,0,1-1.422.492,1.108,1.108,0,0,1-.835-.293l-.014-.009a.953.953,0,0,1-.28-.749,1.011,1.011,0,0,1,.451-.884,4.385,4.385,0,0,1,1.724-.361l.893-.032v.429A1.832,1.832,0,0,1,956.679,363.525Z" transform="translate(-910.09 -342.036)"/>
  <path id="Path_2088" data-name="Path 2088" class="cls-1" d="M1125.788,364.211c-.09.257-.18.5-.262.722-.136.37-.253.695-.348.966-.131-.388-.329-.934-.6-1.652l-1.318-3.547h-.966l2.383,6.273c-.05.144-.153.415-.284.74a6.8,6.8,0,0,1-.411.862.974.974,0,0,1-.311.357.881.881,0,0,1-.42.095,1.986,1.986,0,0,1-.636-.068l-.239-.081v.88l.122.041a2.416,2.416,0,0,0,.749.126,1.564,1.564,0,0,0,.821-.176,1.447,1.447,0,0,0,.609-.528,8.686,8.686,0,0,0,.555-1.182l2.829-7.338h-.966Z" transform="translate(-1071.654 -344.423)"/>
  <path id="Path_2089" data-name="Path 2089" class="cls-1" d="M651.661,313.7l-3.461,8.57h1.006l1.155-2.893h3.069l1.155,2.893h1.042l-3.375-8.57Zm1.44,4.82h-2.41l1.02-2.712a2.877,2.877,0,0,0,.2-.478c.068.181.122.329.162.456Z" transform="translate(-618.949 -299.544)"/>
  <path id="Path_2090" data-name="Path 2090" class="cls-1" d="M1347.628,311.2c-.158,0-.528.072-.528.722,0,.6.289.722.528.722a.465.465,0,0,0,.411-.221.894.894,0,0,0,0-1A.455.455,0,0,0,1347.628,311.2Z" transform="translate(-1286.31 -297.157)"/>
  <path id="Path_2091" data-name="Path 2091" class="cls-1" d="M828.215,358.1a2.726,2.726,0,0,0-2.031.736l-.086-.623h-.8v6.412h.9v-3.533a2.39,2.39,0,0,1,.451-1.647,2.052,2.052,0,0,1,1.489-.483,1.311,1.311,0,0,1,1.06.361,1.787,1.787,0,0,1,.343,1.232v4.111h.93v-4.152C830.476,358.917,829.718,358.1,828.215,358.1Z" transform="translate(-788.057 -341.94)"/>
</svg>
