<svg xmlns="http://www.w3.org/2000/svg" viewBox="0 0 22.494 23.302">
  <defs>
    <style>
      .cls-1 {
        fill: #339fd0;
      }
    </style>
  </defs>
  <g id="php_logo" data-name="php logo" transform="translate(0 0)">
    <g id="Layer_1" data-name="Layer 1" transform="translate(0 0)">
      <path id="Path_2000" data-name="Path 2000" class="cls-1" d="M13.613,1.063A5.043,5.043,0,0,0,10.638.256a8.108,8.108,0,0,0-1.7.21C8.693.4,8.339.3,8.317.289,8.261.278,8.207.267,8.14.256A8.93,8.93,0,0,0,3.763.289,6.19,6.19,0,0,0,.524,2.477C-.1,3.274-.045,5.231.6,7.564a23.01,23.01,0,0,0,2.9,6.369c-.168.155-.7.387-2.5.023a1.308,1.308,0,0,0-.763.011.46.46,0,0,0-.279.487.806.806,0,0,0,.168.4,3.86,3.86,0,0,0,1.4,1.028,5.593,5.593,0,0,0,1.891.409A4.233,4.233,0,0,0,4.5,16.233a1.179,1.179,0,0,0,.21-.056c.066.505.144,1.216.232,1.936.11.9.243,1.791.321,2.273a3.4,3.4,0,0,0,.829,1.88,3.614,3.614,0,0,0,1.946.939,2.534,2.534,0,0,0,2.332-.442,3.232,3.232,0,0,0,.863-1.316,9.352,9.352,0,0,0,.3-2.3c.034-.785.056-1.725.045-2.686a3.053,3.053,0,0,0,1.581.763,4.419,4.419,0,0,0,1.714-.084,2.26,2.26,0,0,0,.829-.421.656.656,0,0,0,.221-.4.589.589,0,0,0-.188-.5,1.959,1.959,0,0,0-.918-.376c-1.061-.221-1.162-.332-1.46-.719-.077-.1-.168-.2-.243-.287V14.4l.343-.033a3.066,3.066,0,0,0,1.029-.343c.287.309,1.05,1.139,1.891,2.145a2.1,2.1,0,0,0,.917.7,1.62,1.62,0,0,0,1.8-.641,8.292,8.292,0,0,0,1.316-2.267A33.3,33.3,0,0,0,22.43,6.116C22.834-2.033,14.884.6,13.613,1.063ZM1.263,7.387c-.6-2.134-.686-3.872-.2-4.489A5.6,5.6,0,0,1,3.949.941a8.265,8.265,0,0,1,3.8-.077,8.069,8.069,0,0,0-3.7,3.505,6.792,6.792,0,0,0-.5,1.106,1.655,1.655,0,0,0-.144.708c0,.011.011.022.011.033a5.572,5.572,0,0,0,.11,1.316A9.121,9.121,0,0,1,3.64,8.592a7.694,7.694,0,0,1-.088,1.194A4.782,4.782,0,0,0,4,13.114a.146.146,0,0,1-.033.045.992.992,0,0,1-.077.11A22.176,22.176,0,0,1,1.263,7.387ZM4.325,8.571A8.24,8.24,0,0,0,4.2,7.432a5.574,5.574,0,0,1-.1-.984c1.575-.189,2.178.243,2.289.907.189,1.205-.9,3.162-1.459,4.157-.144.276-.253.476-.31.6a4,4,0,0,1-.189.376,4.648,4.648,0,0,1-.2-2.62,8.662,8.662,0,0,0,.088-1.294Zm.332,6.9a.609.609,0,0,1-.3.088,3.3,3.3,0,0,1-.907.045,5.275,5.275,0,0,1-1.636-.343,3.913,3.913,0,0,1-.984-.641c.9.168,2.267.421,3.074-.188.056.011.11.033.177.044.232.074.609.173.575.992Zm6.811-1.393a1.459,1.459,0,0,0-.52.7,2.448,2.448,0,0,0-.077.785c.034,1.283.023,2.544-.022,3.572a8.894,8.894,0,0,1-.243,2.067,2.6,2.6,0,0,1-.673,1.05,1.884,1.884,0,0,1-1.748.285,2.889,2.889,0,0,1-1.592-.741,2.891,2.891,0,0,1-.652-1.526c-.077-.5-.2-1.371-.31-2.244-.133-1.05-.253-2.146-.287-2.521.066-1.3-.575-1.548-1.029-1.67A2.351,2.351,0,0,1,4.5,13.59a4.273,4.273,0,0,0,.758-1.219c.034-.088.144-.276.288-.53C6.135,10.779,7.3,8.689,7.072,7.252c-.17-1.026-.944-1.7-2.891-1.5A.168.168,0,0,1,4.2,5.7a5.568,5.568,0,0,1,.453-1A6.888,6.888,0,0,1,10.65.941c3.969-.066,4.7,3.892,4.832,5.55a4.521,4.521,0,0,0-.609-.309,4.781,4.781,0,0,0-1.094-.31,2.68,2.68,0,0,0-1.15.055,1.706,1.706,0,0,0-1.173,1.393,6.912,6.912,0,0,0,.365,5.031,5.889,5.889,0,0,1,.375.951,4.708,4.708,0,0,1,.178.564.665.665,0,0,0-.144-.023,1.2,1.2,0,0,0-.763.232Zm3.206,2.045a2.2,2.2,0,0,1,.5.144,1.359,1.359,0,0,1-.465.2,3.568,3.568,0,0,1-1.426.077,2.478,2.478,0,0,1-1.659-1.061.512.512,0,0,1-.022-.475.865.865,0,0,1,.265-.376.517.517,0,0,1,.31-.1.227.227,0,0,1,.155.077,5.717,5.717,0,0,1,.487.538c.42.542.553.708,1.858.973Zm-1.316-2.441a2.786,2.786,0,0,1-.31.034,6.472,6.472,0,0,0-.21-.663,7.65,7.65,0,0,0-.4-.984,6.307,6.307,0,0,1-.309-4.6,1.036,1.036,0,0,1,.707-.873,1.753,1.753,0,0,1,.842-.045,4.649,4.649,0,0,1,.939.276,7,7,0,0,1,.885.4c0,.1-.011.2-.011.31a13.24,13.24,0,0,0,.077,2.963,3.185,3.185,0,0,1,.011.719,2.79,2.79,0,0,1-.73,1.658,2.441,2.441,0,0,1-1.493.8Zm8.38-7.6a31.58,31.58,0,0,1-1.957,7.608,7.845,7.845,0,0,1-1.194,2.067c-.354.4-.719.589-1.061.465a1.488,1.488,0,0,1-.62-.5c-.785-.939-1.515-1.736-1.858-2.089a3.335,3.335,0,0,0,1.216-2.357,3.81,3.81,0,0,0-.022-.874,14.087,14.087,0,0,1-.066-2.842c.011-.143.011-.253.011-.343,0-.033.1-3.626-1.957-5.64C16.09.975,22.06-.485,21.739,6.082Z" transform="translate(0.049 0.003)"/>
      <path id="Path_2001" data-name="Path 2001" class="cls-1" d="M57.448,80.739a.692.692,0,0,0,.354-.067c.144-.084.243-.188.243-.3,0-.077-.044-.144-.155-.21a1.142,1.142,0,0,0-.386-.122,1.164,1.164,0,0,0-.4.012c-.122.033-.2.084-.21.177a.453.453,0,0,0,.144.3A.638.638,0,0,0,57.448,80.739Z" transform="translate(-52.101 -73.293)"/>
      <path id="Path_2002" data-name="Path 2002" class="cls-1" d="M149.336,82.164a1.346,1.346,0,0,0-.829.11.326.326,0,0,0-.189.288.549.549,0,0,0,.225.287.714.714,0,0,0,.465.111.792.792,0,0,0,.431-.232.558.558,0,0,0,.168-.332C149.591,82.285,149.513,82.208,149.336,82.164Z" transform="translate(-135.829 -75.227)"/>
    </g>
  </g>
</svg>
