<svg xmlns="http://www.w3.org/2000/svg" viewBox="2950 1731 83.779 30">
  <defs>
    <style>
      .cls-1 {
        fill: #339fd0;
      }
    </style>
  </defs>
  <g id="Groshi247" transform="translate(2949.989 1730.966)">
    <path id="Path_2065" data-name="Path 2065" class="cls-1" d="M11,63.991A5.123,5.123,0,0,0,6.935,62.2a6.258,6.258,0,0,0-2.422.478,7.542,7.542,0,0,0-2.081,1.313A7.42,7.42,0,0,0,.879,65.919a6.8,6.8,0,0,0-.8,2.337,5.618,5.618,0,0,0-.017,1.6,5.547,5.547,0,0,0,.392,1.433A4.649,4.649,0,0,0,1.2,72.5a4.724,4.724,0,0,0,1.075.938,5.784,5.784,0,0,0,1.314.614,4.955,4.955,0,0,0,1.518.222,7.383,7.383,0,0,0,2.337-.392,7.917,7.917,0,0,0,2.337-1.313,1.811,1.811,0,0,0,.29-.341.854.854,0,0,0,.154-.409l.409-2.781a.984.984,0,0,0-.017-.392.793.793,0,0,0-.461-.512.948.948,0,0,0-.392-.085l-2.422-.034a1.119,1.119,0,0,0-.751.307,1.529,1.529,0,0,0-.256.324,1.076,1.076,0,0,0-.136.392,1,1,0,0,0,.017.392,1.131,1.131,0,0,0,.154.324.868.868,0,0,0,.273.222.93.93,0,0,0,.375.085h1.4l-.188,1.331a4.19,4.19,0,0,1-1.348.682,4.871,4.871,0,0,1-1.4.2,3.489,3.489,0,0,1-1.535-.324,3.448,3.448,0,0,1-1.143-.87,3.273,3.273,0,0,1-.665-1.279,3.907,3.907,0,0,1-.085-1.552,4.419,4.419,0,0,1,.563-1.586A4.816,4.816,0,0,1,3.677,65.39a4.887,4.887,0,0,1,1.4-.853,4.213,4.213,0,0,1,1.569-.307,4.054,4.054,0,0,1,1.5.29,3.231,3.231,0,0,1,1.211.887.509.509,0,0,0,.29.2.891.891,0,0,0,.358.068,1.173,1.173,0,0,0,.409-.085,1.268,1.268,0,0,0,.358-.222,1.254,1.254,0,0,0,.273-.324,1,1,0,0,0,.136-.375.848.848,0,0,0-.017-.358A.749.749,0,0,0,11,63.991Z" transform="translate(0 -51.561)"/>
    <path id="Path_2066" data-name="Path 2066" class="cls-1" d="M74.1,82.316a1.057,1.057,0,0,0,.136-.409.851.851,0,0,0-.171-.716.89.89,0,0,0-.734-.29h-.017a4.623,4.623,0,0,0-1.842.375,5.821,5.821,0,0,0-1.621.989,6,6,0,0,0-1.211,1.484,4.869,4.869,0,0,0-.631,1.808l-.461,3.1a1,1,0,0,0,.017.392.894.894,0,0,0,.188.324,1.419,1.419,0,0,0,.307.222.93.93,0,0,0,.375.085,1.083,1.083,0,0,0,.392-.085,1.135,1.135,0,0,0,.341-.2.982.982,0,0,0,.256-.324,1.077,1.077,0,0,0,.136-.392l.461-3.173a2.588,2.588,0,0,1,.375-.989,3.488,3.488,0,0,1,.682-.819,3.048,3.048,0,0,1,.9-.546,2.59,2.59,0,0,1,1.006-.2h.051a1.265,1.265,0,0,0,.426-.085,1.227,1.227,0,0,0,.358-.2A1.41,1.41,0,0,0,74.1,82.316Z" transform="translate(-56.005 -67.071)"/>
    <path id="Path_2067" data-name="Path 2067" class="cls-1" d="M113.1,82.4a3.7,3.7,0,0,0-1.262-.955,3.808,3.808,0,0,0-1.672-.341,4.894,4.894,0,0,0-1.774.341,5.6,5.6,0,0,0-1.552.955,5.48,5.48,0,0,0-1.16,1.416,4.823,4.823,0,0,0-.6,1.723,4.139,4.139,0,0,0,.1,1.723,3.573,3.573,0,0,0,.751,1.4,3.924,3.924,0,0,0,1.262.955,3.808,3.808,0,0,0,1.672.341,4.894,4.894,0,0,0,1.774-.341,5.367,5.367,0,0,0,1.552-.955,5.764,5.764,0,0,0,1.16-1.4,4.418,4.418,0,0,0,.6-1.723,4.139,4.139,0,0,0-.1-1.723A3.644,3.644,0,0,0,113.1,82.4Zm-1.177,3.122a2.672,2.672,0,0,1-.324.938,3.035,3.035,0,0,1-.631.768,2.83,2.83,0,0,1-.836.512,2.665,2.665,0,0,1-.972.188,2.2,2.2,0,0,1-.9-.188,2.053,2.053,0,0,1-.682-.512,2.084,2.084,0,0,1-.409-.768,2.14,2.14,0,0,1-.051-.938,2.672,2.672,0,0,1,.324-.938,3.035,3.035,0,0,1,.631-.768,2.83,2.83,0,0,1,.836-.512,2.645,2.645,0,0,1,.955-.188,2.2,2.2,0,0,1,.9.188,1.908,1.908,0,0,1,.7.512,2.084,2.084,0,0,1,.409.768A2.846,2.846,0,0,1,111.918,85.518Z" transform="translate(-87.106 -67.237)"/>
    <path id="Path_2068" data-name="Path 2068" class="cls-1" d="M166.2,81H163.23a2.845,2.845,0,0,0-1.058.2,3.183,3.183,0,0,0-.921.563,3.488,3.488,0,0,0-.682.819,2.658,2.658,0,0,0-.307,2.03,2.305,2.305,0,0,0,.426.87,1.926,1.926,0,0,0,.734.6,2.18,2.18,0,0,0,1.006.222h1.552a1.68,1.68,0,0,1,.29.034.593.593,0,0,1,.256.119.468.468,0,0,1,.188.529,1.008,1.008,0,0,1-.119.341.743.743,0,0,1-.239.222.869.869,0,0,1-.29.119.9.9,0,0,1-.29.034h-3.412a1.011,1.011,0,0,0-.7.256,1.04,1.04,0,0,0-.358.716.909.909,0,0,0,.154.751.737.737,0,0,0,.631.273h3.616a2.97,2.97,0,0,0,1.092-.222,3.235,3.235,0,0,0,.921-.58,2.954,2.954,0,0,0,.665-.853,3.151,3.151,0,0,0,.341-1.024,2.647,2.647,0,0,0-.051-1.041,2.188,2.188,0,0,0-.426-.87,2.373,2.373,0,0,0-.751-.6,2.252,2.252,0,0,0-1.024-.222h-1.723a.542.542,0,0,1-.546-.648.787.787,0,0,1,.256-.461A.733.733,0,0,1,162.94,83h3a.93.93,0,0,0,.375-.085,1.394,1.394,0,0,0,.341-.2,1.2,1.2,0,0,0,.256-.324,1.161,1.161,0,0,0,.136-.409.811.811,0,0,0-.188-.734A.962.962,0,0,0,166.2,81Z" transform="translate(-132.106 -67.154)"/>
    <path id="Path_2069" data-name="Path 2069" class="cls-1" d="M216.458,66.586a3.236,3.236,0,0,0-1.16-.921,3.719,3.719,0,0,0-3.036-.034,4.958,4.958,0,0,0-1.314.853l.495-3.361a1.1,1.1,0,0,0-.017-.409.742.742,0,0,0-.171-.324.892.892,0,0,0-.29-.2.93.93,0,0,0-.375-.085,1.173,1.173,0,0,0-.409.085,1.227,1.227,0,0,0-.358.2,1.714,1.714,0,0,0-.273.324,1.057,1.057,0,0,0-.136.409l-1.467,9.928a1,1,0,0,0,.017.392.742.742,0,0,0,.171.324.892.892,0,0,0,.29.2.948.948,0,0,0,.392.085,1.173,1.173,0,0,0,.409-.085,1.136,1.136,0,0,0,.341-.2,1.2,1.2,0,0,0,.256-.324,1.077,1.077,0,0,0,.136-.392l.529-3.531a2.215,2.215,0,0,1,.358-.887,2.726,2.726,0,0,1,.7-.7,3.021,3.021,0,0,1,.9-.461,2.783,2.783,0,0,1,.972-.171,1.883,1.883,0,0,1,.836.188,1.633,1.633,0,0,1,.58.495,1.767,1.767,0,0,1,.307.734,2.565,2.565,0,0,1,.017.887l-.512,3.48a1,1,0,0,0,.017.392.682.682,0,0,0,.171.307.892.892,0,0,0,.29.2.918.918,0,0,0,.375.068,1,1,0,0,0,.392-.068,1.227,1.227,0,0,0,.358-.2,1.117,1.117,0,0,0,.256-.307,1.076,1.076,0,0,0,.136-.392l.512-3.5a4.2,4.2,0,0,0-.068-1.672A3.688,3.688,0,0,0,216.458,66.586Z" transform="translate(-172.454 -51.478)"/>
    <path id="Path_2070" data-name="Path 2070" class="cls-1" d="M279.724,63.224a1.063,1.063,0,0,0-.307-.239,1.031,1.031,0,0,0-.409-.085,1.281,1.281,0,0,0-.444.085,1.084,1.084,0,0,0-.375.239,1.811,1.811,0,0,0-.29.341,1.28,1.28,0,0,0-.154.426,1.163,1.163,0,0,0,.017.426.739.739,0,0,0,.188.341.9.9,0,0,0,.734.324,1.362,1.362,0,0,0,.444-.085,1.084,1.084,0,0,0,.375-.239,1.811,1.811,0,0,0,.29-.341.992.992,0,0,0,.154-.426.892.892,0,0,0-.034-.426A.739.739,0,0,0,279.724,63.224Z" transform="translate(-230.348 -52.142)"/>
    <path id="Path_2071" data-name="Path 2071" class="cls-1" d="M272.077,81.307a.867.867,0,0,0-.273-.222.93.93,0,0,0-.375-.085,1.173,1.173,0,0,0-.409.085.974.974,0,0,0-.358.222,1.254,1.254,0,0,0-.273.324,1.076,1.076,0,0,0-.136.392l-1.006,6.823a1,1,0,0,0,.017.392,1.18,1.18,0,0,0,.171.324.892.892,0,0,0,.29.2.93.93,0,0,0,.375.085,1.012,1.012,0,0,0,.392-.085,1.394,1.394,0,0,0,.341-.2.982.982,0,0,0,.256-.324,1.076,1.076,0,0,0,.136-.392l1.006-6.823a1.015,1.015,0,0,0-.017-.392A.466.466,0,0,0,272.077,81.307Z" transform="translate(-223.298 -67.154)"/>
    <path id="Path_2072" data-name="Path 2072" class="cls-1" d="M329.7,78.02h5.015a.82.82,0,0,0,.819-.6c.068-.341-.171-.6-.563-.6H331.56l2.047-1.382c1.638-1.092,2.405-1.979,2.627-3,.307-1.467-.7-2.542-2.388-2.542a3.609,3.609,0,0,0-3.514,2.337,1.089,1.089,0,0,0-.068.546.529.529,0,0,0,.58.546.85.85,0,0,0,.836-.6,1.736,1.736,0,0,1,.085-.307,1.858,1.858,0,0,1,1.808-1.348,1.081,1.081,0,0,1,1.177,1.416c-.154.716-.682,1.3-1.893,2.115l-3.343,2.252a.76.76,0,0,0-.392.512A.528.528,0,0,0,329.7,78.02Z" transform="translate(-272.954 -57.948)"/>
    <path id="Path_2073" data-name="Path 2073" class="cls-1" d="M379.335,70.731a.53.53,0,0,0-.58-.631,1.018,1.018,0,0,0-.785.426l-3.787,5.356a.584.584,0,0,0-.136.273.53.53,0,0,0,.58.631h3.753l-.188.887a.535.535,0,0,0,.58.648.851.851,0,0,0,.853-.648l.188-.887h.6a.853.853,0,0,0,.836-.6c.068-.307-.136-.6-.58-.6h-.6l.375-1.791a.535.535,0,0,0-.58-.648.851.851,0,0,0-.853.648l-.375,1.791h-2.678l3.258-4.623A.783.783,0,0,0,379.335,70.731Z" transform="translate(-310.221 -58.114)"/>
    <path id="Path_2074" data-name="Path 2074" class="cls-1" d="M344.567,15.176a12.85,12.85,0,0,0,.017-4.35C343.9,6.238,340.882,1.871,334.519.4a16.222,16.222,0,0,0-12.947,2.866l-1.041.751-1.825-1.5L317.12,9.581h10.218L324.3,6.988a2.012,2.012,0,0,1,.307-.222l.154-.085a4.549,4.549,0,0,1,2.252-.58c4.879,0,8.222,3.361,8.171,7.83a8.707,8.707,0,0,1-.2,1.842,12.812,12.812,0,0,1-12.06,9.672c-5.356,0-8.87-4.06-8.052-9.177-1.348,7.642,3.855,13.766,11.839,13.766,6.738,0,13.357-4.384,16.376-10.354h0A14.426,14.426,0,0,0,344.567,15.176Zm-2.32-2.064-4.145,6.84a.723.723,0,0,1-.614.324.682.682,0,0,1-.7-.648.765.765,0,0,1,.085-.324l3.651-6.039H337.4a.591.591,0,0,1-.648-.563.6.6,0,0,1,.648-.58h4.248a.682.682,0,0,1,.7.648A.615.615,0,0,1,342.247,13.112Z" transform="translate(-260.971 0)"/>
  </g>
</svg>
