<svg xmlns="http://www.w3.org/2000/svg" viewBox="0 0 27.098 20">
  <defs>
    <style>
      .cls-1 {
        fill: #339fd0;
      }
    </style>
  </defs>
  <path id="XD" class="cls-1" d="M23.674,7.852a2.515,2.515,0,0,0-1.064-.183c-2.313,0-3.854,1.779-3.854,4.734,0,3.376,1.578,4.734,3.632,4.734a3.44,3.44,0,0,0,1.266-.2V7.852Zm-8.218,4.7c0-4.275,2.753-7.614,7.266-7.614a8.088,8.088,0,0,1,.955.037V.2a.184.184,0,0,1,.183-.183h2.954c.146,0,.183.055.183.146v16.77a13.1,13.1,0,0,0,.092,1.8c0,.129,0,.146-.111.2A10.922,10.922,0,0,1,22.279,20c-3.981,0-6.823-2.461-6.823-7.45ZM9.2,9.578l5.138,9.962c.092.146.037.294-.109.294h-3.2a.36.36,0,0,1-.386-.238q-1.76-3.635-3.595-7.542H7.016c-1.1,2.459-2.313,5.136-3.486,7.558a.353.353,0,0,1-.329.2H.154c-.183,0-.2-.146-.109-.257l5.027-9.67L.208.275A.162.162,0,0,1,.337,0H3.493c.183,0,.275.037.331.2C4.98,2.642,6.153,5.046,7.254,7.5h.037C8.354,5.081,9.529,2.642,10.648.238,10.741.092,10.8,0,10.979,0h2.954c.146,0,.2.109.109.275L9.2,9.578Z" transform="translate(0.01)"/>
</svg>
