<svg xmlns="http://www.w3.org/2000/svg" viewBox="0 0 27.243 20">
  <defs>
    <style>
      .cls-1 {
        fill: #339fd0;
      }
    </style>
  </defs>
  <path id="AE" class="cls-1" d="M22.78,10.637a7.881,7.881,0,0,0,1.328-.036c0-.126.036-.215.036-.3,0-.97-.467-2.762-2.332-2.762-1.722,0-2.457,1.507-2.636,3.1Zm-3.642,2.457c.036,2.421,1.183,4.054,3.911,4.054a7.007,7.007,0,0,0,2.924-.556c.126-.053.215-.036.215.126V18.96a.379.379,0,0,1-.179.358A8.131,8.131,0,0,1,22.4,20c-4.736,0-6.511-3.5-6.511-7.391,0-4.233,2.189-7.7,6.044-7.7,3.911,0,5.275,3.282,5.275,5.955a9.088,9.088,0,0,1-.143,1.9.265.265,0,0,1-.232.232,26.049,26.049,0,0,1-3,.126h-4.7v-.033ZM9.523,11.266c-.5-1.991-1.722-6.332-2.17-8.431H7.317c-.377,2.1-1.364,5.65-2.1,8.431Zm-5.04,2.905L3.066,19.535c-.036.143-.09.2-.269.2H.159c-.179,0-.215-.053-.179-.269L5.075,1.65A5.511,5.511,0,0,0,5.254.179C5.254.053,5.308,0,5.4,0H9.165c.126,0,.179.036.215.179l5.7,19.32c.036.143,0,.232-.143.232h-2.96a.243.243,0,0,1-.269-.179l-1.471-5.381Z" transform="translate(0.033)"/>
</svg>
