<svg xmlns="http://www.w3.org/2000/svg" viewBox="0 0 20 20">
  <defs>
    <style>
      .cls-1 {
        fill: #339fd0;
      }
    </style>
  </defs>
  <path id="IStudio" class="cls-1" d="M0,0V20H20V0ZM14.184,16.573a2.524,2.524,0,0,1-1.584.449,2.974,2.974,0,0,1-1.213-.245,2.021,2.021,0,0,1-.861-.676,1.688,1.688,0,0,1-.306-1h1.06a.984.984,0,0,0,.343.8,1.5,1.5,0,0,0,.982.282,1.311,1.311,0,0,0,.829-.222.723.723,0,0,0,.278-.593.737.737,0,0,0-.282-.621,3.464,3.464,0,0,0-1.019-.44,4.8,4.8,0,0,1-1.172-.5,1.558,1.558,0,0,1-.834-1.361,1.481,1.481,0,0,1,.6-1.213,2.418,2.418,0,0,1,1.556-.477,2.616,2.616,0,0,1,1.135.236,1.873,1.873,0,0,1,.783.667,1.7,1.7,0,0,1,.282.959H13.707a.953.953,0,0,0-.3-.746,1.234,1.234,0,0,0-.857-.269,1.283,1.283,0,0,0-.806.222.74.74,0,0,0-.287.621.672.672,0,0,0,.31.56,3.572,3.572,0,0,0,1.019.435,4.635,4.635,0,0,1,1.144.482,1.758,1.758,0,0,1,.63.621,1.6,1.6,0,0,1,.2.82A1.413,1.413,0,0,1,14.184,16.573Zm2.8.412H15.717V15.721h1.264Z"/>
</svg>
