<svg xmlns="http://www.w3.org/2000/svg" viewBox="464.4 477 94.8 46">
  <path fill="none" stroke="#FC0" stroke-width="2.886" stroke-miterlimit="10" d="M478.7 478.5v7.9l-11 5.3 11 5.3v24.5h79v-43z"/>
  <g fill="#000">
    <path d="M485.6 485.3h4.2v25.6h4.6v-25.6h4.2v25.6h4.6v-25.6h4.2v29.4h-21.9v-29.4zM512.1 493c0-2.2.2-4.4 2.2-6.3 1.3-1.2 3-1.9 5.2-1.9s3.9.7 5.2 1.9c2 1.9 2.2 4 2.2 6.3v14c0 2.2-.2 4.4-2.2 6.3-1.3 1.2-3 1.9-5.2 1.9s-3.9-.7-5.2-1.9c-2-1.9-2.2-4-2.2-6.3v-14zm10.6-.6c0-.9-.1-1.8-.9-2.6-.5-.5-1.2-.8-2.3-.8s-1.8.4-2.3.8c-.8.8-.9 1.7-.9 2.6v15.2c0 .9.1 1.8.9 2.6.5.5 1.2.8 2.3.8s1.8-.4 2.3-.8c.8-.8.9-1.7.9-2.6v-15.2zM534.1 503.9c0-1.9 0-2.1 1.4-4.3l2.4-3.8c.7-1.1.7-2.2.7-2.8v-1.8c0-.6-.1-1.2-.6-1.8-.5-.5-1.1-.6-1.8-.6-.8 0-1.4.3-1.7.7-.3.4-.5 1.1-.5 1.7v2h-4.2v-2.5c0-2.2 1.2-4 2.4-4.8 1-.7 2.3-1.2 3.9-1.2 2.2 0 3.8.6 4.8 1.6.7.6 1.9 2.1 1.9 4.4v2.3c0 1.6-.2 3.1-1 4.3l-3 4.7c-.7 1.1-.6 2.1-.6 2.9v2.4H534l.1-3.4zm4.4 6.2v4.6h-4.6v-4.6h4.6zM550.9 485.3l-1 22h-3.4l-.7-22h5.1zm-.4 24.8v4.6h-4.6v-4.6h4.6z"/>
  </g>
</svg>
