<svg id="AdWords" xmlns="http://www.w3.org/2000/svg" viewBox="0 0 71.97 23">
  <defs>
    <style>
      .cls-1 {
        fill: #339fd0;
      }
    </style>
  </defs>
  <path id="XMLID_5_" class="cls-1" d="M100.317,17.4a1.731,1.731,0,0,0-1.528.976h-.042v-.849h-.934v5.22h.976V19.86a1.413,1.413,0,0,1,1.358-1.528.919.919,0,0,1,.509.085l.382-.934a3.365,3.365,0,0,0-.721-.085m9.039-.042c-1.1,0-2.079.594-2.079,1.57,0,.934.934,1.358,1.4,1.443l1.061.255c.552.127.721.424.721.679,0,.424-.424.721-1.061.721a1.45,1.45,0,0,1-1.4-.976l-.891.382a2.32,2.32,0,0,0,2.292,1.485c1.231,0,2.079-.721,2.079-1.655,0-.637-.424-1.273-1.443-1.528l-1.018-.255c-.424-.085-.679-.3-.679-.594,0-.424.467-.679,1.018-.679a1.233,1.233,0,0,1,1.188.679l.849-.339a2.07,2.07,0,0,0-2.037-1.188m-15.022,4.71a1.736,1.736,0,0,1-1.7-1.91,1.76,1.76,0,0,1,1.7-1.91,1.736,1.736,0,0,1,1.7,1.91,1.76,1.76,0,0,1-1.7,1.91m0-4.71a2.643,2.643,0,0,0-2.673,2.8,2.676,2.676,0,1,0,5.347,0,2.667,2.667,0,0,0-2.673-2.8M83.513,9.039A1.96,1.96,0,0,1,81.6,7a1.934,1.934,0,0,1,1.91-2.037A1.96,1.96,0,0,1,85.423,7a1.96,1.96,0,0,1-1.91,2.037m0-5.432A3.351,3.351,0,0,0,80.118,7a3.395,3.395,0,1,0,6.79,0,3.351,3.351,0,0,0-3.395-3.395m7.6,5.432A1.96,1.96,0,0,1,89.2,7a1.934,1.934,0,0,1,1.91-2.037A1.96,1.96,0,0,1,93.018,7a1.96,1.96,0,0,1-1.91,2.037m0-5.432A3.351,3.351,0,0,0,87.714,7,3.395,3.395,0,1,0,94.5,7a3.351,3.351,0,0,0-3.395-3.395m7.384,5.432A1.92,1.92,0,0,1,96.668,7a1.869,1.869,0,0,1,1.825-2.037,1.933,1.933,0,0,1,1.825,2.079,1.881,1.881,0,0,1-1.825,1.994m-.127-5.432A3.311,3.311,0,0,0,95.183,7,3.311,3.311,0,0,0,98.365,10.4a2.418,2.418,0,0,0,1.782-.764h.042V10.1c0,1.315-.679,1.994-1.825,1.994a1.848,1.848,0,0,1-1.7-1.188l-1.315.552a3.246,3.246,0,0,0,3.013,1.994c1.74,0,3.225-1.018,3.225-3.522V3.777h-1.4v.594h-.042a2.418,2.418,0,0,0-1.782-.764m8.53,3.31a1.818,1.818,0,0,1,1.782-1.994,1.3,1.3,0,0,1,1.273.764l-3.055,1.231m1.7-3.31A3.206,3.206,0,0,0,105.41,7a3.316,3.316,0,0,0,3.352,3.395,3.394,3.394,0,0,0,2.843-1.485l-1.146-.764a1.926,1.926,0,0,1-1.655.934,1.722,1.722,0,0,1-1.655-1.018L111.69,6.2l-.17-.382a3.2,3.2,0,0,0-2.928-2.207M78.845,22.066a1.73,1.73,0,0,1-1.655-1.91,1.755,1.755,0,0,1,1.655-1.91,1.706,1.706,0,0,1,1.655,1.91,1.706,1.706,0,0,1-1.655,1.91m2.631-6.917H80.5v2.419l.042.721H80.5a2.1,2.1,0,0,0-1.782-.891,2.667,2.667,0,0,0-2.5,2.8,2.64,2.64,0,0,0,2.5,2.8,2.1,2.1,0,0,0,1.782-.891h.042v.721h.934V15.149m10.269,0H90.727L89.2,21.175h-.042L87.5,16.168h-.934l-1.655,5.007h-.042l-1.613-6.026H82.24l2.122,7.638H85.38l1.655-5.05h.042l1.655,5.05h1.018l1.994-7.638m12.221,6.917a1.73,1.73,0,0,1-1.655-1.91,1.755,1.755,0,0,1,1.655-1.91,1.706,1.706,0,0,1,1.655,1.91,1.706,1.706,0,0,1-1.655,1.91m2.631-6.917h-.976v2.419l.042.721h-.042a2.1,2.1,0,0,0-1.782-.891,2.667,2.667,0,0,0-2.5,2.8,2.64,2.64,0,0,0,2.5,2.8,2.1,2.1,0,0,0,1.782-.891h.042v.721h.934V15.149M71.249,19.775l1.231-3.437h.042l1.231,3.437h-2.5m1.825-4.625h-1.1l-2.886,7.638h1.1l.764-2.079h3.225l.721,2.079H76l-2.928-7.638M104.221.127h-1.485V10.4h1.485V.127M74.3,0A5.325,5.325,0,0,0,69,5.262a5.334,5.334,0,0,0,5.347,5.262A4.669,4.669,0,0,0,78,9.039a4.784,4.784,0,0,0,1.231-3.352,5.3,5.3,0,0,0-.085-.891H74.3V6.238h3.437a3.15,3.15,0,0,1-.764,1.825,3.468,3.468,0,0,1-2.631,1.061A3.768,3.768,0,0,1,70.57,5.3a3.783,3.783,0,0,1,6.365-2.8l.976-1.061A5.039,5.039,0,0,0,74.3,0" transform="translate(-39.72)"/>
  <path id="XMLID_4_" class="cls-1" d="M37.815,22.961,30.3.342h0V.3l-.3.3L26.4,11.376l.127.255,3.14,9.463h0a2.58,2.58,0,0,0,.637,1.018h0a2.74,2.74,0,0,0,2.037.849Z" transform="translate(-15.197 -0.173)"/>
  <path id="XMLID_3_" class="cls-1" d="M26.527,11.688l11.288,11.33L30.431,1.079,30.3.4h0l-.3.255L26.4,11.433l.127.255" transform="translate(-15.197 -0.23)"/>
  <path id="XMLID_2_" class="cls-1" d="M7.554.4h0L0,23.018H5.517a2.886,2.886,0,0,0,2.037-.849,2.58,2.58,0,0,0,.637-1.018h0L15.107.4H7.554" transform="translate(0 -0.23)"/>
</svg>
