<svg xmlns="http://www.w3.org/2000/svg" viewBox="2520 1129.36 151.629 42.34">
  <defs>
    <style>
      .cls-1 {
        opacity: 0.35;
      }

      .cls-2 {
        fill: #c5d5e0;
      }
    </style>
  </defs>
  <g id="Bobra_logo" data-name="Bobra logo" class="cls-1" transform="translate(2519.963 1129.36)">
    <g id="Group_30" data-name="Group 30" transform="translate(0.037 0.738)">
      <ellipse id="Ellipse_47" data-name="Ellipse 47" class="cls-2" cx="4.455" cy="4.455" rx="4.455" ry="4.455" transform="translate(40.993 0.058)"/>
      <g id="Group_29" data-name="Group 29" transform="translate(52.385 5.57)">
        <path id="Path_2014" data-name="Path 2014" class="cls-2" d="M453.561,53.1A19.326,19.326,0,0,1,443,64.291" transform="translate(-442.762 -53.1)"/>
        <path id="Path_2015" data-name="Path 2015" class="cls-2" d="M441,147.4a1.988,1.988,0,0,1,.238-.1A1.414,1.414,0,0,1,441,147.4Z" transform="translate(-441 -136.109)"/>
      </g>
      <path id="Path_2016" data-name="Path 2016" class="cls-2" d="M61.178,8.36c-1.034,0-1.6.784-2.281,2.257-.261.582-.535,1.235-.772,1.7l-.071.107a14.828,14.828,0,0,1-25.53.713c-1.2-1.853-3.374-4.027-9.979-5.821-6.3-1.7-18.426-1.4-21.6.653s2.827,4.194,4.015,4.894c1.129.665,5.607,2.043,4.146,9.979-.071.416-.166.855-.285,1.307a2.81,2.81,0,0,0-.131,1.164.564.564,0,0,0,.535.392h.024a1.91,1.91,0,0,0,.843-.333c.915-.451,3.326-4.075,7.722-4.075C24.47,21.3,23.579,25.7,37.3,25.7a38.728,38.728,0,0,0,15.111-2.637c.083-.036.166-.071.238-.1A19.394,19.394,0,0,0,63.21,11.781a5.693,5.693,0,0,0,.249-1.129A2.2,2.2,0,0,0,61.178,8.36Z" transform="translate(-0.037 -6.211)"/>
    </g>
    <g id="Group_31" data-name="Group 31" transform="translate(8.848 23.724)">
      <path id="Path_2017" data-name="Path 2017" class="cls-2" d="M79.7,243.834a4.434,4.434,0,0,0,2.495-.665,2.218,2.218,0,0,0,1.093-1.723h1.378a2.773,2.773,0,0,1-.737,1.7,4.5,4.5,0,0,1-1.806,1.2,6.739,6.739,0,0,1-2.412.44,5.644,5.644,0,0,1-4.027-1.39,4.92,4.92,0,0,1-1.485-3.754V239.3a5.311,5.311,0,0,1,.665-2.673,4.578,4.578,0,0,1,1.913-1.794,6.458,6.458,0,0,1,2.922-.63,5.825,5.825,0,0,1,3.5,1,3.359,3.359,0,0,1,1.473,2.625H83.3a2.573,2.573,0,0,0-1.093-1.936,4.125,4.125,0,0,0-2.507-.737,3.982,3.982,0,0,0-3.006,1.1,4.264,4.264,0,0,0-1.069,3.089v.333a4.145,4.145,0,0,0,1.069,3.041A3.926,3.926,0,0,0,79.7,243.834Z" transform="translate(-74.2 -230.101)"/>
      <path id="Path_2018" data-name="Path 2018" class="cls-2" d="M192.364,235.44a6.218,6.218,0,0,0-.962-.071,4.121,4.121,0,0,0-2.257.594,3.2,3.2,0,0,0-1.319,1.711v7.009H186.4v-10.2h1.4l.024,1.628a3.964,3.964,0,0,1,3.635-1.806,2.863,2.863,0,0,1,.939.119Z" transform="translate(-173.071 -230.19)"/>
      <path id="Path_2019" data-name="Path 2019" class="cls-2" d="M252.785,244.873a6.813,6.813,0,0,1-2.982-.642,4.908,4.908,0,0,1-2.067-1.782,4.565,4.565,0,0,1-.737-2.566v-.4a4.9,4.9,0,0,1,.725-2.649,5.127,5.127,0,0,1,2.008-1.853,5.912,5.912,0,0,1,2.792-.677,5.3,5.3,0,0,1,3.73,1.271,4.483,4.483,0,0,1,1.378,3.469v.63h-9.207v.214a3.748,3.748,0,0,0,1.259,2.887,4.514,4.514,0,0,0,3.172,1.152,5.58,5.58,0,0,0,2.019-.333,4.446,4.446,0,0,0,1.592-1.057l.891.535A5.7,5.7,0,0,1,252.785,244.873Zm-.261-9.611a4.052,4.052,0,0,0-2.72.939,3.9,3.9,0,0,0-1.342,2.507h7.746v-.119a3.3,3.3,0,0,0-1.057-2.4A3.711,3.711,0,0,0,252.524,235.262Z" transform="translate(-226.472 -230.19)"/>
      <path id="Path_2020" data-name="Path 2020" class="cls-2" d="M355.1,209a5.293,5.293,0,0,1,1.342-3.79,4.8,4.8,0,0,1,3.647-1.414,4.94,4.94,0,0,1,3.992,1.628V199.7h1.426v14.482h-1.342l-.059-1.354a5.1,5.1,0,0,1-4.039,1.544,4.8,4.8,0,0,1-3.6-1.414,5.285,5.285,0,0,1-1.366-3.837Zm1.449.2a4.515,4.515,0,0,0,.986,3.077,3.539,3.539,0,0,0,2.792,1.129,4.019,4.019,0,0,0,3.742-1.841V206.78a3.9,3.9,0,0,0-3.718-1.984,3.558,3.558,0,0,0-2.8,1.117A4.761,4.761,0,0,0,356.549,209.2Z" transform="translate(-321.73 -199.7)"/>
      <path id="Path_2021" data-name="Path 2021" class="cls-2" d="M473.6,205.36a.653.653,0,0,1,.261-.535,1.112,1.112,0,0,1,.713-.226,1.081,1.081,0,0,1,.725.226.66.66,0,0,1,0,1.069,1.121,1.121,0,0,1-.725.214,1.086,1.086,0,0,1-.713-.214A.652.652,0,0,1,473.6,205.36Zm1.675,13.151h-1.437v-10.2h1.437Z" transform="translate(-426.152 -204.018)"/>
      <path id="Path_2022" data-name="Path 2022" class="cls-2" d="M510.813,213.812v2.614h2.673v.927h-2.673v6.807a1.758,1.758,0,0,0,.392,1.259,1.727,1.727,0,0,0,1.295.416c.238,0,.63-.036,1.152-.1l.059.915a5.781,5.781,0,0,1-1.532.154,2.923,2.923,0,0,1-2.139-.677,2.691,2.691,0,0,1-.665-1.984V217.34H507v-.927h2.376V213.8h1.438Z" transform="translate(-455.584 -212.125)"/>
      <path id="Path_2023" data-name="Path 2023" class="cls-2" d="M639.387,241.917a1.542,1.542,0,0,0-.855-1.354,7.509,7.509,0,0,0-2.578-.8,14,14,0,0,1-2.673-.665,3.472,3.472,0,0,1-1.414-.915,1.933,1.933,0,0,1-.463-1.307,2.3,2.3,0,0,1,1.283-2,6.159,6.159,0,0,1,3.267-.784,6.353,6.353,0,0,1,3.469.843,2.534,2.534,0,0,1,1.307,2.2h-1.414a1.734,1.734,0,0,0-.95-1.485,5.218,5.218,0,0,0-4.645-.1,1.468,1.468,0,0,0-.855,1.283,1.319,1.319,0,0,0,.713,1.188,8.83,8.83,0,0,0,2.59.772,14.115,14.115,0,0,1,2.815.748,3.445,3.445,0,0,1,1.39.95,2.092,2.092,0,0,1,.451,1.354,2.344,2.344,0,0,1-1.319,2.067,8.113,8.113,0,0,1-7.1-.1,2.519,2.519,0,0,1-1.4-2.186h1.437a1.9,1.9,0,0,0,1.057,1.544,5.224,5.224,0,0,0,2.578.546,4.9,4.9,0,0,0,2.412-.523A1.463,1.463,0,0,0,639.387,241.917Z" transform="translate(-564.854 -230.013)"/>
      <path id="Path_2024" data-name="Path 2024" class="cls-2" d="M733.872,244.3l3.766-8.577h1.544l-5.512,11.939-.285.523a3.533,3.533,0,0,1-3.279,1.853,5.162,5.162,0,0,1-1.093-.131L729,248.97l.737.059a2.7,2.7,0,0,0,2.8-1.829l.63-1.378L728.3,235.7h1.568Z" transform="translate(-650.594 -231.423)"/>
      <path id="Path_2025" data-name="Path 2025" class="cls-2" d="M841.387,241.917a1.542,1.542,0,0,0-.855-1.354,7.51,7.51,0,0,0-2.578-.8,14,14,0,0,1-2.673-.665,3.472,3.472,0,0,1-1.414-.915,1.933,1.933,0,0,1-.463-1.307,2.3,2.3,0,0,1,1.283-2,6.159,6.159,0,0,1,3.267-.784,6.353,6.353,0,0,1,3.469.843,2.534,2.534,0,0,1,1.307,2.2h-1.414a1.734,1.734,0,0,0-.95-1.485,5.218,5.218,0,0,0-4.645-.1,1.469,1.469,0,0,0-.855,1.283,1.319,1.319,0,0,0,.713,1.188,8.829,8.829,0,0,0,2.59.772,14.115,14.115,0,0,1,2.815.748,3.446,3.446,0,0,1,1.39.95,2.093,2.093,0,0,1,.451,1.354,2.344,2.344,0,0,1-1.319,2.067,8.113,8.113,0,0,1-7.1-.1,2.518,2.518,0,0,1-1.4-2.186h1.426a1.9,1.9,0,0,0,1.057,1.544,5.223,5.223,0,0,0,2.578.546,4.9,4.9,0,0,0,2.411-.523A1.476,1.476,0,0,0,841.387,241.917Z" transform="translate(-742.856 -230.013)"/>
      <path id="Path_2026" data-name="Path 2026" class="cls-2" d="M933.113,213.812v2.614h2.673v.927h-2.673v6.807a1.757,1.757,0,0,0,.392,1.259,1.727,1.727,0,0,0,1.295.416c.237,0,.63-.036,1.152-.1l.059.915a5.783,5.783,0,0,1-1.532.154,2.923,2.923,0,0,1-2.138-.677,2.691,2.691,0,0,1-.665-1.984V217.34H929.3v-.927h2.376V213.8h1.437Z" transform="translate(-827.716 -212.125)"/>
      <path id="Path_2027" data-name="Path 2027" class="cls-2" d="M1007.986,244.873a6.815,6.815,0,0,1-2.982-.642,4.909,4.909,0,0,1-2.067-1.782,4.565,4.565,0,0,1-.736-2.566v-.4a4.9,4.9,0,0,1,.725-2.649,5.127,5.127,0,0,1,2.008-1.853,5.912,5.912,0,0,1,2.792-.677,5.3,5.3,0,0,1,3.73,1.271,4.483,4.483,0,0,1,1.378,3.469v.63h-9.219v.214a3.747,3.747,0,0,0,1.259,2.887,4.514,4.514,0,0,0,3.172,1.152,5.583,5.583,0,0,0,2.02-.333,4.447,4.447,0,0,0,1.592-1.057l.891.535A5.689,5.689,0,0,1,1007.986,244.873Zm-.261-9.611a4.053,4.053,0,0,0-2.721.939,3.9,3.9,0,0,0-1.342,2.507h7.746v-.119a3.3,3.3,0,0,0-1.057-2.4A3.712,3.712,0,0,0,1007.724,235.262Z" transform="translate(-891.956 -230.19)"/>
      <path id="Path_2028" data-name="Path 2028" class="cls-2" d="M1115.866,234.49l.048,1.663a4.4,4.4,0,0,1,1.794-1.39,5.984,5.984,0,0,1,2.387-.463c2.032,0,3.326.665,3.885,1.984a4.453,4.453,0,0,1,1.853-1.461,6.21,6.21,0,0,1,2.554-.511q4.152,0,4.241,3.588v6.807h-1.437v-6.724a2.651,2.651,0,0,0-.749-2.031,3.518,3.518,0,0,0-2.388-.665,4.441,4.441,0,0,0-2.6.784,2.583,2.583,0,0,0-1.176,1.877v6.748h-1.437v-6.807a2.476,2.476,0,0,0-.784-1.96,3.647,3.647,0,0,0-2.364-.641,4.26,4.26,0,0,0-2.317.606,3.676,3.676,0,0,0-1.437,1.806v7H1114.5v-10.2Z" transform="translate(-990.915 -230.19)"/>
    </g>
    <g id="Group_33" data-name="Group 33" transform="translate(74.436)">
      <g id="Group_32" data-name="Group 32" transform="translate(0 0.119)">
        <path id="Path_2029" data-name="Path 2029" class="cls-2" d="M628.343,8.163a6.87,6.87,0,0,1,10.145-.226,7.063,7.063,0,0,1,2.031,5.108,7.041,7.041,0,0,1-2.091,5.108,6.8,6.8,0,0,1-5.037,2.126,7.033,7.033,0,0,1-5.405-2.566A6.737,6.737,0,0,1,626.3,12.9c0-1.331.024-11.9.024-11.9h.57a1.463,1.463,0,0,1,1.461,1.473Zm4.978,10.122a4.813,4.813,0,0,0,3.623-1.568,5.2,5.2,0,0,0,1.5-3.695,5.285,5.285,0,0,0-1.449-3.706,4.751,4.751,0,0,0-3.635-1.592A4.925,4.925,0,0,0,629.71,9.2a5.078,5.078,0,0,0-1.473,3.718,5.3,5.3,0,0,0,1.473,3.8A4.811,4.811,0,0,0,633.321,18.285Z" transform="translate(-626.3 -1)"/>
        <path id="Path_2030" data-name="Path 2030" class="cls-2" d="M783.016,40.4a6.759,6.759,0,0,1,5.025,2.126,7.391,7.391,0,0,1,.024,10.229,7.1,7.1,0,0,1-10.11,0,7.376,7.376,0,0,1,.012-10.229A6.775,6.775,0,0,1,783.016,40.4Zm0,12.486a4.781,4.781,0,0,0,3.552-1.521,5.1,5.1,0,0,0,1.473-3.659,5.189,5.189,0,0,0-1.5-3.706,4.767,4.767,0,0,0-7.069,0,5.235,5.235,0,0,0-1.485,3.718,5.114,5.114,0,0,0,1.426,3.659A4.763,4.763,0,0,0,783.016,52.886Z" transform="translate(-758.128 -35.719)"/>
        <path id="Path_2031" data-name="Path 2031" class="cls-2" d="M1085.665,40.946l-.487.8a1.622,1.622,0,0,1-1.414.737h-.012a1.782,1.782,0,0,0-1.4.76,5,5,0,0,0-.938,2.008,21.035,21.035,0,0,0-.309,4.479v4.693H1079V40.745h.63a1.485,1.485,0,0,1,1.485,1.485h0a5.186,5.186,0,0,1,1.271-1.378,2.5,2.5,0,0,1,1.449-.451A3.919,3.919,0,0,1,1085.665,40.946Z" transform="translate(-1025.22 -35.719)"/>
        <path id="Path_2032" data-name="Path 2032" class="cls-2" d="M1170.92,54.33h-2.032V52.322a6.777,6.777,0,0,1-5.144,2.459,6.648,6.648,0,0,1-4.978-2.15,7.114,7.114,0,0,1-2.067-5.12,7,7,0,0,1,2.079-5.1,7.14,7.14,0,0,1,10.443.321,6.679,6.679,0,0,1,1.7,5.132Zm-7.021-1.485a4.884,4.884,0,0,0,3.588-1.509A5.114,5.114,0,0,0,1169,47.582a5.188,5.188,0,0,0-1.485-3.766,4.88,4.88,0,0,0-3.623-1.521,4.794,4.794,0,0,0-3.623,1.568,5.22,5.22,0,0,0-1.485,3.695,5.125,5.125,0,0,0,1.509,3.695A4.746,4.746,0,0,0,1163.9,52.845Z" transform="translate(-1093.69 -35.631)"/>
      </g>
      <path id="Path_2033" data-name="Path 2033" class="cls-2" d="M934.043,7.152a6.87,6.87,0,0,1,10.145-.226,7.064,7.064,0,0,1,2.031,5.108,7.042,7.042,0,0,1-2.091,5.108,6.8,6.8,0,0,1-5.037,2.126,7.034,7.034,0,0,1-5.405-2.566A6.738,6.738,0,0,1,932,11.892c.012-1.319.024-11.892.024-11.892h.57a1.463,1.463,0,0,1,1.461,1.473Zm4.978,10.122a4.813,4.813,0,0,0,3.623-1.568,5.2,5.2,0,0,0,1.5-3.695A5.285,5.285,0,0,0,942.692,8.3a4.751,4.751,0,0,0-3.635-1.592,4.926,4.926,0,0,0-3.647,1.473,5.078,5.078,0,0,0-1.473,3.718,5.3,5.3,0,0,0,1.473,3.8A4.855,4.855,0,0,0,939.021,17.273Z" transform="translate(-895.684)"/>
    </g>
  </g>
</svg>
