<svg xmlns="http://www.w3.org/2000/svg" viewBox="0 0 25.938 23.077">
  <defs>
    <style>
      .cls-1 {
        fill: #339fd0;
      }
    </style>
  </defs>
  <g id="react" transform="translate(0 0)">
    <path id="Subtraction_1" data-name="Subtraction 1" class="cls-1" d="M18.234,23.077h0a4.97,4.97,0,0,1-2.126-.567,11.262,11.262,0,0,1-2.391-1.618c-.238-.205-.474-.421-.7-.64-.186.179-.368.347-.541.5a13.374,13.374,0,0,1-1.27.986,9.951,9.951,0,0,1-1.244.727,6.714,6.714,0,0,1-1.179.449,4.172,4.172,0,0,1-1.075.154,2.445,2.445,0,0,1-1.238-.3,2.364,2.364,0,0,1-.837-.849,4.162,4.162,0,0,1-.487-1.323,9.985,9.985,0,0,1,.094-3.731c.059-.309.128-.621.2-.926-.235-.067-.471-.141-.7-.219A10.35,10.35,0,0,1,1.3,13.851,3.238,3.238,0,0,1,0,11.516a2.364,2.364,0,0,1,.317-1.149,4.161,4.161,0,0,1,.9-1.083A9.984,9.984,0,0,1,4.5,7.5c.3-.1.624-.206.96-.3-.071-.284-.136-.573-.192-.859a10.355,10.355,0,0,1-.129-3.8,4.229,4.229,0,0,1,.477-1.349A2.331,2.331,0,0,1,6.451.328,2.4,2.4,0,0,1,7.67.025,4.094,4.094,0,0,1,8.762.188a6.773,6.773,0,0,1,1.2.474,12.2,12.2,0,0,1,2.587,1.806c.145.129.29.263.43.4.211-.2.428-.4.646-.593A11.656,11.656,0,0,1,16.074.592,5.006,5.006,0,0,1,18.243,0a2.339,2.339,0,0,1,1.185.294,2.4,2.4,0,0,1,.871.9,4.45,4.45,0,0,1,.492,1.427,10.882,10.882,0,0,1-.17,4.022c-.039.188-.082.38-.129.569.28.081.561.169.835.263a10.354,10.354,0,0,1,3.356,1.794,4.229,4.229,0,0,1,.929,1.088,2.331,2.331,0,0,1,.327,1.154,2.4,2.4,0,0,1-.349,1.206,4.449,4.449,0,0,1-.99,1.139,10.879,10.879,0,0,1-3.569,1.862c-.151.05-.309.1-.482.151.06.242.113.476.156.693a10.352,10.352,0,0,1,.114,3.914,3.238,3.238,0,0,1-1.37,2.294A2.387,2.387,0,0,1,18.234,23.077Zm1.241-6.922h0a25.818,25.818,0,0,1-3.513.541,26.046,26.046,0,0,1-2.174,2.761c.219.21.438.41.652.595a10.465,10.465,0,0,0,2.1,1.435,4,4,0,0,0,1.689.485,1.312,1.312,0,0,0,.663-.155,2.3,2.3,0,0,0,.849-1.61,9.366,9.366,0,0,0-.125-3.423c-.039-.2-.086-.409-.14-.628ZM6.519,16.2h0c-.071.285-.135.574-.189.861A9.368,9.368,0,0,0,6.2,20.173,3.507,3.507,0,0,0,6.5,21.207a1.385,1.385,0,0,0,.519.6,1.363,1.363,0,0,0,.685.156,3.471,3.471,0,0,0,1.134-.224,9.365,9.365,0,0,0,2.9-1.818c.168-.148.335-.3.494-.455a26.941,26.941,0,0,1-2.226-2.751,26.065,26.065,0,0,1-3.5-.506Zm4.933.592c.51.673,1.035,1.3,1.561,1.868a23.636,23.636,0,0,0,1.523-1.873c-.519.023-1.046.035-1.566.035S11.948,16.816,11.451,16.8Zm-2.1-7.344c-.393.681-.764,1.385-1.1,2.091.341.707.713,1.41,1.107,2.09s.822,1.36,1.268,2.011c.758.049,1.548.074,2.348.074s1.6-.028,2.375-.083c.434-.652.853-1.328,1.244-2.008s.769-1.389,1.115-2.1c-.348-.7-.724-1.4-1.118-2.081s-.812-1.348-1.25-2c-.78-.059-1.576-.09-2.366-.09s-1.581.03-2.362.089c-.442.648-.865,1.321-1.258,2ZM7.658,12.846h0c-.329.78-.612,1.551-.841,2.29a23.647,23.647,0,0,0,2.39.384c-.282-.438-.556-.886-.814-1.332s-.5-.893-.735-1.342Zm10.642-.04h0c-.239.461-.492.923-.752,1.374s-.524.889-.8,1.32a23.543,23.543,0,0,0,2.42-.412,23.612,23.612,0,0,0-.871-2.282ZM5.757,8.268h0c-.3.084-.6.179-.893.281A9.367,9.367,0,0,0,2.106,9.985a3.507,3.507,0,0,0-.741.784,1.384,1.384,0,0,0-.257.747,2.3,2.3,0,0,0,.968,1.542A9.369,9.369,0,0,0,5.1,14.665c.211.072.426.139.64.2a26.946,26.946,0,0,1,1.28-3.322A26.551,26.551,0,0,1,5.757,8.268Zm14.437.016a25.977,25.977,0,0,1-1.262,3.238,26,26,0,0,1,1.313,3.286c.152-.045.3-.091.436-.136a10.3,10.3,0,0,0,3.037-1.521,3.847,3.847,0,0,0,.824-.838,1.437,1.437,0,0,0,.287-.8,1.361,1.361,0,0,0-.266-.748,3.618,3.618,0,0,0-.766-.79,9.774,9.774,0,0,0-2.832-1.451C20.725,8.445,20.466,8.363,20.194,8.284Zm-3.439-.69c.27.423.535.86.789,1.3s.506.895.746,1.35a23.691,23.691,0,0,0,.83-2.233c-.745-.17-1.541-.309-2.365-.413Zm-7.57,0c-.823.1-1.614.239-2.351.4.226.727.5,1.482.824,2.244.233-.451.479-.9.732-1.341S8.911,8.018,9.184,7.592Zm9.052-6.487a4.047,4.047,0,0,0-1.726.508,10.875,10.875,0,0,0-2.156,1.494c-.2.177-.4.361-.6.547A26.019,26.019,0,0,1,15.95,6.391a26.509,26.509,0,0,1,3.468.548c.041-.168.081-.342.117-.516a10.3,10.3,0,0,0,.2-3.39A3.848,3.848,0,0,0,19.42,1.9a1.437,1.437,0,0,0-.546-.647A1.265,1.265,0,0,0,18.236,1.105ZM6.355,6.128c.053.267.113.536.178.8A27.033,27.033,0,0,1,9.995,6.39,26.522,26.522,0,0,1,12.2,3.655c-.137-.131-.264-.248-.389-.359A11.433,11.433,0,0,0,9.522,1.68a4.275,4.275,0,0,0-1.844-.55,1.329,1.329,0,0,0-.672.157,1.362,1.362,0,0,0-.514.605,3.619,3.619,0,0,0-.3,1.058,9.775,9.775,0,0,0,.163,3.178Zm6.612.125c.511,0,1.03.012,1.54.036a23.726,23.726,0,0,0-1.526-1.843c-.52.561-1.038,1.18-1.539,1.842C11.949,6.265,12.462,6.253,12.967,6.253Z" transform="translate(0 0)"/>
    <path id="Path_1994" data-name="Path 1994" class="cls-1" d="M110.36,94.665a2.316,2.316,0,1,1-2.316,2.316,2.316,2.316,0,0,1,2.316-2.316" transform="translate(-97.391 -85.465)"/>
  </g>
</svg>
