<svg xmlns="http://www.w3.org/2000/svg" viewBox="3543 1731 96.562 30">
  <defs>
    <style>
      .cls-1 {
        fill: #339fd0;
      }
    </style>
  </defs>
  <g id="CashMe" transform="translate(3542.999 1730.8)">
    <path id="Path_2056" data-name="Path 2056" class="cls-1" d="M12.911,24.256a9.837,9.837,0,0,1-5.718-4.083c-.012-.012-.023-.035-.035-.046-.116-.186-.232-.371-.336-.58-.012-.023-.023-.035-.035-.058a1.385,1.385,0,0,1-.093-.186l-.035-.07c-.093-.2-.186-.406-.267-.615-.012-.023-.023-.058-.035-.081-.023-.058-.046-.128-.07-.2-.012-.035-.023-.058-.035-.093a4.153,4.153,0,0,1-.128-.406c0-.023-.012-.035-.012-.058a1.086,1.086,0,0,1-.046-.186c-.012-.046-.023-.093-.035-.128-.012-.058-.035-.128-.046-.186s-.023-.1-.035-.151a1.967,1.967,0,0,1-.046-.255c-.012-.07-.023-.151-.035-.22s-.012-.116-.023-.162c-.012-.07-.012-.128-.023-.2a.766.766,0,0,1-.012-.162c-.012-.081-.012-.174-.023-.255,0-.046-.012-.093-.012-.139a3.26,3.26,0,0,1-.012-.336v-.534c0-.128.012-.267.012-.406A9.2,9.2,0,0,1,9.245,7.925,9.232,9.232,0,0,1,14.256.2L13.8.235A16.1,16.1,0,0,0,7.007,2.5a17.664,17.664,0,0,0-2.32,1.856v.012a14.831,14.831,0,0,0-3.8,15.867A15.169,15.169,0,0,0,12.911,24.256Z" transform="translate(0 0)"/>
    <path id="Path_2057" data-name="Path 2057" class="cls-1" d="M34.662,162.629a9.307,9.307,0,0,1-6.484,2.529,3.639,3.639,0,0,0,4.257,1.09c-9.8,4.431-17.109-2.645-17.735-3.515a15.236,15.236,0,0,0,28.244-3.4A9.456,9.456,0,0,0,34.662,162.629Z" transform="translate(-12.994 -140.634)"/>
    <path id="Path_2058" data-name="Path 2058" class="cls-1" d="M113.581,6.405c-.058-.081-.116-.162-.186-.244a1.228,1.228,0,0,0-.116-.139c-.058-.081-.128-.162-.2-.244a2.015,2.015,0,0,0-.151-.174c-.035-.035-.07-.081-.1-.116-.186-.22-.383-.429-.58-.638-.012-.012-.023-.035-.046-.046-.22-.22-.441-.441-.673-.65a.011.011,0,0,1-.012-.012,14.643,14.643,0,0,0-1.775-1.392c-.023-.012-.035-.023-.058-.035-.162-.1-.325-.209-.5-.313-.012,0-.012-.012-.023-.012-.07-.046-.151-.093-.22-.139-.046-.023-.081-.046-.128-.07-.07-.035-.139-.081-.209-.116-.093-.058-.2-.1-.3-.162-.058-.035-.116-.058-.186-.093a1.51,1.51,0,0,0-.2-.093c-.058-.023-.116-.058-.162-.081-.116-.058-.232-.1-.348-.162-.035-.012-.081-.035-.116-.046a2.159,2.159,0,0,0-.29-.116c-.035-.012-.081-.035-.116-.046-.128-.046-.255-.1-.394-.151h-.012c-.139-.046-.267-.093-.406-.139a.215.215,0,0,0-.081-.023c-.278-.093-.568-.174-.858-.255-.012,0-.035-.012-.046-.012q-.452-.122-.9-.209h-.012c-.151-.035-.313-.058-.464-.081H103.7c-.313-.046-.626-.093-.94-.128h-.035c-.3-.035-.615-.046-.916-.058h-.093c-.151,0-.3-.012-.452-.012a.143.143,0,0,1-.035.023,7.718,7.718,0,0,0-1.206,1.009A9.03,9.03,0,0,0,97.4,6.719c.012,0,.012-.012.023-.012a9.527,9.527,0,0,1,11.622,3.2,9.468,9.468,0,0,1,7.2,2.807,14.943,14.943,0,0,0-2.61-6.217A1.07,1.07,0,0,0,113.581,6.405Z" transform="translate(-86.102)"/>
    <path id="Path_2059" data-name="Path 2059" class="cls-1" d="M325.819,85.991a2.849,2.849,0,0,1,1.067-.824,3.39,3.39,0,0,1,1.392-.278,3.62,3.62,0,0,1,1.079.151,2.615,2.615,0,0,1,.858.441,2.055,2.055,0,0,1,.58.684,2.287,2.287,0,0,1,.267.9h1.9a4.239,4.239,0,0,0-.452-1.577,3.764,3.764,0,0,0-1.09-1.241,4.651,4.651,0,0,0-1.438-.719,6.2,6.2,0,0,0-1.717-.232,5.767,5.767,0,0,0-2.157.383,4.541,4.541,0,0,0-1.682,1.183A6.114,6.114,0,0,0,323,89.123a7.713,7.713,0,0,0,.348,2.413,5.091,5.091,0,0,0,1.079,1.867,4.51,4.51,0,0,0,1.67,1.172,5.872,5.872,0,0,0,2.169.383,5,5,0,0,0,3.236-1.009,4.024,4.024,0,0,0,1.45-2.9h-1.891a2.638,2.638,0,0,1-.278.986,2.2,2.2,0,0,1-.58.719,2.525,2.525,0,0,1-.858.452,3.618,3.618,0,0,1-1.1.151,3.3,3.3,0,0,1-1.38-.278,2.866,2.866,0,0,1-1.044-.824,3.9,3.9,0,0,1-.673-1.334,6.527,6.527,0,0,1-.232-1.809,6.648,6.648,0,0,1,.232-1.809A3.786,3.786,0,0,1,325.819,85.991Z" transform="translate(-285.534 -73.461)"/>
    <path id="Path_2060" data-name="Path 2060" class="cls-1" d="M426.907,110.715a3.172,3.172,0,0,0-1.125-.476,6.758,6.758,0,0,0-1.45-.139c-2.32,0-3.538.847-3.642,2.529h1.74a1.146,1.146,0,0,1,.476-.974,2.356,2.356,0,0,1,1.334-.325,2.029,2.029,0,0,1,1.3.336,1.152,1.152,0,0,1,.406.661,3.168,3.168,0,0,1,.058.441c.012.186.012.406.012.65h-.7a7.492,7.492,0,0,0-3.689.708,2.3,2.3,0,0,0-1.229,2.134,2.172,2.172,0,0,0,.22,1.021,2.244,2.244,0,0,0,.615.742,2.76,2.76,0,0,0,.9.452,3.753,3.753,0,0,0,1.09.151,4.074,4.074,0,0,0,2.807-.974v.777h1.809v-5.289a4.327,4.327,0,0,0-.232-1.566A2.051,2.051,0,0,0,426.907,110.715Zm-.893,5.6a2.485,2.485,0,0,1-.418.441,3.082,3.082,0,0,1-.522.336,2.65,2.65,0,0,1-.6.209,3.012,3.012,0,0,1-.65.07,1.942,1.942,0,0,1-1.137-.3,1.035,1.035,0,0,1-.429-.893,1.28,1.28,0,0,1,.719-1.195,4.7,4.7,0,0,1,2.146-.383H426v1.717Z" transform="translate(-371.637 -97.153)"/>
    <path id="Path_2061" data-name="Path 2061" class="cls-1" d="M503.9,114.326a3.65,3.65,0,0,0-.928-.487q-.574-.209-1.357-.418c-.464-.116-.835-.209-1.114-.29a2.854,2.854,0,0,1-.626-.255.553.553,0,0,1-.267-.278,1.112,1.112,0,0,1-.058-.36.757.757,0,0,1,.116-.418.935.935,0,0,1,.325-.313,1.86,1.86,0,0,1,.487-.2,2.432,2.432,0,0,1,.592-.07c1.009,0,1.531.371,1.577,1.1h1.728a2.1,2.1,0,0,0-.882-1.751A4.325,4.325,0,0,0,501,110a4.79,4.79,0,0,0-1.345.174,3.158,3.158,0,0,0-1.009.5,2.132,2.132,0,0,0-.858,1.74,1.894,1.894,0,0,0,.22.974,1.872,1.872,0,0,0,.58.661,3.218,3.218,0,0,0,.812.441,8.6,8.6,0,0,0,.928.29c.313.081.626.162.928.232a4.776,4.776,0,0,1,.812.255,1.752,1.752,0,0,1,.58.348.725.725,0,0,1,.22.534.968.968,0,0,1-.429.824,2.026,2.026,0,0,1-1.241.325c-1.206,0-1.821-.464-1.844-1.4H497.6a2.532,2.532,0,0,0,.974,1.972,4.385,4.385,0,0,0,2.633.661,5.115,5.115,0,0,0,1.485-.2,3.085,3.085,0,0,0,1.067-.545,2.327,2.327,0,0,0,.65-.824,2.63,2.63,0,0,0,.22-1.044,1.679,1.679,0,0,0-.731-1.589Z" transform="translate(-439.882 -97.064)"/>
    <path id="Path_2062" data-name="Path 2062" class="cls-1" d="M576.492,87.823A3.347,3.347,0,0,0,574,89.041c0-.348,0-.684.012-1.032s.012-.7.012-1.067V84.9H572.2V96.186h1.821v-5.73a3.522,3.522,0,0,1,1.044-.882,2.184,2.184,0,0,1,1.044-.267,1.854,1.854,0,0,1,.615.093.972.972,0,0,1,.418.29,1.21,1.21,0,0,1,.232.522,3.591,3.591,0,0,1,.07.766V96.2h1.809v-5.37C579.252,88.832,578.336,87.823,576.492,87.823Z" transform="translate(-505.829 -74.876)"/>
    <path id="Path_2063" data-name="Path 2063" class="cls-1" d="M657.926,93.754l-2.9-8.954H652.3V96.086h1.775V90.6c0-.65,0-1.287-.012-1.914s-.012-1.264-.023-1.9l3.039,9.3h1.682l2.981-9.3c0,.638,0,1.264-.012,1.9s-.012,1.276-.012,1.914v5.486h1.751V84.812h-2.737Z" transform="translate(-576.639 -74.787)"/>
    <path id="Path_2064" data-name="Path 2064" class="cls-1" d="M771.745,114.345a5.392,5.392,0,0,0-.278-1.809,3.66,3.66,0,0,0-.8-1.334,3.418,3.418,0,0,0-1.253-.824,4.564,4.564,0,0,0-1.635-.278,4.4,4.4,0,0,0-1.659.29,3.6,3.6,0,0,0-1.253.835,3.688,3.688,0,0,0-.789,1.345,5.348,5.348,0,0,0-.278,1.786,5.466,5.466,0,0,0,.278,1.8,3.71,3.71,0,0,0,.8,1.345,3.416,3.416,0,0,0,1.287.847,4.8,4.8,0,0,0,1.74.29,5.055,5.055,0,0,0,1.357-.174,3.569,3.569,0,0,0,1.1-.51,2.808,2.808,0,0,0,.789-.824,2.978,2.978,0,0,0,.418-1.125h-1.786a1.384,1.384,0,0,1-.22.615,1.432,1.432,0,0,1-.418.418,1.711,1.711,0,0,1-.557.232,3.011,3.011,0,0,1-.65.07,2.243,2.243,0,0,1-.847-.151,1.827,1.827,0,0,1-.684-.476,2.258,2.258,0,0,1-.476-.8,3.685,3.685,0,0,1-.22-1.16h6.055v-.406Zm-6.02-.8a2.781,2.781,0,0,1,.7-1.67,1.836,1.836,0,0,1,1.357-.545,2.3,2.3,0,0,1,.766.128,1.788,1.788,0,0,1,.626.394,2.268,2.268,0,0,1,.452.684,3.794,3.794,0,0,1,.255,1h-4.152Z" transform="translate(-675.206 -97.153)"/>
  </g>
</svg>
