<svg xmlns="http://www.w3.org/2000/svg" width="129.524" height="30" viewBox="0 0 129.524 30"><g transform="translate(3.008 -339.01)"><g transform="translate(-3.008 339.01)"><path d="M20.607,18.74a8.338,8.338,0,1,1,0-9.734l4.5-3.24A13.867,13.867,0,1,0,4.623,24.22v5.79l5.2-2.869a13.86,13.86,0,0,0,15.285-5.15l-4.5-3.241Z" transform="translate(0.008 -0.01)" fill="#339fd0"/><circle cx="3.467" cy="3.467" r="3.467" transform="translate(10.399 10.691)" fill="#339fd0"/><path d="M214.668,48.121V47.049H211.49V57.167h3.481V52.552a2.527,2.527,0,0,1,.6-1.839,2.494,2.494,0,0,1,1.81-.586h.832V47.049a3.119,3.119,0,0,0-.993-.16,3.084,3.084,0,0,0-2.548,1.235Z" transform="translate(-166.467 -36.029)" fill="#339fd0"/><rect width="3.481" height="10.118" transform="translate(77.886 11.022)" fill="#339fd0"/><circle cx="2.129" cy="2.129" r="2.129" transform="translate(76.842 8.262) rotate(-67.5)" fill="#339fd0"/><path d="M392.4,45.366a1.235,1.235,0,0,1-.395-1.039V41.34h2.7V38.43h-2.7V36H388.53v2.425H387v2.91h1.536v3.342a3.939,3.939,0,0,0,1.145,3.066,4.731,4.731,0,0,0,3.307,1.039,8.642,8.642,0,0,0,2.043-.24V45.631l-1.274.039a2.293,2.293,0,0,1-1.354-.3Z" transform="translate(-304.59 -27.453)" fill="#339fd0"/><rect width="5.261" height="2.914" transform="translate(91.628 13.089)" fill="#339fd0"/><path d="M521.864,48.131V47.06H518.68V57.177h3.479V52.563a2.527,2.527,0,0,1,.6-1.839,2.5,2.5,0,0,1,1.813-.586h.832V47.06a3.215,3.215,0,0,0-3.533,1.072Z" transform="translate(-407.964 -36.04)" fill="#339fd0"/><path d="M565.524,48.1a5.712,5.712,0,0,0-7.821,0,5.177,5.177,0,0,0,0,7.483,5.711,5.711,0,0,0,7.821,0,5.154,5.154,0,0,0,0-7.483Zm-1.96,4.629h0a2.13,2.13,0,0,1-3.71.285,1.945,1.945,0,0,1-.36-1.166,1.99,1.99,0,0,1,.208-.912.645.645,0,0,1,.034-.066,2.128,2.128,0,0,1,3.856.142h0a2.079,2.079,0,0,1-.027,1.7Z" transform="translate(-437.609 -35.761)" fill="#339fd0"/><path d="M255.627,46.5a5.258,5.258,0,0,0-3.832,1.538,5.069,5.069,0,0,0-1.57,3.758,4.988,4.988,0,0,0,1.615,3.784,5.7,5.7,0,0,0,4.078,1.519,6.472,6.472,0,0,0,4.028-1.353l-1.168-2.079a6.066,6.066,0,0,1-3.055.748,2.226,2.226,0,0,1-2.122-1.409h6.651a6.708,6.708,0,0,0,.222-1.721,4.712,4.712,0,0,0-1.359-3.392A4.621,4.621,0,0,0,255.627,46.5Zm-2.184,4.209a2.13,2.13,0,0,1,4.055,0Z" transform="translate(-196.916 -35.718)" fill="#339fd0"/><path d="M148.042,34.091a3.457,3.457,0,0,1,.609.052h.023a4,4,0,0,1,2.924,2.149l2.652-1.8a6.6,6.6,0,0,0-2.513-2.639,7.489,7.489,0,0,0-8.716,1.054,6.443,6.443,0,0,0-2.105,4.925,6.358,6.358,0,0,0,2.095,4.917,7.483,7.483,0,0,0,8.729,1.064,6.6,6.6,0,0,0,2.511-2.639l-2.652-1.8a4.032,4.032,0,0,1-2.923,2.159h-.023a3.456,3.456,0,0,1-.609.052,3.741,3.741,0,0,1,0-7.483Z" transform="translate(-110.872 -23.447)" fill="#339fd0"/><path d="M312.686,29.105a3.625,3.625,0,0,0-2.59-.933,4.5,4.5,0,0,0-3.479,1.509,5.437,5.437,0,0,0-1.378,3.814,5.388,5.388,0,0,0,1.366,3.793,4.529,4.529,0,0,0,3.492,1.486,3.328,3.328,0,0,0,2.893-1.293v1.051h3.178V23.36h-3.481Zm-.139,5.254h0a2.129,2.129,0,0,1-3.708.285,1.933,1.933,0,0,1-.36-1.166,2.016,2.016,0,0,1,.208-.912.706.706,0,0,1,.035-.066,2.129,2.129,0,0,1,3.853.142h0a1.971,1.971,0,0,1,.17.832,1.928,1.928,0,0,1-.2.885Z" transform="translate(-240.201 -17.709)" fill="#339fd0"/><path d="M471.176,33.352a5.444,5.444,0,0,0-3.7-1.263H462.23V45.442h3.485V41.284h1.759a5.392,5.392,0,0,0,3.683-1.295,4.491,4.491,0,0,0,.017-6.637Zm-3.654,4.909h-1.806V35.126h1.81a1.57,1.57,0,1,1,0,3.136Z" transform="translate(-363.751 -24.378)" fill="#339fd0"/></g></g></svg>