<svg xmlns="http://www.w3.org/2000/svg" viewBox="0 0 48.203 23.302">
  <defs>
    <style>
      .cls-1 {
        fill: #339fd0;
        fill-rule: evenodd;
      }
    </style>
  </defs>
  <g id="php-1" transform="translate(0 0)">
    <path id="Path_2007" data-name="Path 2007" class="cls-1" d="M35.945,39.96l3.655-18.5h8.452c3.655.229,5.483,2.056,5.483,5.255a8.084,8.084,0,0,1-8.224,8.453H41.2l-.914,4.8Zm6.168-8.224,1.142-6.854h2.97c1.6,0,2.741.685,2.741,2.056-.228,3.884-2.056,4.569-4.112,4.8H42.113Zm10.573,3.427,3.655-18.5h4.341l-.914,4.8H63.88c3.655.229,5.026,2.056,4.569,4.341l-1.6,9.366H62.281l1.6-8.453c.228-1.142.228-1.828-1.371-1.828H59.083l-2.056,10.28Zm13.871,4.8,3.655-18.5h8.453c3.655.229,5.483,2.056,5.483,5.255a8.084,8.084,0,0,1-8.224,8.453H71.812l-.914,4.8Zm6.168-8.224,1.142-6.854h2.97c1.6,0,2.741.685,2.741,2.056-.228,3.884-2.056,4.569-4.112,4.8H72.725Z" transform="translate(-35.945 -16.658)"/>
  </g>
</svg>
