<svg className="icon icon-soc-in" xmlns="http://www.w3.org/2000/svg" viewBox="1855 893 16 15.776">
  <g id="logo-linkedin" transform="translate(1855 892.369)">
    <g transform="translate(0 0.631)">
      <path className="icon_fill" fill="#BECED9" d="M3.623,2.341a1.705,1.705,0,0,1-1.846,1.71A1.685,1.685,0,0,1,0,2.341,1.7,1.7,0,0,1,1.823.631,1.692,1.692,0,0,1,3.623,2.341ZM.09,16.406V5.4H3.511v11H.09Z" transform="translate(0 -0.631)"/>
      <path className="icon_fill" fill="#BECED9" d="M30.848,29.832c0-1.373-.045-2.52-.09-3.511h2.97l.158,1.53h.067a3.951,3.951,0,0,1,3.4-1.778c2.25,0,3.938,1.508,3.938,4.748v6.5H37.869v-6.1c0-1.418-.5-2.385-1.733-2.385a1.878,1.878,0,0,0-1.755,1.283,2.456,2.456,0,0,0-.113.855v6.346H30.848Z" transform="translate(-25.29 -21.551)"/>
    </g>
  </g>
</svg>
