<svg xmlns="http://www.w3.org/2000/svg" viewBox="0 0 21.808 20">
  <defs>
    <style>
      .cls-1 {
        fill: #339fd0;
      }
    </style>
  </defs>
  <path id="Sketch" class="cls-1" d="M21.822,7.645a.182.182,0,0,0,0-.055L17.64,1.636a.445.445,0,0,0-.364-.182L10.914,1,4.55,1.455a.445.445,0,0,0-.291.136L.1,7.554v.073a.455.455,0,0,0,.064.482L10.614,20.835a.455.455,0,0,0,.7,0L21.768,8.109A.455.455,0,0,0,21.822,7.645ZM15.286,9.181,10.914,19.39,6.541,9.181Zm.091-1.818H6.45l4.463-5.209Zm-10.445,0h-2.5L4.477,4.409Zm11.963,0,.455-2.954,2.045,2.954Z" transform="translate(-0.054 -1)"/>
</svg>
