<svg xmlns="http://www.w3.org/2000/svg" viewBox="2035 45 67.002 30">
  <defs>
    <style>
      .cls-1 {
        fill: #fff;
      }
    </style>
  </defs>
  <g id="SHO_logo" data-name="SHO logo" transform="translate(2035 45)">
    <g id="Слой_1" data-name="Слой 1">
      <path id="Path_1788" data-name="Path 1788" class="cls-1" d="M67,30,8.522,29.67V13.716L0,9.609,8.523,5.5V0L67,.33ZM10.9,27.307l53.726.3V2.693L10.9,2.39v4.6L5.474,9.609,10.9,12.223Z"/>
      <path id="Path_1789" data-name="Path 1789" class="cls-1" d="M179,71.37a2.784,2.784,0,0,0-.454-1.7,1.687,1.687,0,0,0-1.415-.612,1.784,1.784,0,0,0-1.308.505,2.637,2.637,0,0,0-.561,1.889,3.94,3.94,0,0,0,.427,1.942,2.469,2.469,0,0,0,1.228.825l1.628.585a4.676,4.676,0,0,1,2.429,1.6,5.064,5.064,0,0,1,.8,3.219v.639a5.917,5.917,0,0,1-1.281,4.119,4.815,4.815,0,0,1-3.47,1.223,4.438,4.438,0,0,1-3.737-1.622,5.753,5.753,0,0,1-.854-3.139v-.612H175.1v.505a2.831,2.831,0,0,0,.427,1.649,1.844,1.844,0,0,0,1.468.612,1.978,1.978,0,0,0,1.682-.665,3.022,3.022,0,0,0,.427-1.835V79.8a3.5,3.5,0,0,0-.427-1.915,2.743,2.743,0,0,0-1.281-.825l-1.949-.692A3.734,3.734,0,0,1,172.99,74.3a6.64,6.64,0,0,1-.4-2.713v-.532a4.713,4.713,0,0,1,1.388-3.458,4.435,4.435,0,0,1,3.23-1.144c2.669,0,4.458,1.729,4.458,4.814v.612H179Z" transform="translate(-158.77 -61.186)"/>
      <path id="Path_1790" data-name="Path 1790" class="cls-1" d="M322.579,69.8v8.006h3.6V69.8h2.669V88.416h-2.669V80.2h-3.6v8.218H319.91V69.8Z" transform="translate(-294.567 -64.271)"/>
      <path id="Path_1791" data-name="Path 1791" class="cls-1" d="M464.86,71.628a4.821,4.821,0,0,1,1.388-3.961,5.1,5.1,0,0,1,6.566,0,4.825,4.825,0,0,1,1.388,3.961v8.827a4.821,4.821,0,0,1-1.388,3.961,5.1,5.1,0,0,1-6.566,0,4.826,4.826,0,0,1-1.388-3.961Zm6.673-.4a2.064,2.064,0,0,0-.561-1.622,2.22,2.22,0,0,0-2.883,0,2.067,2.067,0,0,0-.561,1.622v9.625a2.064,2.064,0,0,0,.561,1.622,2.22,2.22,0,0,0,2.883,0,2.067,2.067,0,0,0,.561-1.622Z" transform="translate(-428.035 -61.204)"/>
      <path id="Path_1792" data-name="Path 1792" class="cls-1" d="M610.693,78.515c0-1.17,0-1.3.908-2.713l1.522-2.394a3.254,3.254,0,0,0,.454-1.755V70.536a1.456,1.456,0,0,0-.4-1.117,1.483,1.483,0,0,0-1.121-.372,1.3,1.3,0,0,0-1.068.452,1.952,1.952,0,0,0-.317,1.091v1.277H608v-1.6a3.9,3.9,0,0,1,1.495-3.059,4.173,4.173,0,0,1,2.483-.772,4.383,4.383,0,0,1,3.07,1.011,3.7,3.7,0,0,1,1.2,2.792v1.463a5.005,5.005,0,0,1-.614,2.739L613.766,77.4a3.108,3.108,0,0,0-.4,1.809v1.516h-2.672Zm2.8,3.882v2.926h-2.937V82.4Z" transform="translate(-559.835 -61.177)"/>
      <path id="Path_1793" data-name="Path 1793" class="cls-1" d="M738.984,69.8l-.614,13.963h-2.139L735.78,69.8Zm-.214,15.692v2.926h-2.936V85.492Z" transform="translate(-677.493 -64.271)"/>
    </g>
  </g>
</svg>
