<svg xmlns="http://www.w3.org/2000/svg" viewBox="3343 1731 101.272 30">
  <defs>
    <style>
      .cls-1 {
        fill: #339fd0;
      }
    </style>
  </defs>
  <g id="MB" transform="translate(3343.071 1731)">
    <path id="Path_2042" data-name="Path 2042" class="cls-1" d="M262.03,11.872c.014-3.34-.014-6.693.014-10.033,1.425,3.326,2.809,6.679,4.192,10.019.363.014.713.028,1.076.028,1.425-3.354,2.739-6.749,4.178-10.088.056,3.354,0,6.721.028,10.075h1.23c0-3.717.014-7.42,0-11.136h-2.026c-1.327,3.158-2.613,6.344-3.94,9.5-1.327-3.158-2.6-6.33-3.912-9.5-.685-.014-1.383-.014-2.068,0V11.872Z" transform="translate(-224.419 -0.624)"/>
    <path id="Path_2043" data-name="Path 2043" class="cls-1" d="M381.723,11.234a12.324,12.324,0,0,0,4.052-.07,2.618,2.618,0,0,0,1.984-1.621,12,12,0,0,0,.489-4.052,10.3,10.3,0,0,0-.559-3.857,2.659,2.659,0,0,0-2.1-1.481A13.208,13.208,0,0,0,381.667.14a2.722,2.722,0,0,0-2.208,1.523,10.725,10.725,0,0,0-.559,4.108,9.965,9.965,0,0,0,.573,3.954A2.744,2.744,0,0,0,381.723,11.234Zm-1.537-6.986a4.847,4.847,0,0,1,.461-2.222,1.691,1.691,0,0,1,1.16-.769,10.653,10.653,0,0,1,2.753-.112,2.583,2.583,0,0,1,1.761.643,3.479,3.479,0,0,1,.615,2.04,28.212,28.212,0,0,1-.028,4.066,2.441,2.441,0,0,1-1.006,2.04,5.643,5.643,0,0,1-2.459.363,4.812,4.812,0,0,1-2.264-.419,2.422,2.422,0,0,1-.908-1.858A26.257,26.257,0,0,1,380.186,4.248Z" transform="translate(-326.017 0)"/>
    <path id="Path_2044" data-name="Path 2044" class="cls-1" d="M586.141,11.85V10.733c-1.956-.014-3.926,0-5.9-.014q-.021-2.012,0-4.024c1.886-.014,3.759.014,5.645-.014,0-.363,0-.727-.014-1.09-1.872,0-3.759.014-5.631,0q-.021-1.886,0-3.773c1.97-.014,3.94,0,5.911-.014,0-.363,0-.741-.014-1.1H579c-.028,3.7-.014,7.42,0,11.122C581.39,11.864,583.766,11.864,586.141,11.85Z" transform="translate(-498.144 -0.602)"/>
    <path id="Path_2045" data-name="Path 2045" class="cls-1" d="M478.544,11.958c.014-3.34-.014-6.665.014-10,1.928,3.032,3.815,6.106,5.715,9.152a3.6,3.6,0,0,0,.587.838c.629.042,1.272,0,1.9.014.014-3.7,0-7.42,0-11.122-.405-.014-.824-.014-1.23,0-.014,3.367.014,6.735-.014,10.1-2.11-3.354-4.15-6.749-6.26-10.1H477.3V11.958Z" transform="translate(-410.668 -0.71)"/>
    <path id="Path_2046" data-name="Path 2046" class="cls-1" d="M660.58,7.577v4.36c.419.014.838.014,1.244,0,.042-1.565-.07-3.144.056-4.695,1.355-2.166,2.795-4.276,4.15-6.428q-.713-.021-1.425,0c-1.118,1.761-2.222,3.535-3.354,5.282-1.146-1.747-2.236-3.535-3.381-5.3H656.5c1.286,2.082,2.6,4.136,3.9,6.2A.962.962,0,0,1,660.58,7.577Z" transform="translate(-564.828 -0.688)"/>
    <path id="Path_2047" data-name="Path 2047" class="cls-1" d="M378.608,95.334a4.124,4.124,0,0,0-2.725-1.607,19.174,19.174,0,0,0-4.29-.21,7.091,7.091,0,0,0-3.661.95,4.321,4.321,0,0,0-1.621,2.571,18.819,18.819,0,0,0-.433,4.248,25.8,25.8,0,0,0,.321,5.086,4.544,4.544,0,0,0,2.026,3.256,10.421,10.421,0,0,0,4.849.8c1.607-.056,3.381-.07,4.751-1.034,1.272-.936,1.635-2.6,1.8-4.08a34.962,34.962,0,0,0,.07-5.925A8.491,8.491,0,0,0,378.608,95.334Zm-.936,10.689a2.986,2.986,0,0,1-1.481,2.278,8.72,8.72,0,0,1-3.549.489,7.635,7.635,0,0,1-3.312-.559,3.459,3.459,0,0,1-1.439-2.753,41.241,41.241,0,0,1-.1-6.022,5.742,5.742,0,0,1,.88-3.256,3.127,3.127,0,0,1,2.068-.964,17.13,17.13,0,0,1,3.591-.056,4.1,4.1,0,0,1,2.319.713,3.482,3.482,0,0,1,1.062,2.194,28.01,28.01,0,0,1,.2,3.912A25.824,25.824,0,0,1,377.672,106.023Z" transform="translate(-314.812 -80.425)"/>
    <path id="Path_2048" data-name="Path 2048" class="cls-1" d="M490.778,95.069a4.277,4.277,0,0,0-2.585-1.341,19.641,19.641,0,0,0-4.15-.2,6.648,6.648,0,0,0-4.01,1.16,5.55,5.55,0,0,0-1.579,3.633,33.494,33.494,0,0,0-.126,6.036,8.438,8.438,0,0,0,1.132,4.248,4.5,4.5,0,0,0,3.2,1.663,20.148,20.148,0,0,0,5.268-.028,4.286,4.286,0,0,0,3.116-1.747,9.517,9.517,0,0,0,1.076-4.555,36.243,36.243,0,0,0-.14-5.645A6.167,6.167,0,0,0,490.778,95.069Zm-.573,9.851a5.129,5.129,0,0,1-.824,2.767,3.026,3.026,0,0,1-2.082,1.006,17.711,17.711,0,0,1-3.549.07,4.288,4.288,0,0,1-2.333-.713,3.48,3.48,0,0,1-1.09-2.152,24.629,24.629,0,0,1-.224-3.2,33.752,33.752,0,0,1,.168-4.443,3.791,3.791,0,0,1,.936-2.222,3.259,3.259,0,0,1,1.97-.8,16.844,16.844,0,0,1,4.276.042,2.789,2.789,0,0,1,2.054,1.174,6.629,6.629,0,0,1,.713,3.158A37.4,37.4,0,0,1,490.205,104.92Z" transform="translate(-411.486 -80.439)"/>
    <path id="Path_2049" data-name="Path 2049" class="cls-1" d="M270.9,102.643a2.769,2.769,0,0,0,1.858-2.124,6.873,6.873,0,0,0-.489-4.332,3.913,3.913,0,0,0-3.381-1.425c-2.725-.014-5.463,0-8.188,0v16.572c2.683.028,5.366,0,8.048.014a5.8,5.8,0,0,0,2.753-.475,3.388,3.388,0,0,0,1.663-2.375,8.928,8.928,0,0,0-.014-3.94A3.051,3.051,0,0,0,270.9,102.643Zm-8.356-6.232c2.068,0,4.122-.014,6.19,0a2.234,2.234,0,0,1,1.956.81A4.531,4.531,0,0,1,271,99.582a2.381,2.381,0,0,1-.866,1.942,4.535,4.535,0,0,1-2.236.461H262.53C262.544,100.127,262.544,98.269,262.544,96.411Zm8.468,12.422a3.261,3.261,0,0,1-2.543.824c-1.97.028-3.954.014-5.925.014-.014-2.012-.014-4.038,0-6.05,2.026-.014,4.038-.014,6.064,0a4.6,4.6,0,0,1,2.04.349,2.463,2.463,0,0,1,.838,2.054A4.524,4.524,0,0,1,271.012,108.833Z" transform="translate(-224.333 -81.515)"/>
    <path id="Path_2050" data-name="Path 2050" class="cls-1" d="M611.211,94.514c-2.012,4.709-3.912,9.474-5.9,14.183-1.984-4.723-3.857-9.488-5.869-14.2-1.02.014-2.026,0-3.046,0v16.6c.615.014,1.23.014,1.83,0,.014-5-.014-10,.014-15.007,2.11,4.988,4.192,10,6.288,15.007.531.014,1.076.014,1.607,0,2.1-5.044,4.136-10.116,6.246-15.147.028,5.058,0,10.1.014,15.161q.922.021,1.844,0V94.528C613.223,94.514,612.217,94.528,611.211,94.514Z" transform="translate(-513.126 -81.296)"/>
    <path id="Path_2051" data-name="Path 2051" class="cls-1" d="M23.834,1.746A3.956,3.956,0,0,0,21.92,5.253,6.789,6.789,0,0,1,19.1,11.122a6.944,6.944,0,0,1-2.767.95,10.808,10.808,0,0,0-2.934.321,3.906,3.906,0,0,0-2.347,3.619c-.028,1.97-.419,4.122-1.9,5.533a5.7,5.7,0,0,1-2.641,1.244c-1.216.279-2.487.154-3.661.545A3.959,3.959,0,0,0,.416,25.262,4.074,4.074,0,0,0,.122,27.61a3.88,3.88,0,0,0,1.9,2.725,4.12,4.12,0,0,0,3.926.042,3.607,3.607,0,0,0,1.7-2.082,18.555,18.555,0,0,0,.377-2.92,7.03,7.03,0,0,1,1.272-3.3,6.239,6.239,0,0,1,4.527-2.068,7.484,7.484,0,0,0,3.437-.8,3.118,3.118,0,0,0,1.369-1.565,12.02,12.02,0,0,0,.349-3c.042-.461.182-.922.238-1.383a6.035,6.035,0,0,1,1.663-2.725,6.958,6.958,0,0,1,4.807-1.481,3.931,3.931,0,1,0-1.858-7.308Z" transform="translate(-0.127 -1.033)"/>
    <path id="Path_2052" data-name="Path 2052" class="cls-1" d="M94.165,87.7a3.917,3.917,0,0,0,1.942-6.372,3.874,3.874,0,0,0-6.889,2.711c-.07,1.9-.461,3.982-1.9,5.352A7.336,7.336,0,0,1,82.427,90.8,3.935,3.935,0,0,0,79.9,97.688a4.012,4.012,0,0,0,4.918.252,3.939,3.939,0,0,0,1.607-3.214,9.026,9.026,0,0,1,1.034-4.388,6.807,6.807,0,0,1,1.048-1.146,6.248,6.248,0,0,1,3.423-1.286A17.049,17.049,0,0,0,94.165,87.7Z" transform="translate(-67.649 -68.806)"/>
    <path id="Path_2053" data-name="Path 2053" class="cls-1" d="M159.317,158.267a3.92,3.92,0,1,0,4.388,3.619A3.942,3.942,0,0,0,159.317,158.267Z" transform="translate(-134.143 -136.12)"/>
    <path id="Path_2054" data-name="Path 2054" class="cls-1" d="M6.715,9.044A3.922,3.922,0,0,0,3.6,1.9a4.169,4.169,0,0,0-1.5.838,3.966,3.966,0,0,0-.531,5.24A3.943,3.943,0,0,0,6.715,9.044Z" transform="translate(-0.767 -1.484)"/>
    <path id="Path_2055" data-name="Path 2055" class="cls-1" d="M2.091,19.646a3.919,3.919,0,0,0,5.477-2.333,21.354,21.354,0,0,0,.293-2.669,11.663,11.663,0,0,1,.489-1.914A6.044,6.044,0,0,1,10.74,10a8.1,8.1,0,0,1,4.066-.978A3.928,3.928,0,0,0,18.439,3.7a3.926,3.926,0,0,0-7.322-.014c-.419,1.034-.182,2.166-.391,3.242a5.765,5.765,0,0,1-2.557,4.29,8.931,8.931,0,0,1-4.415.978A3.9,3.9,0,0,0,.261,14.489a4.178,4.178,0,0,0-.279,2.375A3.967,3.967,0,0,0,2.091,19.646Z" transform="translate(0 -1.02)"/>
  </g>
</svg>
