<svg xmlns="http://www.w3.org/2000/svg" viewBox="0 0 38.806 22.993">
  <defs>
    <style>
      .cls-1 {
        fill: #339fd0;
      }
    </style>
  </defs>
  <path id="Path_2096" data-name="Path 2096" class="cls-1" d="M422.857-38.911a8.707,8.707,0,0,0-6.115,2.9c.339.44.669.875.99,1.3.509.671,1.052,1.391,1.6,2.07,1.171-1.223,2.335-2.048,3.524-2.048a3.357,3.357,0,0,1,3.316,3.333,3.33,3.33,0,0,1-3.316,3.338c-2.175,0-4.261-2.751-6.47-5.663a36.945,36.945,0,0,0-5.27-5.993,12.072,12.072,0,0,0-8.025-3.175,11.5,11.5,0,0,0-11.51,11.493,11.5,11.5,0,0,0,11.51,11.5,12.07,12.07,0,0,0,8.025-3.174,26.546,26.546,0,0,0,3.369-3.544c-.946-1.063-1.832-2.227-2.7-3.373a25.522,25.522,0,0,1-3.4,3.707,7.933,7.933,0,0,1-5.295,2.169,7.286,7.286,0,0,1-7.3-7.284,7.281,7.281,0,0,1,7.3-7.279,7.941,7.941,0,0,1,5.295,2.175,33.857,33.857,0,0,1,4.641,5.327c2.734,3.6,5.561,7.33,9.828,7.33a7.551,7.551,0,0,0,7.531-7.553A7.571,7.571,0,0,0,422.857-38.911Z" transform="translate(-391.582 42.857)"/>
</svg>
