<svg xmlns="http://www.w3.org/2000/svg" viewBox="0 0 20.92 20">
  <defs>
    <style>
      .cls-1 {
        fill: #339fd0;
      }
    </style>
  </defs>
  <g id="ID" transform="translate(0 -4.531)">
    <path id="XMLID_445_" class="cls-1" d="M.254,32.847H4.39a.254.254,0,0,0,.254-.254V14.372a.254.254,0,0,0-.254-.254H.254A.254.254,0,0,0,0,14.372V32.594A.254.254,0,0,0,.254,32.847Z" transform="translate(0 -8.614)"/>
    <path id="XMLID_446_" class="cls-1" d="M72.2,24.531a4.974,4.974,0,0,0,4-1.835L76.328,24a.254.254,0,0,0,.253.229h3.652a.254.254,0,0,0,.249-.3c-.053-.89-.105-2.429-.105-3.9V4.785a.254.254,0,0,0-.254-.254H76.013a.254.254,0,0,0-.254.254v6.527a4.686,4.686,0,0,0-3.288-1.1,5.814,5.814,0,0,0-4.154,1.724A7.6,7.6,0,0,0,66.3,17.491C66.3,21.57,68.78,24.531,72.2,24.531Zm1.325-3.779c-1.578,0-2.558-1.3-2.558-3.4,0-1.616.677-3.5,2.585-3.5a2.224,2.224,0,0,1,2.156,1.817,6.32,6.32,0,0,1,.051.687v1.73a3.208,3.208,0,0,1-.1.879l0,.015A2.154,2.154,0,0,1,73.526,20.752Z" transform="translate(-59.566)"/>
  </g>
</svg>
