<svg id="FB_ads" data-name="FB ads" xmlns="http://www.w3.org/2000/svg" viewBox="0 0 60.063 23">
  <defs>
    <style>
      .cls-1 {
        fill: #339fd0;
      }
    </style>
  </defs>
  <g id="Group_34" data-name="Group 34" transform="translate(0.034 13.152)">
    <path id="Path_2097" data-name="Path 2097" class="cls-1" d="M5.563,53.55V52.5A2.934,2.934,0,0,1,3.2,53.718c-1.821,0-3.1-1.383-3.1-3.642C.1,47.85,1.382,46.4,3.2,46.4A2.876,2.876,0,0,1,5.53,47.614V46.569H6.643V53.55H5.563Zm0-1.889v-3.17a2.606,2.606,0,0,0-2.091-1.113c-1.416,0-2.226,1.147-2.226,2.7s.843,2.7,2.226,2.7A2.557,2.557,0,0,0,5.563,51.661Z" transform="translate(-0.1 -43.904)"/>
    <path id="Path_2098" data-name="Path 2098" class="cls-1" d="M29.063,48.645V47.6A2.934,2.934,0,0,1,26.7,48.814c-1.821,0-3.1-1.383-3.1-3.642,0-2.226,1.282-3.676,3.1-3.676a2.987,2.987,0,0,1,2.361,1.214V39h1.079v9.645Zm0-1.889v-3.17a2.606,2.606,0,0,0-2.091-1.113c-1.416,0-2.226,1.147-2.226,2.7s.843,2.7,2.226,2.7A2.606,2.606,0,0,0,29.063,46.757Z" transform="translate(-15.675 -39)"/>
    <path id="Path_2099" data-name="Path 2099" class="cls-1" d="M46.4,52.705l.573-.776a3.177,3.177,0,0,0,2.293,1.012c1.079,0,1.652-.506,1.652-1.214,0-1.686-4.317-.641-4.317-3.238,0-1.079.944-1.99,2.6-1.99a3.543,3.543,0,0,1,2.6,1.012l-.506.742a2.693,2.693,0,0,0-2.091-.877c-.944,0-1.551.472-1.551,1.113,0,1.518,4.317.506,4.317,3.238,0,1.18-.944,2.091-2.732,2.091A3.917,3.917,0,0,1,46.4,52.705Z" transform="translate(-30.786 -43.971)"/>
  </g>
  <g id="Group_35" data-name="Group 35">
    <path id="Path_2100" data-name="Path 2100" class="cls-1" d="M4.688,1.821c-.708,0-.911.3-.911,1.012V3.979H5.666l-.2,1.855H3.777v5.632H1.518V5.834H0V3.979H1.518V2.867C1.518.978,2.293,0,4.384,0,4.856,0,5.362.034,5.7.067V1.821Z"/>
    <path id="Path_2101" data-name="Path 2101" class="cls-1" d="M17.3,14.976c0-2.091.978-3.676,3.069-3.676a2.2,2.2,0,0,1,2.158,1.315V11.469h2.158v7.487H22.527V17.809a2.2,2.2,0,0,1-2.158,1.282c-2.091,0-3.069-1.585-3.069-3.676Zm2.26.506c0,1.113.4,1.855,1.45,1.855.944,0,1.416-.674,1.416-1.754v-.742c0-1.079-.472-1.754-1.416-1.754-1.045,0-1.45.742-1.45,1.855Z" transform="translate(-11.466 -7.489)"/>
    <path id="Path_2102" data-name="Path 2102" class="cls-1" d="M45.578,11.3a4.157,4.157,0,0,1,2.158.506l-.506,1.619a3.61,3.61,0,0,0-1.518-.337c-1.214,0-1.754.708-1.754,1.922v.438c0,1.214.54,1.922,1.754,1.922a3.61,3.61,0,0,0,1.518-.337l.506,1.619a4.247,4.247,0,0,1-2.158.506c-2.664,0-3.878-1.416-3.878-3.743v-.337C41.7,12.75,42.914,11.3,45.578,11.3Z" transform="translate(-27.637 -7.489)"/>
    <path id="Path_2103" data-name="Path 2103" class="cls-1" d="M60.5,15.482v-.674c0-2.125,1.214-3.507,3.676-3.507,2.327,0,3.339,1.416,3.339,3.507v1.18H62.793c.034,1.012.506,1.484,1.754,1.484A5.945,5.945,0,0,0,66.941,17l.4,1.551a7.532,7.532,0,0,1-2.9.54C61.579,19.124,60.5,17.708,60.5,15.482Zm2.293-.944h2.732v-.2c0-.809-.337-1.45-1.315-1.45C63.164,12.885,62.793,13.526,62.793,14.538Z" transform="translate(-40.097 -7.489)"/>
    <path id="Path_2104" data-name="Path 2104" class="cls-1" d="M91.719,7.959c0,2.091-1.012,3.676-3.069,3.676a2.3,2.3,0,0,1-2.226-1.282v1.113H84.3V.236L86.526,0V4.991a2.234,2.234,0,0,1,2.125-1.18c2.091,0,3.069,1.585,3.069,3.676Zm-2.26-.506c0-1.045-.4-1.855-1.484-1.855-.944,0-1.416.674-1.416,1.72v.776c0,1.079.506,1.72,1.416,1.72,1.079,0,1.484-.776,1.484-1.855Z" transform="translate(-55.87)"/>
    <path id="Path_2105" data-name="Path 2105" class="cls-1" d="M108.5,15.481V15.11a3.744,3.744,0,0,1,7.487,0v.371a3.744,3.744,0,0,1-7.487,0Zm5.194-.54c0-.978-.4-1.787-1.45-1.787s-1.45.776-1.45,1.787v.708c0,.978.4,1.787,1.45,1.787s1.45-.776,1.45-1.787Z" transform="translate(-71.909 -7.555)"/>
    <path id="Path_2106" data-name="Path 2106" class="cls-1" d="M132.9,15.481V15.11a3.413,3.413,0,0,1,3.743-3.71,3.377,3.377,0,0,1,3.71,3.676v.371a3.413,3.413,0,0,1-3.743,3.71A3.363,3.363,0,0,1,132.9,15.481Zm5.194-.54c0-.978-.4-1.787-1.45-1.787s-1.45.776-1.45,1.787v.708c0,.978.4,1.787,1.45,1.787s1.45-.776,1.45-1.787Z" transform="translate(-88.08 -7.555)"/>
    <path id="Path_2107" data-name="Path 2107" class="cls-1" d="M159.693,7.621l2.226-3.575h2.394l-2.361,3.71,2.428,3.777h-2.394L159.66,7.857v3.676H157.4V.3l2.26-.2.034,7.521Z" transform="translate(-104.318 -0.066)"/>
  </g>
</svg>
