<svg xmlns="http://www.w3.org/2000/svg" viewBox="0 0 25.876 20">
  <defs>
    <style>
      .cls-1 {
        fill: #339fd0;
      }
    </style>
  </defs>
  <g id="Ps" transform="translate(0 -27.687)">
    <path id="XMLID_311_" class="cls-1" d="M4.8,47.139V40.628c.347.034.757.051,1.2.051A9.108,9.108,0,0,0,12.373,38.6a6.386,6.386,0,0,0,1.834-4.714,5.81,5.81,0,0,0-2.134-4.615c-1.333-1.066-3.291-1.584-5.987-1.584a36.032,36.032,0,0,0-5.866.4A.265.265,0,0,0,0,28.348V47.139a.265.265,0,0,0,.265.265H4.532A.265.265,0,0,0,4.8,47.139Zm0-10.363V31.583a8.2,8.2,0,0,1,1.515-.116c1.969,0,3.1.923,3.1,2.532,0,1.78-1.284,2.843-3.436,2.843A7.706,7.706,0,0,1,4.8,36.776Z" transform="translate(0)"/>
    <path id="XMLID_334_" class="cls-1" d="M147.371,81.05c-1.758-.615-2.055-.908-2.055-1.332,0-.753.86-.865,1.374-.865a6.519,6.519,0,0,1,2.868.759.265.265,0,0,0,.384-.167l.763-2.967a.265.265,0,0,0-.138-.3,9.533,9.533,0,0,0-4.018-.819c-3.467,0-5.889,1.968-5.889,4.782-.023,1.373.67,3.252,4.109,4.41,1.67.557,1.853.846,1.853,1.331,0,.221,0,.893-1.571.893a8.121,8.121,0,0,1-3.564-1.007.265.265,0,0,0-.4.163l-.763,3.08a.265.265,0,0,0,.131.3,10.033,10.033,0,0,0,4.591.993c3.859,0,6.256-1.812,6.256-4.733C151.276,83.368,150.062,81.976,147.371,81.05Z" transform="translate(-125.431 -42.61)"/>
  </g>
</svg>
