<svg id="NEW_logo_horizont" data-name="NEW logo horizont" xmlns="http://www.w3.org/2000/svg" viewBox="0 0 150.148 27">
  <defs>
    <style>
      .cls-1{fill:#fff}
    </style>
  </defs>
  <g id="Group_40" data-name="Group 40">
    <path id="Path_2128" data-name="Path 2128" class="cls-1" d="M60.73 27H7.885V12.624L0 8.8l7.885-3.782V0H60.73zm-50.336-2.23h47.867V2.509H10.394v4.062L5.774 8.8l4.619 2.23z"/>
    <g id="Group_39" data-name="Group 39" transform="translate(12.743 4.858)">
      <path id="Path_2129" data-name="Path 2129" class="cls-1" d="M37.814 16.66a2.616 2.616 0 0 0-.4-1.513 1.433 1.433 0 0 0-1.274-.558 1.63 1.63 0 0 0-1.155.438 2.493 2.493 0 0 0-.518 1.712 3.615 3.615 0 0 0 .4 1.752 2.539 2.539 0 0 0 1.115.757l1.473.518a4.283 4.283 0 0 1 2.19 1.434 4.609 4.609 0 0 1 .717 2.907v.558a5.2 5.2 0 0 1-1.155 3.7 4.355 4.355 0 0 1-3.107 1.118 3.877 3.877 0 0 1-3.345-1.473A5.217 5.217 0 0 1 32 25.182v-.558h2.389v.438a2.368 2.368 0 0 0 .4 1.473 1.58 1.58 0 0 0 1.314.558 1.792 1.792 0 0 0 1.513-.6 2.7 2.7 0 0 0 .4-1.633v-.637a3.116 3.116 0 0 0-.4-1.712 2.611 2.611 0 0 0-1.155-.757l-1.752-.637a3.355 3.355 0 0 1-2.19-1.872 6.211 6.211 0 0 1-.358-2.429v-.478a4.3 4.3 0 0 1 1.235-3.106A4.026 4.026 0 0 1 36.3 12.2c2.389 0 3.982 1.553 3.982 4.3v.558h-2.388v-.4z" transform="translate(-32 -12.2)"/>
      <path id="Path_2130" data-name="Path 2130" class="cls-1" d="M60.589 12.9v7.168h3.226V12.9H66.2v16.726h-2.385v-7.368h-3.226v7.367H58.2V12.9h2.389z" transform="translate(-47.766 -12.621)"/>
      <path id="Path_2131" data-name="Path 2131" class="cls-1" d="M84 16.919a4.273 4.273 0 0 1 1.235-3.544 4.576 4.576 0 0 1 5.894 0 4.314 4.314 0 0 1 1.235 3.544v7.925a4.273 4.273 0 0 1-1.235 3.544 4.576 4.576 0 0 1-5.894 0A4.358 4.358 0 0 1 84 24.844zm6.013-.319a1.834 1.834 0 0 0-.518-1.473 1.707 1.707 0 0 0-1.274-.478 1.644 1.644 0 0 0-1.274.478 1.93 1.93 0 0 0-.518 1.473v8.642a1.834 1.834 0 0 0 .518 1.473 1.707 1.707 0 0 0 1.274.478 1.644 1.644 0 0 0 1.274-.478 1.93 1.93 0 0 0 .518-1.473z" transform="translate(-63.292 -12.26)"/>
      <path id="Path_2132" data-name="Path 2132" class="cls-1" d="M112.029 23.192a3.263 3.263 0 0 1 .8-2.429l1.354-2.15a2.8 2.8 0 0 0 .4-1.593v-1a1.3 1.3 0 0 0-.358-1 1.311 1.311 0 0 0-1-.319 1.2 1.2 0 0 0-.956.4 1.84 1.84 0 0 0-.279 1v1.155h-2.39v-1.431a3.536 3.536 0 0 1 1.354-2.748 3.8 3.8 0 0 1 2.23-.677 3.745 3.745 0 0 1 2.748.916 3.215 3.215 0 0 1 1.075 2.509v1.314a4.354 4.354 0 0 1-.558 2.469l-1.673 2.668a2.714 2.714 0 0 0-.358 1.633v1.354h-2.389zm2.509 3.5v2.628h-2.628V26.7z" transform="translate(-78.697 -12.32)"/>
      <path id="Path_2133" data-name="Path 2133" class="cls-1" d="M135.267 12.9l-.558 12.544H132.8l-.4-12.544h2.867zm-.2 14.1v2.628h-2.627V27z" transform="translate(-92.418 -12.621)"/>
    </g>
  </g>
  <path id="Rectangle_97" data-name="Rectangle 97" transform="translate(74.021)" opacity=".4" fill="#fff" d="M0 0h1.633v27H0z"/>
  <path id="Path_2134" data-name="Path 2134" class="cls-1" d="M5.143-9.988H3.43L-.112-.8H1.55l.9-2.434h3.633L6.959-.8h1.726zm.515 5.538H2.863l1.43-3.864zm7.458-3.13c-.142-.013-.193-.026-.283-.026A2.356 2.356 0 0 0 10.6-6.124V-7.45H9.226V-.8h1.455v-2.928c0-1.391.464-2.486 1.919-2.486a4.837 4.837 0 0 1 .515.039zm4.019.129h-1.34v-2h-1.468v2h-1.108v1.069h1.108v3.168c0 1.507-.116 2.473 1.816 2.473a6.825 6.825 0 0 0 .992-.052V-1.95a4.462 4.462 0 0 1-.58.026c-.773 0-.76-.322-.76-.953v-3.5h1.34zm11.321 2.268h-1.288a4.155 4.155 0 0 1-.322 1.249l-1.4-1.739a2.677 2.677 0 0 0 1.623-2.344 2.055 2.055 0 0 0-2.215-2.035 2.078 2.078 0 0 0-2.267 2.035 3.154 3.154 0 0 0 .913 2.022 3.16 3.16 0 0 0-2.087 2.731 2.643 2.643 0 0 0 2.87 2.653 3.271 3.271 0 0 0 2.576-1.224l.85 1.03h1.8l-1.8-2.125a4.831 4.831 0 0 0 .747-2.253zm-3.748-1.379l-.052-.064a2.73 2.73 0 0 1-.76-1.43.909.909 0 0 1 .953-.9.921.921 0 0 1 .927.979c.001.54-.308.965-1.068 1.415zm-.451 1.507l1.816 2.228a2.108 2.108 0 0 1-1.713.992A1.485 1.485 0 0 1 22.853-3.3c0-.879.734-1.368 1.404-1.755zm10.425-4.92V-.8h3.581a3.654 3.654 0 0 0 2.975-1.018 5.08 5.08 0 0 0 1.288-3.722 4.576 4.576 0 0 0-1.352-3.49 4.143 4.143 0 0 0-3-.94zm1.6 1.365h1.79c2.009 0 2.847 1.262 2.847 3.143s-.592 3.31-2.743 3.31h-1.897zm7.442 3.21h1.391c.116-.863.528-1.185 1.481-1.185.927 0 1.365.322 1.365 1a.8.8 0 0 1-.09.477c-.142.193-.438.258-1.455.386-1.327.167-2.975.335-2.975 2.1a1.972 1.972 0 0 0 2.24 1.985 3.3 3.3 0 0 0 2.331-.8.952.952 0 0 0 1.082.8 3.447 3.447 0 0 0 .953-.142v-1.03a1.848 1.848 0 0 1-.335.026c-.27 0-.348-.1-.348-.489v-3.375c0-1.43-1.159-2.009-2.731-2.009-1.621 0-2.742.618-2.909 2.256zm4.224 1.26v.786a1.512 1.512 0 0 1-.3 1.146 2.163 2.163 0 0 1-1.507.528c-.76 0-1.2-.361-1.2-.992 0-.876.773-1 1.455-1.108a4.239 4.239 0 0 0 1.552-.36zM54.2-7.45h-1.34v-2h-1.473v2H50.28v1.069h1.108v3.168c0 1.507-.116 2.473 1.816 2.473a6.825 6.825 0 0 0 .996-.051V-1.95a4.463 4.463 0 0 1-.58.026c-.773 0-.76-.322-.76-.953v-3.5h1.34zm.974 2.05h1.391c.116-.863.528-1.185 1.481-1.185.927 0 1.365.322 1.365 1a.8.8 0 0 1-.09.477c-.142.193-.438.258-1.455.386-1.327.167-2.975.335-2.975 2.1a1.972 1.972 0 0 0 2.241 1.985 3.3 3.3 0 0 0 2.331-.8.952.952 0 0 0 1.082.8 3.447 3.447 0 0 0 .955-.141v-1.03a1.848 1.848 0 0 1-.335.026c-.27 0-.348-.1-.348-.489v-3.376c0-1.43-1.159-2.009-2.731-2.009-1.624 0-2.745.618-2.912 2.256zM59.4-4.14v.786a1.512 1.512 0 0 1-.3 1.146 2.163 2.163 0 0 1-1.5.528c-.76 0-1.2-.361-1.2-.992 0-.876.773-1 1.455-1.108a4.239 4.239 0 0 0 1.545-.36zM7.552 5.61c-.078-2.048-1.559-2.885-3.426-2.885C2.065 2.725.738 3.768.738 5.4c0 1.868 1.507 2.19 3.452 2.692 1.352.348 2.138.515 2.138 1.468 0 .9-.734 1.443-1.971 1.443-1.3 0-2.37-.554-2.37-1.971H.4c0 2.215 1.687 3.246 3.864 3.246 1.8 0 3.645-.8 3.645-2.872 0-1.971-1.752-2.344-3.31-2.743-1.761-.463-2.328-.512-2.328-1.388 0-.8.657-1.275 1.752-1.275 1.133 0 1.893.464 2 1.61zm4.8-.18h-1.34v-2H9.548v2H8.44V6.5h1.108v3.167c0 1.507-.116 2.473 1.816 2.473a6.825 6.825 0 0 0 .992-.052V10.93a4.462 4.462 0 0 1-.58.026c-.773 0-.76-.322-.76-.953V6.5h1.34zm6.878 0h-1.464v3.516c0 1.095-.425 2.074-1.6 2.074-1.249 0-1.3-.824-1.3-1.79v-3.8H13.4v4.4a2.116 2.116 0 0 0 2.267 2.421 2.515 2.515 0 0 0 2.19-1.172v.992h1.378zm7.857-2.524h-1.439v3.387a2.4 2.4 0 0 0-2.112-1.043c-1.842 0-3.014 1.352-3.014 3.49s1.185 3.516 3.065 3.516a2.265 2.265 0 0 0 2.125-1.095v.914h1.378zm-3.281 3.528c1.185 0 1.88.85 1.88 2.306s-.686 2.331-1.828 2.331S22 10.17 22 8.714c0-1.414.7-2.28 1.806-2.28zm6.363-3.568H28.7v1.443h1.468zm0 2.563H28.7v6.646h1.468zm4.675-.193a3.234 3.234 0 0 0-3.387 3.516 3.36 3.36 0 1 0 6.71 0 3.192 3.192 0 0 0-3.323-3.515zM34.819 6.4c1.159 0 1.868.889 1.868 2.344 0 1.494-.7 2.4-1.855 2.4-1.185 0-1.893-.889-1.893-2.383-.001-1.461.72-2.361 1.88-2.361z" transform="translate(88.65 12.505)"/>
</svg>
