<svg xmlns="http://www.w3.org/2000/svg" xmlns:xlink="http://www.w3.org/1999/xlink" viewBox="3311.883 2063.577 656.866 645.603">
  <defs>
    <style>
      .cls-1 {
        opacity: 0.246;
      }

      .cls-2 {
        opacity: 0.564;
      }

      .cls-10, .cls-12, .cls-13, .cls-14, .cls-15, .cls-16, .cls-17, .cls-18, .cls-19, .cls-2, .cls-21, .cls-22, .cls-3, .cls-4, .cls-5, .cls-6, .cls-7, .cls-8, .cls-9 {
        fill: url(#linear-gradient);
      }

      .cls-3 {
        opacity: 0.842;
      }

      .cls-5 {
        opacity: 0.772;
      }

      .cls-6 {
        opacity: 0.515;
      }

      .cls-7 {
        opacity: 0.55;
      }

      .cls-8 {
        opacity: 0.473;
      }

      .cls-9 {
        opacity: 0.814;
      }

      .cls-10 {
        opacity: 0.802;
      }

      .cls-11 {
        fill: url(#linear-gradient-17);
      }

      .cls-12 {
        opacity: 0.558;
      }

      .cls-13 {
        opacity: 0.334;
      }

      .cls-14 {
        opacity: 0.093;
      }

      .cls-15 {
        opacity: 0.548;
      }

      .cls-16 {
        opacity: 0.457;
      }

      .cls-17, .cls-20 {
        opacity: 0.678;
      }

      .cls-18 {
        opacity: 0.246;
      }

      .cls-19 {
        opacity: 0.495;
      }

      .cls-20 {
        fill: url(#linear-gradient-32);
      }

      .cls-21 {
        opacity: 0.786;
      }

      .cls-22 {
        opacity: 0.926;
      }
    </style>
    <linearGradient id="linear-gradient" x1="46.209" y1="-18.414" x2="-0.9" y2="38.55" gradientUnits="objectBoundingBox">
      <stop offset="0" stop-color="#071f2b"/>
      <stop offset="0.64"/>
      <stop offset="1" stop-color="#d537ea"/>
    </linearGradient>
    <linearGradient id="linear-gradient-17" x1="46.209" y1="-18.414" x2="-0.9" y2="38.55" gradientUnits="objectBoundingBox">
      <stop offset="0" stop-color="#071f2b"/>
      <stop offset="0.576"/>
      <stop offset="1" stop-color="#d537ea"/>
    </linearGradient>
    <linearGradient id="linear-gradient-32" x1="46.209" y1="-18.414" x2="-0.9" y2="38.55" gradientUnits="objectBoundingBox">
      <stop offset="0" stop-color="#071f2b"/>
      <stop offset="0.498" stop-color="#140516"/>
      <stop offset="0.64"/>
      <stop offset="0.906" stop-color="#120513"/>
      <stop offset="1" stop-color="#d537ea"/>
    </linearGradient>
  </defs>
  <g id="Map" class="cls-1" transform="translate(3254.699 2063.577)">
    <path id="Path_1882" data-name="Path 1882" class="cls-2" d="M141.474,353.287l3.737-2.551.667-1.817-2.3-1.278-5.076,2.052-2.814,4.684-1.319,4.248,2.877-.247Z" transform="translate(-64.339 -148.331)"/>
    <path id="Path_1883" data-name="Path 1883" class="cls-3" d="M141.766,362.311l-1.626,5.7,6.494-.94,4.268.688,3.263-3.916,2.549-7.728-.031-2.8-2.324,2.156-2.71-.166-6.749,2.672Z" transform="translate(-67.102 -150.75)"/>
    <path id="Path_1884" data-name="Path 1884" class="cls-4" d="M185.4,347.5l.224-2.6-.907.791-1.756,1.559-1.741,1.514-.86.751a3.485,3.485,0,0,0-.328.539c-.162.292-.36.671-.558,1.043l-.521,1.043-.271.539,2.559,1.347Z" transform="translate(-85.556 -147.162)"/>
    <path id="Path_1885" data-name="Path 1885" class="cls-4" d="M212.16,328.86l.334,2.4,3.951-1.135,6.911-3.165-.672-1.445-7.474,2.213-.375-1.2,2.09-2.362-1.97-1.324-3.648,2.15-.125,1.479,1.71-.011Z" transform="translate(-101.118 -137.75)"/>
    <path id="Path_1886" data-name="Path 1886" class="cls-5" d="M113.566,621.46l-3.247,1.439-.6,1.112,4.852.51,1.694,2,.839,3.01,1.272,1.256,1.355-1.227.167-1.835-2.7-4.546Z" transform="translate(-52.536 -265.165)"/>
    <path id="Path_1887" data-name="Path 1887" class="cls-4" d="M207.069,349.366l-2.179-2.213-4.055,5.051-.016,3.658,6.947-1.2,4.894,6.261-2.611,5.492-3.872,2.637-2.069,1.966L205.8,374.4l6.348,3.595,1.074-3.555,4.8-4.982,1.881-7.637,1.663-6.4.417-5.4-8.261-4.69Z" transform="translate(-96.157 -147.346)"/>
    <path id="Path_1888" data-name="Path 1888" class="cls-6" d="M244.888,284.1l4.125-4,2.2-3.394-2.161-1.089-4.662,2-2.923,4.352.156,1.966-2.723,3.348-1.933,1.536-1.9,2.677-1.784,3.686-1.96.573-.679,1.72.928.74-3.131,2.695-.6,1.9,1.888-.006,4.25-3.136,1.077-1.451,2.477-2.075,1.1-3.486,2.31-2.672,2.83-1.731Z" transform="translate(-91.561 -117.597)"/>
    <path id="Path_1889" data-name="Path 1889" class="cls-7" d="M139.172,640.472l-.125-.321-.87-2.695-2.663-1.147-2.908,2.2-1.678,2.987-.657,3.32,1.334.843L137,644l.433-.31.844-.608.855-.619c.24-.178.417-.31.464-.35s.031-.178,0-.367a6.68,6.68,0,0,0-.188-.648C139.323,640.874,139.239,640.644,139.172,640.472Z" transform="translate(-62.376 -271.501)"/>
    <path id="Path_1890" data-name="Path 1890" class="cls-4" d="M216.72,469.49l2.84,3.417,3.5-2.276,2.7,1.754,2.882-3.744-3.018-4.4-2.564-3.388-1.287,1.319Z" transform="translate(-103.77 -196.636)"/>
    <path id="Path_1891" data-name="Path 1891" class="cls-8" d="M292.335,300.5l1.476-3.566-1.2-3.434,1.451-3.044,5.493-7.774,3.2-10.566,2.064-14.316,2.335-4-.71-.665-4.264,3.7-3.481-1.674,4.821-4.432-2.279-1.313-3.394,2.116-2.3.361-8.226,7.8-1.6,2.586-3.845,1.668-5.725,6.318-4.278,5.974-3.422,3.044.149,3.824-1.011,5.406,4.285.619-1.389,6.026.076,3.858.845.224.433,5.458-4.3,9.741-1.829,13.381,3.374,6.553,3.024-1.582,2.279-11.81,7.336-10.205,5.608-7.327Z" transform="translate(-116.314 -106.423)"/>
    <path id="Path_1892" data-name="Path 1892" class="cls-9" d="M345.215,347.554l-1.458,1.536L343,347.17l-1.368,1.863.727,5.131,1.992,2.712,6.107-6.943.741-4.673-2.726-1.921Z" transform="translate(-165.937 -146.497)"/>
    <path id="Path_1893" data-name="Path 1893" class="cls-4" d="M371.178,403.9l-1.459,5.5-.1,1.789,4.758-1.118,2.455-6.112-2.163-2.431Z" transform="translate(-176.982 -171.325)"/>
    <path id="Path_1894" data-name="Path 1894" class="cls-4" d="M67.923,586.412l-4.838-1.445-3.976-7.052-1.7-.367.232-4.925L56.252,563.9l-3.385-1.542-3.964-10.2-5.14-1.726-1.928-.786-.8,1.026-.832,3.463-.771,1.393-.591-1.089.615-2.872.241-3.641-1.005.705L37.8,550.7l-1.484,2.9-1.127,3.148-.926.292-1.5.092-2.931.3.384-13.966-1.005-4.839-2.565.419.481-8.353,2.075-7.35.082-2.219-1.968.281-2.83,6.519-1.676,2.316-2.13-3.388,1.088-16.815,2.983-8.456,2.812-4.523,3.479-2.23.7-2.448,1.749-1.726,1.855,2.047L35.663,497l-.588,7.854.329,2.832H36l.57-2.242.74-8.674,1.584-8.651,3.674-10.864,1.551-6.307.311-5.894,1.078-3.749.576-.011-.131,2.488.917-.264,4.53-10.778,1.2-1.1.64-1.313.292-4.111L54.68,442.8l2.294-1.181,1.6-3.847.835-1.2.2,1.021-.271,1.863-1.069,2.723-.329,2.121.433,1.233,1.021-1.33,1.6-5.1.137-2.884-.7-3.119.926-4.46-.6-1.571-2.044,1.1-1.843,3.36-.695.281,1.213-4.4,2.788-3.973,4.21-2.293,3.08-3.537,1.645-4.661,1.145-5.217-1.088-1.634-.576-1.605.128-11.466-.6-1.021L66.3,395.325l-.78,2.632-1.082,1.514-1.124.218.085-3.623,1.057-3.709.064-3.99-2.105-2.781-2.675,1.852-.664,2.311-.183,3.365-1.377,4.867L57,403.254l-1.015,4.781-1.6,3.681-1.1,1.147-.679,2.265-.4,4.6-.692,3.193-.612.029-.417-1.777.152-6.14-1.231-6.3-1.834-4.03-.765-4.231.478-4.317,5.13-9.695,2.806-7.625,3.044-2.609,1.273-5.085-.926-1.875.07-7.585-.652-.413-2.97,6.92-2.721,4.965-2.949,1.571-1.551-.912-4.223,1.76-3.1-.768-1.871-2.993-2.52-.419-5.977,2.729-1.907-1.175L27.1,370.179,23.7,372.043l-.689-2.024-5.024,2.236-3.543,3.365-2.334,3.669-.356,2.454-2.187,3.01L7.5,389.345l.165,1.181,1.974-.711.07,1.026L8.2,393.221l-2.693,2.626-1.9,5.67-.533,3.01-.335,2.591.643.883,0,2.763-3.092,5.63L0,418.264l1.133-.78L3.2,415.03l2.785-6.381L9,406.19l1.95-3.727.256.378-.893,4.225.81-.82,1.557-4.432.78-.654.634,2.494,1.237-.155.917,1.393-.085,3.618.792.694.707,2.6-.972,17.756.792,4.707-.329,6.152-.643,3.233-.561.47-.274-2.224-.743,1.147-.408,3.176-1.554,5.1-.57,4.827L11.01,461.9l-1.185,9.368-.353,10.5.887,6.805.372,7.2-.92,7.918.32,6.209-.256,5.882.759,3.251.774-.315.494-1.594-.667-2.849.326-4.724-.213-3.268.826-12.607.676.206.058,2.878-.344,5.469.561,2.591-.469,10.429.442,4.615.929,3.228L14,526l-.311,1.531,1.176,7.447,3.019,3.188,3.561.338,3.108,7.952,1.654.178-.04,7.522,3.266,9.655,1.213,1.147.96-3.9,1.289.55-.533,12.768-.975,5.366-1.234,4.472-.96,14.769-1.572,5.039-.21,3.761,3.031,10.991-.125,5.406,1.024,4.908L31.456,634l5.724,17.01-1.752,42.506.743,6.542L35.1,725.7l1.843,7.963.192,10.085-.756,2.947.868,12.945,3.327,9.683,1.645-1.691.024-10.062.411-8.456-.862-4.564,2.489-10.715.018-2.546L43.788,728l1.581-2.815.564-4.162,2.029-2.242,1.785-.155.81-3.887-4.625-5.183L44.3,695.407l9.322,5.939v-3.779l.832-8.9,2.44-4.873,1.377-11.117,2.16-8.548,2.882-4.839,3.494-8.611,1.932-13.53,1.112-17.366,3.187-11.506-.259-13.324Z" transform="translate(67.362 -154.147)"/>
    <path id="Path_1895" data-name="Path 1895" class="cls-4" d="M383.8,388.641l1.73,1.009-.141,2.907-2.257,3.394-.219,2.935,1.673.751-.464,1.84-3.68,2.247,1.793,1.324,5.644-2.265,4.185-5.412.724-4.025-1.407-.648-.641-4.053-2.4-3.073.208-4.3-2-1.777-.651-3.3-2.121,2.471-1.094,7.109Z" transform="translate(-182.163 -160.517)"/>
    <path id="Path_1896" data-name="Path 1896" class="cls-10" d="M577.748,779.987l-6.64,10.475-4.138,20.267,1.152,10.572.62,2.6,3.336-.218,4.81-3.675,4.122-11.759,2.45-13.186,3.179-6.232.917-10.721-2.106-5.137Z" transform="translate(-271.478 -329.812)"/>
    <path id="Path_1897" data-name="Path 1897" class="cls-4" d="M1023.485,183.675l-14.072-7.585-.7,1.428,9.855,9.259,2.742,7.235,7.87,4.69,1.741-2.666-6.536-7.2Z" transform="translate(-482.993 -75.134)"/>
    <path id="Path_1898" data-name="Path 1898" class="cls-11" d="M605.1,310.521l5.092,5.791.7,19,2.392,5.487,3.283,4.26,1.2,6.794,3.252,4.529,3.127,3.268,2.481-.482,1.168-5.108-1.751-8.749-10.273-9.58-2.126-11.581,1.939-10.618,4.008-.785,10.564,8.113.25,5.733,8.537-6.811L642.08,301.1l-5.139-9.649L626.4,281.133l.641-4.655,5.978-7.115,5.592-1.267,3.372,1.966,3.648-3.56,12.811-13.725,7.818-16.122,2.335-12.223-1.49-7.212-2.543-4.013-2.085-5.888L651.7,198.552l-.662-5.957,4.3-3.5.709-2.826-3.158-.849-10.616,3.039-1.991-2.54,5.968-9.517,3.617-2.62,1.777,1.21L650.2,179.93l1.772,1.049,4.727-5.211,5.822-1.72.589,4.214,2.986,3.01,2.8-.447,4.367,7.642,5.973.837,5.212-3.079-3.81-8.6-8.959-6.089-.771-4.013,1.657-4.707-.2-6.243,3.205-4.822,4.456-1.364,3.127-6.089.949-8.164-.714-10.859-1.762-8.6-5.733-8.858-9.512-3.732-8.5.831-3.549-8.743,2.814-10.1L670.4,76.154l12.169-5.94,5.811-8.153,1.564-8.439,10.085-6.61,4.44,3.727,2.606,15.181L718.365,80.03l8.719.47,2.606-7.235-4.576-11.793-8.553-6.2L718.24,43.71l9.965-6.307,7-13.467-10.5-3.767L729.1,14.4l8.573-5.733L741.094,0,730.519,2.374,685.291,19.493l-7.51,9.821-28.915,7.493-47.7,19.034-5.379,6.112-5.17,2.654-5.024,5.779L574.077,68.15l-7.99,3.325L561.2,75.948,557.488,77.4l-7.1,2.74c-2.528.975-5.029,1.932-6.937,2.654s-3.205,1.2-3.346,1.215a7.741,7.741,0,0,0-1.318,1.261c-.646.7-1.449,1.617-2.241,2.534s-1.563,1.835-2.163,2.546l-1.089,1.307L530.439,90.3l1.24-9.173-13.123,3.44-8.047,7.35-16.845,10.8v4.931l-4.659,5.624,1,2.718-4.169,7.247,3.127,4.632-2.413,5.32-5.41,7.5-1.689-7.035-3.971-11.421-6.588,3.514-.552,6.192,5.342.78-.047,5.361-11.773,2.706-5.332,6.157-16.907,10.366-4.409-2.488-2.694,3.308-.631,6.519-8.266,10.079-6.327-1.582,2.783-4.386,6.681-3.239.745-2.867-2.606-2.121-9,.894-6.619-4.334-6.1,2.689-4.122,4.976-7.672,8.5-4.2,3.377-6.077,9.695-1.167,3.3L373.4,201.1l-2.126,8.892,1.621,2.626,4.274-1.439,3.127-2.786,2.684,3.1-.089,4.862,2.168.9,1.376-2.867,2.392-1.72,1.506-6.163,2.606-5.062-1.188-4.994,2.7-7.356,2.653-5.733.344-3.715,3.388-2.293,1.4-.109.287,4.317-2.559,5.733-1.861,7.235,1.61,3.09,2.486-.04,2.465-2.339,6.536-2.649,1.308.5-.521,2.643-6.53,1.817-2.137,2.087-.719,2.007,1.042.8-.235,3.83-1.522-.04-1.1-1.055-2.658,3.469-.573,4.013-2.543,4.856-14.723,5.326-2.22-.573,1.042-4.174-.344-3.033-1.371.573-1.72,3.973-.052,3.7-1.068,3.342-3.768,2.557-10.752,14.769-2.877,1.221-1.365,2.563-3.779,1.766-.912,2.523,2.007.722,2.345,2.23-.162,6.37-4.93,5.418-7.265,2.454-2.861,2.167-.74,14.1L341,289.692l2.674-.453,2.695,1.416.563-.8c.307-.436.7-1,1.1-1.554s.8-1.112,1.121-1.525a4.089,4.089,0,0,1,.6-.717,5.8,5.8,0,0,0,.651-.252l1.22-.5,1.214-.5.62-.264,3.2-4.787.589-2.729,5.311-8.485,2.418-.573.709-4.231,5.775-2.19,4.253-3.921,1.97.04.459,4.225,2.893,3.228,3.513.361,1.136,2,.792,2.517-.631,3.767,1.683.493,2.236-3.159-.672-3.727.063-1.72,1.532.3,1.23-.132-.433-1.68-2.976-3.05-4.425-2.391-2.053-2.735-.125-4.936.86-1.5,1.162-.12.427,1.319-.089,2.293,2.423,1.686,1.928-.654,5.8,3.881.422,6.542,1.934,3.715,1.193,1.376,2.663-.092.287,1.531-1.121,3.532.87,1.382,1.5.132.808-1.623.031-6.037-1.042-1.754.334-2.448,1.407-2.219,1.428-2.752,3.893-.785,2.934-4.587-.261-2.717.354-6.186,5.154-7.935L422,233.949l.651,1.41-.756,2.477-.062,2.379,1.61,1.032,3.638-1.032-.792-5.521,1.407-4.185,5.618-1.491.125,2.127-1.736,2.867-.975,4.3,2.392,2.769,4.612-.373,1.835,1.766-.089,4.317-9.381,3.56-4.013-.573-9.173,4.013-5.081,4.781-2.293,5.6-.224,4.483,2.533.722,7.1,1.009,8.13-4.283,3.127,1.686.276,7.138-1.881,4.587-3.68,5.842-7.964,3.251-2.387,1.72-9.7,2.064-5.639-3.033-3.732,1.72-1.147,6.043-1.386,1.651-2.5-1.863-3.184-.814-2.2-2.333-8.11.482-1.131-1.617.73-6.008-1.756-3.744-17.991,6.077-3.247,3.864-6.113,1-1.392-.751-3.935,5.16-6.39,11.077-1.433,5.905-.672,1.193-1.313,2.316-1.308,2.339c-.37.665-.641,1.147-.7,1.267s-.584,1.376-1.339,3.216-1.741,4.248-2.736,6.679l-2.773,6.788-1.423,3.5.188,3.44-4.774,19.934.8,4.587-.568,6.307,3.768,4.535.057,7.545,9.564,12.091L333.9,399.6l3.424-4.667,4.8-.963,2.47,2.683,5.65-6.129,6.629-1.147,5.342,5.383,6.442-.3-.1,12.791-1.746,4.85,7.364,12.539-.766,19.046,3.6,6.559-4.013,12.848-.485,14.82,2.7,4.145-.521,7.2,1.668,4.627.61,14.293,2.908,6.828-.24,6.364,3.33,5.733-.214,5.922,6.1,6.983,13.983-5.378,12.315-16.552,2.814-6.358.678-6.759L422.857,498l2.809-11.512.474-9.586,8.1-9.54,5.733-4.277,1.459-23.03-2.35-4.587-.245-20.066,1.678-5.011,4.065-2.924.167-4.237,13.733-19.774,6.1-10.274,1.193-9.93,2.606-4.885.339-4.478-3.408-2.052-9.313,1.634-4.362,3.95-2.9-2.586.052-3.13-11.164-12.957.083-4.111-3.528-6.478-.6-10.039-3.883-4.013-.589-5.492-6.254-10.71-.86-2.809,2.085-1.181,2.971,1.514,1.522-.573.375,3.176,3.216,4.323,2.012,2.826-.1,4.713,3.815,4.644.375,4.071,6.775,8.193,1.412,4.512-.245,8.439,2.4,2.609.782,4.248,3.7-.126,5.915-6.215,6.7-2.431,7.713-9.322,1.876-.39,9.61-11.231,4.654-9.746-1.683-6.335-7.213-6.026-3.247.527-5.306,4.793-1.642-.218-2.356-5.917-.8,3.239-1.835.671-1-4.334-4.211-5.269.261-5.269,1.345-1.949,3.961,2.374,4.764,3.5,4.821,2.591,6.254.149,4.341,2.425,17.2-3.572.886.51,1.756,1c.641.361,1.3.728,1.829,1.015s.943.5,1.1.573a.911.911,0,0,0,.3,0,1.691,1.691,0,0,0,.48-.052l.6-.109.667-.143.907-.224.8-.212.578-.161.25-.075,3.377,3.566L516,298.281l2.653,2.007,4.117-3.4,2.778-.252-1.647,8.1,1.657,7.728,2.637,4.879,1.767,3.062.427,7.539,3.45,5.475,2.142,3.847,1.887,9.242,4.691.195,2.887-2.74,3.263-7.27,1.6-12.418,3.435-10.285,4.946-8.531,7.067-11.988,1.2-8.026,2.5-2.867,5.139-1.514,2.418-2.534,4.169,1.978,7.755,6.02,1.491,6.966.036,6.347,2.491,2.763,2.507.1,3.085-2.156,3.263.218,1.652,2.792Z" transform="translate(-152.012)"/>
    <path id="Path_1899" data-name="Path 1899" class="cls-4" d="M1068.055,227.132l-1.506-2.3-7.74,1.353-6.739-2.74-3.33,1.055.193,2.672,3.221,2.523-1.464,5.332.005,3.91,4.242,1.112,1.522-.906-1.563-2.3,7.635-2.97Z" transform="translate(-502.16 -95.337)"/>
    <path id="Path_1900" data-name="Path 1900" class="cls-4" d="M1000.34,428.1l-3.6-9.294-3.408,6.519,2.116,3.744,3.5,3.073Z" transform="translate(-475.628 -178.698)"/>
    <path id="Path_1902" data-name="Path 1902" class="cls-4" d="M1054.535,286.483l.156-.052.13-.057.1-.063.073-.069q.6-.919,1.121-1.9c.568-1.021,1.277-2.333,1.975-3.641s1.4-2.62,1.933-3.629l.985-1.863-.813-10.624-3.091-9.483-4.977.069-3.215,3.308,4.2,2.419.667,5.217-4.342,9.959-8.208,10.32-3.205,1.72-1.819,5.733,2.95-1.37,4.691-3.394,1.042-.39,2.017-.751,2.017-.751,1.042-.373a5.375,5.375,0,0,1,.636-.034l1.266-.04c.48,0,.99-.046,1.465-.092A7.476,7.476,0,0,0,1054.535,286.483Z" transform="translate(-496.16 -108.846)"/>
    <path id="Path_1901" data-name="Path 1901" class="cls-4" d="M1033.324,338.4l2.225-4.076-.328-4.747-3.45-1.772-3.878,1.066-2.913,4.42,4.764-.12-.073,3.016Z" transform="translate(-490.783 -139.87)"/>
    <path id="Path_1903" data-name="Path 1903" class="cls-4" d="M891.015,636.272l-1.47-4.007-10.262-11.329-11.633-7.316-2.731.453.125,3.721,9.548,10.222.719,5.745,6.431,7.367,1.021,6.3,13.071,12.217,4.628-.6,1.777-4.844-1.59-8.692Z" transform="translate(-414.143 -261.82)"/>
    <path id="Path_1904" data-name="Path 1904" class="cls-12" d="M1016.623,490.571l4.7.785,2.022,2.769,2.429-1.926-.349-5.28-4.894-1.307-3.419-5.166-.427-6.742-3.732-6.284-3.085,1.519.375,6.146-2.439,10,3.122,1.21.99,4.793Z" transform="translate(-482.557 -199.439)"/>
    <path id="Path_1905" data-name="Path 1905" class="cls-13" d="M1037.08,534.448l2.371,4.678,1.5-3.365,3.408-4.736-2.325-2.626-3.382.648Z" transform="translate(-496.577 -225.458)"/>
    <path id="Path_1906" data-name="Path 1906" class="cls-4" d="M985.619,605.249l-3.289-5.618-.115-8.955,3.273-3.927a7.139,7.139,0,0,0-.3-.682c-.167-.373-.38-.843-.6-1.313s-.459-.935-.667-1.29a1.6,1.6,0,0,0-.49-.613l-.73-.092-1.2-.126-1.147-.115-.578-.057-7.046,7.3-13.639,18.5L954.63,613.6l2.319,11.335,6.285,5.584H975l3.711-3.646,2.012-10.228,4.633-6.307Z" transform="translate(-457.098 -248.524)"/>
    <path id="Path_1907" data-name="Path 1907" class="cls-14" d="M963.456,699.869l1.923-3.1-3.33-2.3-4.758-.768-2.4,1.668-5.446.682-1.459-1.886-6.494.178-4.149,3.228,1.35,3.079,3.648.149,16.964-.424Z" transform="translate(-448.819 -295.988)"/>
    <path id="Path_1908" data-name="Path 1908" class="cls-15" d="M997,697.076l-.313,2.024,3.612,2.718,2.913-2.471-.177-3.021-4.284-.625Z" transform="translate(-477.237 -296.842)"/>
    <path id="Path_1909" data-name="Path 1909" class="cls-16" d="M1054.382,543.885l-3.429-3.365-6.03,4.942-3.127.573-3.336,4.724.792,2.351,4.925.608.208,5.292,2.887,1.582,1.975-2.425.584-4.266,2.939,2.46,1.558-2.809Z" transform="translate(-497.238 -230.629)"/>
    <path id="Path_1910" data-name="Path 1910" class="cls-17" d="M1037.229,621.361l6.051-2.425,1.881-4.833-1.1-.963-4.232,3.371-9.762,1.5-5.723,4.764-1.376,5.492.4,5.378-1.611,6.249,1.975,3.119.094,7.419,1.053,2.058,2.006-.258.964-4.237.219-9.207,1.266-1.542,1.61,1.445.583,5.7,1.923,2.867,2.21-.287.928-3.182-.922-7.425-1.517-1.984-1.121-2.8,1.194-1.686,4.836-.7,1.48-.894-.771-1.714-7.448.711-3.753-1.032-.057-2.093,2.47-1.875Z" transform="translate(-489.241 -261.615)"/>
    <path id="Path_1911" data-name="Path 1911" class="cls-18" d="M1026.973,700.322l-3.653,1.668,3.054,2.706,10.335-1.216,3.3-2.4-1.9-2.1Z" transform="translate(-489.988 -298.241)"/>
    <path id="Path_1912" data-name="Path 1912" class="cls-19" d="M1084.435,617.747l4.039-1.835-.313-4.243-6.421.378-1.683,2.4-1.167,6.656,3.148,1.3Z" transform="translate(-516.596 -260.988)"/>
    <path id="Path_1913" data-name="Path 1913" class="cls-20" d="M1116.06,629.1l1.73,2.557,4.044,1.714,1.173,1.812-2.955,1.772-.422,3.927,1.783,1.634,8.031.4,7.375,2.723,10.663,9.982,4.279,9.425,6.822,4.449,5.978-3.308.678-4.684,7.792.189,15.943,10.4,8.594.636,1.126-2.591L1186.32,656.8l-2.246-6.576-18.929-15.864-10.408-1.794-7.271-4.3-5.269.751-10.715,8.032-3.065-1.674-.5-6.215-3.237-4.122-7.244,2.1Z" transform="translate(-534.394 -266.692)"/>
    <path id="Path_1914" data-name="Path 1914" class="cls-21" d="M1140.946,779.543l-8.208-9.552-3.111-17.6L1117.7,735.409,1114.646,721l-6.886-4-2.746,6.519,1.783,21.121-5.133,13.095-11.038-1.233-11.954-12.659.215-9.517,2.728-6.1-2.872-3.331-18.821,3.95-13.611,11.122-.568,5.819-7.131-1.353-20.664,14L996.7,777.611l-16.745,6.364-5.977,8.8-.784,19.946-.664,28.178-2.991,10.71,9.357,8.026,9.3-5.991,16.135-1.852,18.846-7.619,23.363,3.641,9.627,11.145,8.322,2.695,8.346,23.363,17.6,5.819,25.361-3.7,14.574-24.5,22.759-32.347-9.172-34.468Z" transform="translate(-450.087 -305.93)"/>
    <path id="Path_1915" data-name="Path 1915" class="cls-22" d="M1154.12,1053.364l10.934,9.987,2.413-10.555,1.339-8.514-10.924-5.143Z" transform="translate(-552.618 -443.381)"/>
    <path id="Path_1916" data-name="Path 1916" class="cls-4" d="M1267.669,1063.875l-16.469,5.607-7.75,17.5,12.618,5.08,9.871-14.253,9.173-3.692,13.613-15.56-5.144-12.2Z" transform="translate(-595.391 -446.462)"/>
    <path id="Path_1917" data-name="Path 1917" class="cls-4" d="M1342.558,985.078l-5.431-14.648-4.5.843.407,19.47-5.191,8.829.839,9.655,6.968,6.857,14.2-26.413Z" transform="translate(-635.799 -414.064)"/>
  </g>
</svg>
