<?xml version="1.0" encoding="utf-8"?>
<!-- Generator: Adobe Illustrator 21.0.0, SVG Export Plug-In . SVG Version: 6.00 Build 0)  -->
<svg version="1.1" id="Слой_1" xmlns="http://www.w3.org/2000/svg" xmlns:xlink="http://www.w3.org/1999/xlink" x="0px" y="0px"
	 viewBox="0 0 2787.5 671.2" style="enable-background:new 0 0 2787.5 671.2;" xml:space="preserve">
<g id="Path" transform="translate(1988 958)">
	<g id="Process_path">
		<g id="lights_on_path" transform="translate(2 -3)">
			
				<linearGradient id="light_5_1_" gradientUnits="userSpaceOnUse" x1="-908.8154" y1="-201.2132" x2="-908.7225" y2="-200.8131" gradientTransform="matrix(424.465 0 0 -44.0981 385186.4375 -9258.7852)">
				<stop  offset="0" style="stop-color:#432840;stop-opacity:0"/>
				<stop  offset="1" style="stop-color:#609DAF"/>
			</linearGradient>
			<path id="light_5" style="opacity:0.402;fill:url(#light_5_1_);enable-background:new    ;" d="M-548-427.9
				c113.5,0,219,36.1,219,43S-366.1-423-479.6-423c-11.8,0-26.7,23.8-47.5,30.6c-35.2,11.5-80.5,8.5-105.3,7.5
				c-99.1-4-121.1-25.6-121.1-30.5C-753.5-422.3-661.5-427.9-548-427.9z"/>
			
				<linearGradient id="light_4_1_" gradientUnits="userSpaceOnUse" x1="-910.4191" y1="-196.3943" x2="-910.3261" y2="-195.9943" gradientTransform="matrix(347.482 0 0 -36.0981 315758.75 -7807.7847)">
				<stop  offset="0" style="stop-color:#432840;stop-opacity:0"/>
				<stop  offset="1" style="stop-color:#AF60A0"/>
			</linearGradient>
			<path id="light_4" style="opacity:0.306;fill:url(#light_4_1_);enable-background:new    ;" d="M-574.2-752.9
				c92.9,0,179.3,29.6,179.3,35.2s-30.4-31.2-123.3-31.2c-9.7,0-21.9,19.5-38.9,25c-28.8,9.4-65.9,7-86.2,6.2
				c-81.1-3.3-99.1-20.9-99.1-25C-742.5-748.3-667.1-752.9-574.2-752.9z"/>
			<g id="circle_1" transform="translate(710 343)" style="opacity:0.577;">
				<circle style="fill:none;" cx="-1964.5" cy="-997.9" r="20"/>
				<circle style="fill:none;stroke:#95989A;" cx="-1964.5" cy="-997.9" r="19.5"/>
			</g>
			<g id="circle_4" transform="translate(1396 245)" style="opacity:0.577;">
				<circle style="fill:none;" cx="-1964.5" cy="-997.9" r="20"/>
				<circle style="fill:none;stroke:#95989A;" cx="-1964.5" cy="-997.9" r="19.5"/>
			</g>
			<g id="clrcle_3_2" transform="translate(1139 465)" style="opacity:0.108;">
				<circle style="fill:none;" cx="-1963.5" cy="-996.9" r="21"/>
				<circle style="fill:none;stroke:#95989A;stroke-width:2;" cx="-1963.5" cy="-996.9" r="20"/>
			</g>
			<g id="circle_3" transform="translate(1158 476)" style="opacity:0.969;">
				<circle style="fill:none;" cx="-1978" cy="-1011.4" r="6.5"/>
				<circle style="fill:none;stroke:#95989A;" cx="-1978" cy="-1011.4" r="6"/>
			</g>
			
				<linearGradient id="light_3_1_" gradientUnits="userSpaceOnUse" x1="-912.9921" y1="-208.1861" x2="-912.899" y2="-207.7861" gradientTransform="matrix(269.2364 0 0 -64.9189 244980.8281 -14045.5596)">
				<stop  offset="0" style="stop-color:#432840;stop-opacity:0"/>
				<stop  offset="1" style="stop-color:#6ECCD0"/>
			</linearGradient>
			<path id="light_3" style="opacity:0.19;fill:url(#light_3_1_);enable-background:new    ;" d="M-762.2-571
				c45.5,49.6,59.7,17.8,59.7,24.7s82.4-24.7-31.1-24.7c-11.8,0-7.8,31.3-28.6,38.1c-35.2,11.5-99.4,1-124.2,0
				c-99.1-4-37.6-24.9-37.6-29.9C-924-569.6-807.8-620.6-762.2-571z"/>
			<g id="circle_5" transform="translate(1390 616)" style="opacity:0.577;">
				<circle style="fill:none;" cx="-1973.5" cy="-1006.9" r="11"/>
				<circle style="fill:none;stroke:#95989A;" cx="-1973.5" cy="-1006.9" r="10.5"/>
			</g>
			
				<linearGradient id="light_2_1_" gradientUnits="userSpaceOnUse" x1="-924.8935" y1="-205.6149" x2="-924.8005" y2="-205.2149" gradientTransform="matrix(131.7906 0 0 -55.2935 120891.9297 -11753.1504)">
				<stop  offset="0" style="stop-color:#432840;stop-opacity:0"/>
				<stop  offset="1" style="stop-color:#6E72D0"/>
			</linearGradient>
			<path id="light_2" style="opacity:0.145;fill:url(#light_2_1_);enable-background:new    ;" d="M-967.2-418.6
				c22.3,42.2,29.2,15.2,29.2,21.1s40.3-21.1-15.2-21.1c-5.8,0-3.8,26.7-14,32.5c-17.2,9.8-48.7,0.9-60.8,0
				c-48.5-3.4-18.4-21.2-18.4-25.4C-1046.4-417.4-989.5-460.8-967.2-418.6z"/>
		</g>
		
			<linearGradient id="path_light_1_" gradientUnits="userSpaceOnUse" x1="-901.6008" y1="-223.7801" x2="-900.6038" y2="-223.7601" gradientTransform="matrix(1920.4559 0 0 -554.2712 1729500.75 -124599.2109)">
			<stop  offset="0" style="stop-color:#FFFFFF;stop-opacity:0"/>
			<stop  offset="0.32" style="stop-color:#5C9DA8;stop-opacity:0.969"/>
			<stop  offset="0.501" style="stop-color:#CCACFF"/>
			<stop  offset="0.765" style="stop-color:#FFBFE2;stop-opacity:0.969"/>
			<stop  offset="1" style="stop-color:#FFFFFF;stop-opacity:0"/>
		</linearGradient>
		<path id="path_light" style="opacity:3.500000e-02;fill:url(#path_light_1_);enable-background:new    ;" d="M-1982-847
			l270.7,73.2l418.1,93.6l40.6,30.3l50.8,84.1l51,63.4l87.6,46.9l28.9,36.9l83.9,0.8l43.8-50.1l74-46.9l39.5-74.4l118.8-94.6
			l111.8-59.1l82.9-14.9l44.2-15.9l77.9,4l296.1-31.8v39.4h-209.9l-208.3,9.3l-82.9,13.8l-57.6,27.8l-49.8,31.8l-96.6,70.1
			l-26.6,27.5l-11,26.4l-6.3,34.9l38.4,64.3l104.7,50.4l56.3,16.4l38.7,11.3l195.2,6.3l315.8-6.3l-5.2,85.3L-329-360.4l-65.4-8.7
			l-178.1-8.3l-83.8-13.9l-121-66l0,0l-37.3-65.5h-6.2l-12,13.9l-80.4,51.6l-37.4,39.4l-83.9-0.8l-26.1-30.7l-81.6-33.3l-61-83.2
			l-35.8-53.2l-13.7-30.9v5.1l-40.6-35.5l-399-90.6l-289.7,27.9V-847z"/>
		
			<linearGradient id="path_1_" gradientUnits="userSpaceOnUse" x1="-898.1871" y1="-232.5221" x2="-897.1901" y2="-232.5021" gradientTransform="matrix(-1492.1738 344.7013 52.1862 225.9083 -1327348.625 361293.875)">
			<stop  offset="0" style="stop-color:#FFFFFF;stop-opacity:0"/>
			<stop  offset="0.32" style="stop-color:#5C9DA8;stop-opacity:0.969"/>
			<stop  offset="0.501" style="stop-color:#CCACFF"/>
			<stop  offset="0.765" style="stop-color:#FFBFE2;stop-opacity:0.969"/>
			<stop  offset="1" style="stop-color:#FFFFFF;stop-opacity:0"/>
		</linearGradient>
		<path id="path_2_" style="opacity:5.300000e-02;fill:url(#path_1_);enable-background:new    ;" d="M793.5-725.6l-217.2,18.7
			l-333.7,36.9l-34.4-5.1l-47.4-25.2l-45.6-16.7l-72.5-3.4l-25.9-9.8l-65.2,14.7l-29.3,28.3l-53,32.4l-23.7,37.4l-83.4,59.9
			l-81.3,44.2l-63,21l-32.8,14.4l-60.9,12.4L-703-399.4l-3.7-16l163.1-37.7l161-41.2l63.1-20.5l42.1-21.7l35.7-21.9l68.5-45.9
			l18.1-16l6.1-12.7l1.6-15.4l-35.9-19.3l-86.1-1.8l-45.3,3.4l-31.1,2.3l-152.2,32.5L-742.9-572l-4-35.7l210.1-19.5l51.7-8.2
			l139.2-28.6l66.4-9.4l100.2,5.2l0,0l35.2,20l4.8-1.1l8-7.8l57.6-35.5l25.3-22.8l65.2-14.7l23.2,7.8l66.6-1.1l55.2,22.9l32.8,15.3
			l13.6,10.1l-0.5-2.1l34.9,7.2l318.6-34.7L783.7-768L793.5-725.6z"/>
		<g id="base_path">
			
				<linearGradient id="base_1_" gradientUnits="userSpaceOnUse" x1="-901.6011" y1="-223.8359" x2="-900.6038" y2="-223.8159" gradientTransform="matrix(1920.0339 0 0 -572.7452 1729120.375 -128791.3359)">
				<stop  offset="0" style="stop-color:#FFFFFF;stop-opacity:0"/>
				<stop  offset="0.32" style="stop-color:#5C9DA8;stop-opacity:0.969"/>
				<stop  offset="0.501" style="stop-color:#CCACFF"/>
				<stop  offset="0.765" style="stop-color:#FFBFE2;stop-opacity:0.969"/>
				<stop  offset="1" style="stop-color:#FFFFFF;stop-opacity:0"/>
			</linearGradient>
			<path id="base" style="opacity:0.171;fill:url(#base_1_);enable-background:new    ;" d="M-1982.6-882.5l136.1,64.3l134.1,27.4
				l418.1,93.6l41.7,31.1l49.7,83.4l51,63.4l87.6,46.9l28.9,36.9l83.9,0.8l43.8-50.1l74-46.9l39.5-74.4l118.8-94.6l111.8-59.1
				l82.9-14.9l44.2-15.9l77.9,4l296.1-31.8v39.4h-209.9l-208.3,9.3l-82.9,13.8l-57.6,27.8l-49.8,31.8l-96.6,70.1l-26.6,27.5
				l-11,26.4l-6.3,34.9l38.4,64.3l104.7,50.4l56.3,16.4l38.7,11.3l195.2,6.3l315.8-6.3l-5.2,85.3L-330-377.4l-65.4-8.7l-178.1-8.3
				l-83.8-13.9l-121-66l0,0l-37.9-67.6l-3.5-0.1l-2.2,2.2l-12,13.9l-80.4,51.6l-37.4,39.4l-83.9-0.8l-26.1-30.7l-81.6-33.3l-61-83.2
				l-35.8-53.2l-12.6-25.9l-42.8-34.4l-397.9-91.6l-285.7-45.8L-1982.6-882.5z"/>
			<path id="Path_1859" style="opacity:2.600000e-02;fill:#F9F9F9;enable-background:new    ;" d="M-1222-614.9l1.1,1.7l133.7,80.9
				l65.5,44l152.5-85.3l56.6-16.3l3.1-1.4l5.8-0.8v4.2l9.5-18.1l-60.5,21.1l-167,94.6l-62.6-43.8L-1222-614.9z"/>
			<g transform="matrix(1, 0, 0, 1, -1988, -958)">
				<path id="Path_1860-2" style="opacity:5.500000e-02;fill:#F9F9F9;enable-background:new    ;" d="M755.6,325.7l0.8,1.3
					l151.4,89.4l58.1,26.9l149.4-91.2l82-80.8l43.7-27l25.6-6.3l158.8-40.1l-151.1,33.6l-22,6.4l-49.3,23.4l0,0l-97.3,93
					l-139.8,86.8l-58.1-27.5L755.6,325.7z"/>
			</g>
			<g transform="matrix(1, 0, 0, 1, -1988, -958)">
				<path id="Path_1861-2" style="opacity:9.800000e-02;fill:#FBFBFB;enable-background:new    ;" d="M1074.8,513.9l64.9,30.4
					l85.4,9.4l35.3-3.1l70.1-1.1l-18.2-10l-90.5,11l-80.6-8.1l-68.6-32.1l-31.4,26.9L1074.8,513.9z"/>
			</g>
		</g>
	</g>
	<g id="_12" transform="translate(-35 -72)">
		<g transform="matrix(1, 0, 0, 1, -1953, -886)">
			
				<linearGradient id="Path_1871-2_1_" gradientUnits="userSpaceOnUse" x1="1072.3206" y1="738.0065" x2="1071.5016" y2="738.7905" gradientTransform="matrix(185.689 0 0 -160 -198200.3281 118573.9297)">
				<stop  offset="0" style="stop-color:#4C2A81;stop-opacity:0"/>
				<stop  offset="0.473" style="stop-color:#9839BA"/>
				<stop  offset="1" style="stop-color:#561DA3;stop-opacity:0"/>
			</linearGradient>
			<path id="Path_1871-2" style="fill:url(#Path_1871-2_1_);" d="M756.9,335.1l76.4,102.7l109.2,57.3c0,0-93.6-34.3-94.4-34.6
				C844.1,458.6,756.9,335.1,756.9,335.1z"/>
		</g>
		
			<linearGradient id="Path_1847_1_" gradientUnits="userSpaceOnUse" x1="-881.2609" y1="-148.3867" x2="-882.2889" y2="-147.4017" gradientTransform="matrix(178.452 0 0 -169.024 156229.0156 -25465.0156)">
			<stop  offset="0" style="stop-color:#CC94FD;stop-opacity:0"/>
			<stop  offset="0" style="stop-color:#3D286A;stop-opacity:0.82"/>
			<stop  offset="0.35" style="stop-color:#43296D;stop-opacity:0.831"/>
			<stop  offset="0.459" style="stop-color:#A0339C"/>
			<stop  offset="0.551" style="stop-color:#FCB1FF;stop-opacity:0.855"/>
			<stop  offset="0.64" style="stop-color:#6146A9;stop-opacity:0.906"/>
			<stop  offset="0.827" style="stop-color:#223789;stop-opacity:0.765"/>
			<stop  offset="1" style="stop-color:#333380;stop-opacity:0"/>
		</linearGradient>
		<path id="Path_1847" style="fill:url(#Path_1847_1_);" d="M-1204.4-563.2l36.2,52.5l51.3,62.8l25.8,15.8l65.1,37.9l-61-24.8
			l-21-8.3l-61.5-84.2L-1204.4-563.2z"/>
		
			<linearGradient id="Points_light_1_" gradientUnits="userSpaceOnUse" x1="-871.8154" y1="-132.2132" x2="-871.7225" y2="-131.8131" gradientTransform="matrix(424.465 0 0 -44.0981 368908.2188 -6259.0137)">
			<stop  offset="0" style="stop-color:#432840;stop-opacity:0"/>
			<stop  offset="1" style="stop-color:#7060AF"/>
		</linearGradient>
		<path id="Points_light" style="opacity:0.645;fill:url(#Points_light_1_);enable-background:new    ;" d="M-1121-470.9
			c113.5,0,219,36.1,219,43s-37.1-38.1-150.6-38.1c-11.8,0-26.7,23.8-47.5,30.6c-35.2,11.5-80.5,8.5-105.3,7.5
			c-99.1-4-121.1-25.6-121.1-30.5C-1326.5-465.3-1234.5-470.9-1121-470.9z"/>
		<g id="circle_lights">
			<g id="Ellipse_4" transform="translate(841.545 543.784)">
				<circle style="fill:#FFFFFF;" cx="-1977.8" cy="-1011.2" r="6.7"/>
				<circle style="fill:none;stroke:#FFC60A;" cx="-1977.8" cy="-1011.2" r="6.2"/>
			</g>
			<circle id="Ellipse_24" style="fill:#FFFFFF;" cx="-1138.2" cy="-470.4" r="4.7"/>
			<g id="Ellipse_25" transform="translate(818 521)" style="opacity:0.577;">
				<circle style="fill:none;" cx="-1951.5" cy="-984.9" r="33"/>
				<circle style="fill:none;stroke:#95989A;" cx="-1951.5" cy="-984.9" r="32.5"/>
			</g>
			<g id="Ellipse_26" transform="translate(829 531)">
				<circle style="fill:none;" cx="-1967" cy="-1000.4" r="17.5"/>
				<circle style="fill:none;stroke:#CECECE;" cx="-1967" cy="-1000.4" r="17"/>
			</g>
			<circle id="Ellipse_27" style="opacity:0.256;fill:#FFFFFF;enable-background:new    ;" cx="-1153" cy="-492.4" r="5.5"/>
			<circle id="Ellipse_28" style="opacity:0.679;fill:#FFFFFF;enable-background:new    ;" cx="-1133.5" cy="-431.9" r="2"/>
		</g>
	</g>
	<g id="_23" transform="translate(604.451 1429.018) rotate(-95)">
		<g transform="matrix(-0.09, 1, -1, -0.09, 2603.88, -2374.54)">
			
				<linearGradient id="Path_1925-2_1_" gradientUnits="userSpaceOnUse" x1="1062.8562" y1="732.831" x2="1063.9893" y2="733.988" gradientTransform="matrix(135.8074 -0.3559 -0.3383 -142.8505 -143037.5 105602.7578)">
				<stop  offset="0" style="stop-color:#4C2A81;stop-opacity:0"/>
				<stop  offset="0.473" style="stop-color:#9839BA"/>
				<stop  offset="0.567" style="stop-color:#FFEB96;stop-opacity:0.824"/>
				<stop  offset="1" style="stop-color:#561DA3;stop-opacity:0"/>
			</linearGradient>
			<path id="Path_1925-2" style="fill:url(#Path_1925-2_1_);" d="M1165.1,427.9l-5.2,8.1l-72.3,47.5l-23.8,26.2l21.6-19.2
				c0,0,17.6-13.5,41-28.1c23.5-14.5,55.9-32.1,55.9-32.1c-0.9-0.4,16.8-63,16.8-63L1165.1,427.9z"/>
		</g>
		
			<linearGradient id="Path_1924_1_" gradientUnits="userSpaceOnUse" x1="1775.9474" y1="-1373.5684" x2="1777.0034" y2="-1374.6323" gradientTransform="matrix(-168.8494 -29.1199 -29.1199 161.4445 261851.8594 272092.5938)">
			<stop  offset="0" style="stop-color:#CC94FD;stop-opacity:0"/>
			<stop  offset="0" style="stop-color:#3D286A;stop-opacity:0.82"/>
			<stop  offset="0.35" style="stop-color:#43296D;stop-opacity:0.831"/>
			<stop  offset="0.511" style="stop-color:#A0339C"/>
			<stop  offset="0.577" style="stop-color:#FCB1FF;stop-opacity:0.855"/>
			<stop  offset="0.612" style="stop-color:#7453B4;stop-opacity:0.898"/>
			<stop  offset="0.663" style="stop-color:#6146A9;stop-opacity:0.906"/>
			<stop  offset="0.759" style="stop-color:#223789;stop-opacity:0.765"/>
			<stop  offset="1" style="stop-color:#333380;stop-opacity:0"/>
		</linearGradient>
		<path id="Path_1924" style="fill:url(#Path_1924_1_);" d="M2148.5-1208.6l-7.4-8.2l-24.7-13.1l-32.2-8.6l-57.2-108.8l-34.8-39.5
			l45.4,47.1l40.4,78.1l60.9,39.2L2148.5-1208.6z"/>
		<g id="circle_lights-2" transform="translate(-90.744 331.03) rotate(-17)">
			<g id="Ellipse_4-2" transform="translate(841.545 543.784)">
				
					<ellipse transform="matrix(0.9272 -0.3746 0.3746 0.9272 667.2503 528.7981)" style="fill:#FFFFFF;" cx="1693.8" cy="-1452" rx="6.7" ry="6.7"/>
				
					<ellipse transform="matrix(0.9272 -0.3746 0.3746 0.9272 667.2503 528.7981)" style="fill:none;stroke:#FFC60A;" cx="1693.8" cy="-1452" rx="6.2" ry="6.2"/>
			</g>
			
				<ellipse id="Ellipse_24-2" transform="matrix(0.9272 -0.3746 0.3746 0.9272 525.8021 882.6741)" style="fill:#FFFFFF;" cx="2533.4" cy="-911.2" rx="4.7" ry="4.7"/>
			<g id="Ellipse_25-2" transform="translate(818 521)" style="opacity:0.577;">
				
					<ellipse transform="matrix(0.9272 -0.3746 0.3746 0.9272 659.3138 540.5645)" style="fill:none;" cx="1720.1" cy="-1425.7" rx="33" ry="33"/>
				
					<ellipse transform="matrix(0.9272 -0.3746 0.3746 0.9272 659.3138 540.5645)" style="fill:none;stroke:#95989A;" cx="1720.1" cy="-1425.7" rx="32.5" ry="32.5"/>
			</g>
			<g id="Ellipse_26-2" transform="translate(829 531)">
				
					<ellipse transform="matrix(0.9272 -0.3746 0.3746 0.9272 663.9916 533.6294)" style="fill:none;" cx="1704.6" cy="-1441.2" rx="17.5" ry="17.5"/>
				
					<ellipse transform="matrix(0.9272 -0.3746 0.3746 0.9272 663.9916 533.6294)" style="fill:none;stroke:#CECECE;" cx="1704.6" cy="-1441.2" rx="17" ry="17"/>
			</g>
			
				<ellipse id="Ellipse_27-2" transform="matrix(0.9272 -0.3746 0.3746 0.9272 532.6618 875.1023)" style="opacity:0.256;fill:#FFFFFF;enable-background:new    ;" cx="2517.3" cy="-932.6" rx="5.5" ry="5.5"/>
			
				<ellipse id="Ellipse_28-2" transform="matrix(0.9272 -0.3746 0.3746 0.9272 516.9232 894.4918)" style="opacity:0.679;fill:#FFFFFF;enable-background:new    ;" cx="2559.3" cy="-882.4" rx="2" ry="2"/>
		</g>
	</g>
	<g id="_35" transform="translate(362.26 181.632) rotate(-11)">
		<g transform="matrix(0.98, 0.19, -0.19, 0.98, -2089.63, -1567.14)">
			
				<linearGradient id="Path_1927-2_1_" gradientUnits="userSpaceOnUse" x1="1077.2223" y1="744.2224" x2="1076.3403" y2="745.1924" gradientTransform="matrix(231.919 4.450282e-02 0.1124 -91.8318 -248515.4844 68859.7578)">
				<stop  offset="0" style="stop-color:#4C2A81;stop-opacity:0"/>
				<stop  offset="0.427" style="stop-color:#9839BA"/>
				<stop  offset="1" style="stop-color:#561DA3;stop-opacity:0"/>
			</linearGradient>
			<path id="Path_1927-2" style="fill:url(#Path_1927-2_1_);" d="M1178.2,467.4l99.8,46.9l36.8,17.2l95.7,27.9l-88.6-16.3
				l-27.4-15.7L1178.2,467.4z"/>
		</g>
		
			<linearGradient id="Path_1926_1_" gradientUnits="userSpaceOnUse" x1="-1176.0457" y1="-635.5308" x2="-1175.9236" y2="-634.5778" gradientTransform="matrix(209.122 63.3727 63.3606 -104.4489 285270.5 7383.564)">
			<stop  offset="0" style="stop-color:#CC94FD;stop-opacity:0"/>
			<stop  offset="2.700000e-02" style="stop-color:#212A4B;stop-opacity:0.808"/>
			<stop  offset="0.141" style="stop-color:#2C2562;stop-opacity:0.827"/>
			<stop  offset="0.177" style="stop-color:#27124A;stop-opacity:0.831"/>
			<stop  offset="0.343" style="stop-color:#323C80;stop-opacity:0.824"/>
			<stop  offset="0.503" style="stop-color:#A0339C"/>
			<stop  offset="0.534" style="stop-color:#E5A1E8;stop-opacity:0.855"/>
			<stop  offset="0.611" style="stop-color:#6146A9;stop-opacity:0.906"/>
			<stop  offset="1" style="stop-color:#333380;stop-opacity:0"/>
		</linearGradient>
		<path id="Path_1926" style="fill:url(#Path_1926_1_);" d="M-1005-901.6l15.2,42.7l92.9,69.3l86.9,45l-78.3-28.1l-106.2-88.1
			L-1005-901.6z"/>
		<g id="circle_lights-3" transform="matrix(0.819, -0.574, 0.574, 0.819, -224.87, 570.255)">
			<g id="Ellipse_4-3" transform="translate(841.545 543.784)">
				
					<ellipse transform="matrix(0.6943 -0.7196 0.7196 0.6943 1336.1226 -1109.9786)" style="fill:#FFFFFF;" cx="-638.6" cy="-2127.9" rx="6.7" ry="6.7"/>
				
					<ellipse transform="matrix(0.6943 -0.7196 0.7196 0.6943 1336.1226 -1109.9786)" style="fill:none;stroke:#FFC60A;" cx="-638.6" cy="-2127.9" rx="6.2" ry="6.2"/>
			</g>
			
				<ellipse id="Ellipse_24-3" transform="matrix(0.6943 -0.7196 0.7196 0.6943 1203.5632 -340.5167)" style="fill:#FFFFFF;" cx="200.9" cy="-1587.1" rx="4.7" ry="4.7"/>
			<g id="Ellipse_25-3" transform="translate(818 521)" style="opacity:0.577;">
				
					<ellipse transform="matrix(0.6943 -0.7196 0.7196 0.6943 1325.2356 -1083.0154)" style="fill:none;" cx="-612.3" cy="-2101.6" rx="33" ry="33"/>
				
					<ellipse transform="matrix(0.6943 -0.7196 0.7196 0.6943 1325.2356 -1083.0154)" style="fill:none;stroke:#95989A;" cx="-612.3" cy="-2101.6" rx="32.5" ry="32.5"/>
			</g>
			<g id="Ellipse_26-3" transform="translate(829 531)">
				
					<ellipse transform="matrix(0.6943 -0.7196 0.7196 0.6943 1331.6523 -1098.9075)" style="fill:none;" cx="-627.8" cy="-2117.1" rx="17.5" ry="17.5"/>
				
					<ellipse transform="matrix(0.6943 -0.7196 0.7196 0.6943 1331.6523 -1098.9075)" style="fill:none;stroke:#CECECE;" cx="-627.8" cy="-2117.1" rx="17" ry="17"/>
			</g>
			
				<ellipse id="Ellipse_27-3" transform="matrix(0.6943 -0.7196 0.7196 0.6943 1224.365 -346.1783)" style="opacity:0.256;fill:#FFFFFF;enable-background:new    ;" cx="204.7" cy="-1614.4" rx="5.5" ry="5.5"/>
			
				<ellipse id="Ellipse_28-3" transform="matrix(0.6943 -0.7196 0.7196 0.6943 1175.1179 -332.1931)" style="opacity:0.679;fill:#FFFFFF;enable-background:new    ;" cx="196.5" cy="-1549.5" rx="2" ry="2"/>
		</g>
	</g>
	<g id="_34" transform="matrix(-0.259, 0.966, -0.966, -0.259, 2048.955, -368.55)">
		<g transform="matrix(-0.26, -0.97, 0.97, -0.26, 475.48, 4051.96)">
			
				<linearGradient id="Path_1929-2_1_" gradientUnits="userSpaceOnUse" x1="1071.0776" y1="737.0086" x2="1069.9366" y2="735.8046" gradientTransform="matrix(223.6369 -1.032162e-02 -1.558448e-02 -148.141 -238075.6719 109380.9531)">
				<stop  offset="0" style="stop-color:#4C2A81;stop-opacity:0"/>
				<stop  offset="0.121" style="stop-color:#7927CB;stop-opacity:0.141"/>
				<stop  offset="0.737" style="stop-color:#FFE346;stop-opacity:0.431"/>
				<stop  offset="0.783" style="stop-color:#9839BA"/>
				<stop  offset="1" style="stop-color:#561DA3;stop-opacity:0"/>
			</linearGradient>
			<path id="Path_1929-2" style="fill:url(#Path_1929-2_1_);" d="M1212.1,355.6l109.4-92.5l113.3-55l-116.1,66L1212.1,355.6z"/>
		</g>
		
			<linearGradient id="Path_1928_1_" gradientUnits="userSpaceOnUse" x1="911.6144" y1="2821.26" x2="910.5984" y2="2822.26" gradientTransform="matrix(-125.9122 94.8756 94.8756 202.5104 -152589.75 -655196.375)">
			<stop  offset="0" style="stop-color:#CC94FD;stop-opacity:0"/>
			<stop  offset="1.700000e-02" style="stop-color:#3D286A;stop-opacity:0.82"/>
			<stop  offset="0.388" style="stop-color:#43296D;stop-opacity:0.831"/>
			<stop  offset="0.675" style="stop-color:#973297;stop-opacity:0.984"/>
			<stop  offset="0.731" style="stop-color:#FCB1FF;stop-opacity:0.855"/>
			<stop  offset="0.8" style="stop-color:#6146A9;stop-opacity:0.906"/>
			<stop  offset="0.88" style="stop-color:#223789;stop-opacity:0.765"/>
			<stop  offset="1" style="stop-color:#333380;stop-opacity:0"/>
		</linearGradient>
		<path id="Path_1928" style="fill:url(#Path_1928_1_);" d="M504.1,2805.4l-120-88.8l-53.1-56.9l-32.1-35.3l44.2,46.7l45.1,41.4
			l92.1,74L504.1,2805.4z"/>
		<g id="circle_lights-4" transform="matrix(-0.94, 0.342, -0.342, -0.94, 1825.836, 749.661)">
			<g id="Ellipse_4-4" transform="translate(841.545 543.784)">
				
					<ellipse transform="matrix(0.9962 -8.687722e-02 8.687722e-02 0.9962 167.9312 96.5017)" style="fill:#FFFFFF;" cx="1192.6" cy="-1881.1" rx="6.7" ry="6.7"/>
				
					<ellipse transform="matrix(0.9962 -8.687722e-02 8.687722e-02 0.9962 167.9312 96.5017)" style="fill:none;stroke:#FFC60A;" cx="1192.6" cy="-1881.1" rx="6.2" ry="6.2"/>
			</g>
			
				<ellipse id="Ellipse_24-4" transform="matrix(0.9962 -8.687722e-02 8.687722e-02 0.9962 124.1238 171.4836)" style="fill:#FFFFFF;" cx="2032.2" cy="-1340.3" rx="4.7" ry="4.7"/>
			<g id="Ellipse_25-4" transform="translate(818 521)" style="opacity:0.577;">
				
					<ellipse transform="matrix(0.9962 -8.687722e-02 8.687722e-02 0.9962 165.7459 98.8859)" style="fill:none;" cx="1218.9" cy="-1854.8" rx="33" ry="33"/>
				
					<ellipse transform="matrix(0.9962 -8.687722e-02 8.687722e-02 0.9962 165.7459 98.8859)" style="fill:none;stroke:#95989A;" cx="1218.9" cy="-1854.8" rx="32.5" ry="32.5"/>
			</g>
			<g id="Ellipse_26-4" transform="translate(829 531)">
				
					<ellipse transform="matrix(0.9962 -8.687722e-02 8.687722e-02 0.9962 167.0339 97.4807)" style="fill:none;" cx="1203.4" cy="-1870.3" rx="17.5" ry="17.5"/>
				
					<ellipse transform="matrix(0.9962 -8.687722e-02 8.687722e-02 0.9962 167.0339 97.4807)" style="fill:none;stroke:#CECECE;" cx="1203.4" cy="-1870.3" rx="17" ry="17"/>
			</g>
			
				<ellipse id="Ellipse_27-4" transform="matrix(0.9962 -8.687722e-02 8.687722e-02 0.9962 125.8043 170.1119)" style="opacity:0.256;fill:#FFFFFF;enable-background:new    ;" cx="2017.3" cy="-1360.3" rx="5.5" ry="5.5"/>
			
				<ellipse id="Ellipse_28-4" transform="matrix(0.9962 -8.687722e-02 8.687722e-02 0.9962 121.407 173.9841)" style="opacity:0.679;fill:#FFFFFF;enable-background:new    ;" cx="2059.6" cy="-1307.8" rx="2" ry="2"/>
		</g>
	</g>
	<g id="_4" transform="translate(0 -1)">
		<g transform="matrix(1, 0, 0, 1, -1988, -957)">
			
				<linearGradient id="Path_1931-3_1_" gradientUnits="userSpaceOnUse" x1="1080.9855" y1="765.5684" x2="1080.0365" y2="765.5384" gradientTransform="matrix(382.6949 0 0 -29.02 -411872.2188 22401.6738)">
				<stop  offset="0" style="stop-color:#230F41;stop-opacity:0"/>
				<stop  offset="0.715" style="stop-color:#9839BA"/>
				<stop  offset="1" style="stop-color:#2C144D;stop-opacity:0"/>
			</linearGradient>
			<path id="Path_1931-3" style="opacity:0.754;fill:url(#Path_1931-3_1_);enable-background:new    ;" d="M1427.4,200.2l125.7-29
				l76.5,8.5l180.5-2c0,0-301.8,9-302.5,8.6C1503.5,184.4,1427.4,200.2,1427.4,200.2z"/>
		</g>
		
			<linearGradient id="Path_1930_1_" gradientUnits="userSpaceOnUse" x1="-913.5674" y1="-193.2164" x2="-912.8274" y2="-192.6854" gradientTransform="matrix(229.268 0 0 -30.2529 208852.1719 -6607.6011)">
			<stop  offset="0" style="stop-color:#CC94FD;stop-opacity:0"/>
			<stop  offset="0" style="stop-color:#3D286A;stop-opacity:0.82"/>
			<stop  offset="0" style="stop-color:#43296D;stop-opacity:0.831"/>
			<stop  offset="0.313" style="stop-color:#A0339C"/>
			<stop  offset="0.418" style="stop-color:#DF75E3;stop-opacity:0.863"/>
			<stop  offset="0.561" style="stop-color:#6146A9;stop-opacity:0.906"/>
			<stop  offset="0.629" style="stop-color:#2E3E7B;stop-opacity:0.765"/>
			<stop  offset="1" style="stop-color:#333380;stop-opacity:0"/>
		</linearGradient>
		<path id="Path_1930" style="fill:url(#Path_1930_1_);" d="M-436.1-789.8l-44.7,16.1l-80.7,14.2l80.7-9.3l148.5-6.6l-27-10.4
			L-436.1-789.8z"/>
		<g id="circle_lights-5" transform="matrix(-0.07, -0.998, 0.998, -0.07, 1124.712, 1124.572)">
			<g id="Ellipse_4-5" transform="translate(841.545 543.784)">
				
					<ellipse transform="matrix(0.9975 -6.996838e-02 6.996838e-02 0.9975 135.8406 76.5329)" style="fill:#FFFFFF;" cx="1160.4" cy="-1900.8" rx="6.7" ry="6.7"/>
				
					<ellipse transform="matrix(0.9975 -6.996838e-02 6.996838e-02 0.9975 135.8406 76.5329)" style="fill:none;stroke:#FFC60A;" cx="1160.4" cy="-1900.8" rx="6.2" ry="6.2"/>
			</g>
			
				<ellipse id="Ellipse_24-5" transform="matrix(0.9975 -6.996838e-02 6.996838e-02 0.9975 100.0605 136.5997)" style="fill:#FFFFFF;" cx="1999.9" cy="-1360" rx="4.7" ry="4.7"/>
			<g id="Ellipse_25-5" transform="translate(818 521)" style="opacity:0.577;">
				
					<ellipse transform="matrix(0.9975 -6.996838e-02 6.996838e-02 0.9975 134.065 78.4374)" style="fill:none;" cx="1186.7" cy="-1874.5" rx="33" ry="33"/>
				
					<ellipse transform="matrix(0.9975 -6.996838e-02 6.996838e-02 0.9975 134.065 78.4374)" style="fill:none;stroke:#95989A;" cx="1186.7" cy="-1874.5" rx="32.5" ry="32.5"/>
			</g>
			<g id="Ellipse_26-5" transform="translate(829 531)">
				
					<ellipse transform="matrix(0.9975 -6.996838e-02 6.996838e-02 0.9975 135.1115 77.3149)" style="fill:none;" cx="1171.2" cy="-1890" rx="17.5" ry="17.5"/>
				
					<ellipse transform="matrix(0.9975 -6.996838e-02 6.996838e-02 0.9975 135.1115 77.3149)" style="fill:none;stroke:#CECECE;" cx="1171.2" cy="-1890" rx="17" ry="17"/>
			</g>
			
				<ellipse id="Ellipse_27-5" transform="matrix(0.9975 -6.996838e-02 6.996838e-02 0.9975 101.1031 138.6505)" style="opacity:0.256;fill:#FFFFFF;enable-background:new    ;" cx="2029.7" cy="-1373.9" rx="5.5" ry="5.5"/>
			
				<ellipse id="Ellipse_28-5" transform="matrix(0.9975 -6.996838e-02 6.996838e-02 0.9975 98.8546 134.8365)" style="opacity:0.679;fill:#FFFFFF;enable-background:new    ;" cx="1974.2" cy="-1343.7" rx="2" ry="2"/>
		</g>
	</g>
	<g id="_5" transform="translate(59 370)">
		<g transform="matrix(1, 0, 0, 1, -2047, -1328)">
			
				<linearGradient id="Path_1931-4_1_" gradientUnits="userSpaceOnUse" x1="1078.1976" y1="843.3094" x2="1077.2386" y2="843.1075" gradientTransform="matrix(283.5682 0 0 -8.6659 -303958.8438 7874.9121)">
				<stop  offset="0" style="stop-color:#230F41;stop-opacity:0"/>
				<stop  offset="0.554" style="stop-color:#9839BA"/>
				<stop  offset="1" style="stop-color:#2C144D;stop-opacity:0"/>
			</linearGradient>
			<path id="Path_1931-4" style="opacity:0.754;fill:url(#Path_1931-4_1_);enable-background:new    ;" d="M1490.9,563.9l107.2,4
				l56-3c0,0,115.3,0.6,120.1,1s-69.5,3.5-69.5,3.5l-62.3,3.1L1490.9,563.9z"/>
		</g>
		
			<linearGradient id="Path_1930-2_1_" gradientUnits="userSpaceOnUse" x1="-975.3381" y1="-532.0922" x2="-974.3251" y2="-532.8262" gradientTransform="matrix(184.519 0 0 -15.226 179451.2031 -8863.2119)">
			<stop  offset="0" style="stop-color:#CC94FD;stop-opacity:0"/>
			<stop  offset="3.000000e-02" style="stop-color:#3D286A;stop-opacity:0.82"/>
			<stop  offset="5.400000e-02" style="stop-color:#43296D;stop-opacity:0.831"/>
			<stop  offset="0.221" style="stop-color:#A0339C"/>
			<stop  offset="0.309" style="stop-color:#DF75E3;stop-opacity:0.863"/>
			<stop  offset="0.406" style="stop-color:#6146A9;stop-opacity:0.906"/>
			<stop  offset="0.77" style="stop-color:#2E3E7B;stop-opacity:0.765"/>
			<stop  offset="1" style="stop-color:#333380;stop-opacity:0"/>
		</linearGradient>
		<path id="Path_1930-2" style="fill:url(#Path_1930-2_1_);" d="M-436.1-758.5l-49.3-2.1l-89.6-2l119.8,7.4l64.7,7.8v-13.2
			L-436.1-758.5z"/>
		<g id="circle_lights-6" transform="matrix(-0.07, -0.998, 0.998, -0.07, 1065.712, 1142.572)">
			<g id="Ellipse_4-6" transform="translate(841.545 543.784)">
				
					<ellipse transform="matrix(0.9975 -6.996838e-02 6.996838e-02 0.9975 135.8406 76.5329)" style="fill:#FFFFFF;" cx="1160.4" cy="-1900.8" rx="6.7" ry="6.7"/>
				
					<ellipse transform="matrix(0.9975 -6.996838e-02 6.996838e-02 0.9975 135.8406 76.5329)" style="fill:none;stroke:#FFC60A;" cx="1160.4" cy="-1900.8" rx="6.2" ry="6.2"/>
			</g>
			
				<ellipse id="Ellipse_24-6" transform="matrix(0.9975 -6.996838e-02 6.996838e-02 0.9975 100.0605 136.5997)" style="fill:#FFFFFF;" cx="1999.9" cy="-1360" rx="4.7" ry="4.7"/>
			<g id="Ellipse_25-6" transform="translate(818 521)" style="opacity:0.577;">
				
					<ellipse transform="matrix(0.9975 -6.996838e-02 6.996838e-02 0.9975 134.065 78.4374)" style="fill:none;" cx="1186.7" cy="-1874.5" rx="33" ry="33"/>
				
					<ellipse transform="matrix(0.9975 -6.996838e-02 6.996838e-02 0.9975 134.065 78.4374)" style="fill:none;stroke:#95989A;" cx="1186.7" cy="-1874.5" rx="32.5" ry="32.5"/>
			</g>
			<g id="Ellipse_26-6" transform="translate(829 531)">
				
					<ellipse transform="matrix(0.9975 -6.996838e-02 6.996838e-02 0.9975 135.1115 77.3149)" style="fill:none;" cx="1171.2" cy="-1890" rx="17.5" ry="17.5"/>
				
					<ellipse transform="matrix(0.9975 -6.996838e-02 6.996838e-02 0.9975 135.1115 77.3149)" style="fill:none;stroke:#CECECE;" cx="1171.2" cy="-1890" rx="17" ry="17"/>
			</g>
			
				<ellipse id="Ellipse_27-6" transform="matrix(0.9975 -6.996838e-02 6.996838e-02 0.9975 100.8135 138.9207)" style="opacity:0.256;fill:#FFFFFF;enable-background:new    ;" cx="2033.5" cy="-1369.6" rx="5.5" ry="5.5"/>
			
				<ellipse id="Ellipse_28-6" transform="matrix(0.9975 -6.996838e-02 6.996838e-02 0.9975 99.3517 134.6437)" style="opacity:0.679;fill:#FFFFFF;enable-background:new    ;" cx="1971.7" cy="-1350.9" rx="2" ry="2"/>
		</g>
	</g>
</g>
</svg>
