<svg xmlns="http://www.w3.org/2000/svg" xmlns:xlink="http://www.w3.org/1999/xlink" viewBox="0 0 2854.605 1551.69">
  <defs>
    <style>
      .cls-1 {
        opacity: 0.505;
      }

      .cls-2, .cls-3, .cls-9 {
        fill: none;
      }

      .cls-2, .cls-3 {
        stroke: #95989a;
      }

      .cls-2 {
        stroke-width: 2px;
        opacity: 0.108;
      }

      .cls-3 {
        opacity: 0.969;
      }

      .cls-4 {
        opacity: 0.035;
        fill: url(#linear-gradient);
      }

      .cls-5 {
        opacity: 0.053;
        fill: url(#linear-gradient-2);
      }

      .cls-6 {
        opacity: 0.171;
        fill: url(#linear-gradient-3);
      }

      .cls-7 {
        fill: #fbfbfb;
        opacity: 0.1;
      }

      .cls-8 {
        stroke: none;
      }

      .cls-10 {
        filter: url(#part_shadow_y-2_b18);
      }
    </style>
    <linearGradient id="linear-gradient" y1="0.557" x2="0.997" y2="0.537" gradientUnits="objectBoundingBox">
      <stop offset="0" stop-color="#fff" stop-opacity="0"/>
      <stop offset="0.32" stop-color="#5c9da8" stop-opacity="0.969"/>
      <stop offset="0.501" stop-color="#ccacff"/>
      <stop offset="0.765" stop-color="#ffbfe2" stop-opacity="0.969"/>
      <stop offset="1" stop-color="#fff" stop-opacity="0"/>
    </linearGradient>
    <linearGradient id="linear-gradient-2" y1="0.557" x2="0.997" y2="0.537" gradientUnits="objectBoundingBox">
      <stop offset="0" stop-color="#fff" stop-opacity="0"/>
      <stop offset="0.22" stop-color="#5c9da8" stop-opacity="0.969"/>
      <stop offset="0.445" stop-color="#ccacff"/>
      <stop offset="0.501" stop-color="#ffbfe2" stop-opacity="0.969"/>
      <stop offset="1" stop-color="#fff" stop-opacity="0"/>
    </linearGradient>
    <linearGradient id="linear-gradient-3" y1="0.557" x2="0.997" y2="0.537" xlink:href="#linear-gradient"/>
    <filter id="part_shadow_y-2_b18" x="1315.387" y="791.358" width="554.207" height="629.414" filterUnits="userSpaceOnUse">
      <feOffset dy="-2" input="SourceAlpha"/>
      <feGaussianBlur stdDeviation="9" result="blur"/>
      <feFlood flood-color="#fff"/>
      <feComposite operator="in" in2="blur"/>
      <feComposite in="SourceGraphic"/>
    </filter>
    <filter id="blur_semilight" x="-140%" y="-100%" height="300%" width="380%">
      <feGaussianBlur stdDeviation="2" />
    </filter>
    <filter id="blur_light" x="-140%" y="-100%" height="300%" width="380%">
      <feGaussianBlur stdDeviation="3" />
    </filter>
    <filter id="blur_semimedium" x="-140%" y="-100%" height="300%" width="380%">
      <feGaussianBlur stdDeviation="6" />
    </filter>
  </defs>
  <g id="Group_34" data-name="Group 34" transform="translate(557.885 407.427)">
    <g id="Path_crop" data-name="Path crop" class="cls-1" transform="translate(-5421.121 -1244.756)">
      <g id="clrcle_blur_6" data-name="clrcle blur 6" class="cls-2" filter="url(#blur_semimedium)" transform="translate(5374.199 1541.124)">
        <circle class="cls-8" cx="99.075" cy="99.075" r="99.075"/>
        <circle class="cls-9" cx="99.075" cy="99.075" r="98.075"/>
      </g>
      <g id="circle_blur_3" data-name="circle blur 3" class="cls-3" filter="url(#blur_light)" transform="translate(5463.838 1593.02)">
        <circle class="cls-8" cx="30.666" cy="30.666" r="30.666"/>
        <circle class="cls-9" cx="30.666" cy="30.666" r="30.166"/>
      </g>
      <path id="part_2_blur_2_" data-name="part 2 blur 2 " class="cls-4" filter="url(#blur_semilight)" d="M4867.965,3189.909l206.467-236.464L5423.369,2732.1l186.222-350.985,560.671-446.408h0L5735.09,2285.969l-125.5,129.512-52,124.606-29.53,164.793,181.336,303.557,493.961,237.9,265.563,77.608,182.485,53.33v3.194l-395.254-65.607L5685.215,3003.72h0l-176.1-308.9h-29.284l-56.466,65.611L5044.233,3004l-176.268,185.907Z" transform="translate(1.27 -997.453)"/>
      <path id="part_light_blur_2" data-name="part light blur 2" class="cls-5" filter="url(#blur_semilight)" d="M1530.859,153.717l147.511-67.4,166.213-31.49,293.359,7.9L3252.337,0V77.708H2462.373l-784,18.409-147.511,57.6,533.047,694.732,1188.43-12.37-19.626,168.452L2245.917,871l-246.249-17.133Z" transform="matrix(-0.974, 0.225, -0.225, -0.974, 9203.464, 1545.282)"/>
      <path id="base" class="cls-6" d="M4866.4,3258.595l206.467-236.463L5311.109,2871l110.691-70.215L5608.023,2449.8l73.423-58.46,144.129-114.756L6168.695,2003.4l24.2-19.725-64.854,90.427-292.464,206.52-102.055,74.036-125.5,129.512-52,124.606-29.53,164.793,181.336,303.557,493.961,237.9,105.569,30.852,159.995,46.757,182.485,53.329v3.194L6449.17,3415.85l-194.59-32.3-69.239-37.734-501.694-273.411h0l-178.879-318.884-16.345-.338-10.156,10.32-56.467,65.611-107.778,69.241-271.357,174.332L4866.4,3258.595Z" transform="translate(-1.879 -1146.342)"/>
      <g class="cls-10" transform="matrix(1, 0, 0, 1, 4863.24, 837.33)">
        <path id="part_shadow_y-2_b18-2" data-name="part shadow y-2 b18" class="cls-7" d="M0,0,201.333,52.264l249.82,138.859,39.864,183.831,11.318,106.038,37.616-115.58-42.121-73.074-18.972-76.645-6.39-32.2,86.5-92.251-97.906,86.507L206.234,47.092Z" transform="translate(1823.09 820.36) rotate(88)"/>
      </g>
    </g>
  </g>
</svg>
